<svg width="75" height="75" viewBox="0 -16 131 131" fill="none" xmlns="http://www.w3.org/2000/svg">
    <circle cx="65.5" cy="47.5" r="60" fill="#FFE7F2"/>
  <path d="M78.5089 40.1213C78.5089 40.0202 78.3644 39.9191 78.2922 39.818L78.1622 39.6735C77.8259 39.2583 77.4016 38.9228 76.92 38.6913L67.6756 34.358C67.1637 34.1221 66.6069 34 66.0433 34C65.4798 34 64.9229 34.1221 64.4111 34.358L55.1667 38.6913C54.6875 38.9267 54.264 39.2616 53.9244 39.6735L53.7511 39.7458C53.6671 39.8326 53.5943 39.9297 53.5344 40.0347C53.1899 40.5795 53.0047 41.21 53 41.8547V52.0524C53.0019 52.7414 53.2017 53.4153 53.5756 53.994C53.9494 54.5727 54.4816 55.0319 55.1089 55.3169L64.3533 59.6502C64.8671 59.8882 65.4265 60.0115 65.9928 60.0115C66.559 60.0115 67.1185 59.8882 67.6322 59.6502L76.8767 55.3169C77.5022 55.0361 78.0344 54.5823 78.4106 54.009C78.7868 53.4358 78.9913 52.7669 79 52.0813V41.8547C78.9926 41.2436 78.8231 40.6454 78.5089 40.1213ZM65.5811 36.9435C65.7133 36.8863 65.8559 36.8568 66 36.8568C66.1441 36.8568 66.2867 36.8863 66.4189 36.9435L74.1178 40.5258L66 44.2958L57.8822 40.5258L65.5811 36.9435ZM56.3222 52.7458C56.1965 52.697 56.0881 52.6119 56.0109 52.5012C55.9337 52.3906 55.8912 52.2595 55.8889 52.1247V42.7791L64.5556 46.8091V56.5158L56.3222 52.7458ZM75.6633 52.7458L67.4444 56.5158V46.8091L76.1111 42.7791V52.0813C76.1144 52.2248 76.0731 52.3658 75.9929 52.4848C75.9127 52.6038 75.7976 52.695 75.6633 52.7458Z" fill="#FF75B7"/>
</svg>
