<svg xmlns="http://www.w3.org/2000/svg" enable-background="new 0 0 1364 960" viewBox="-5.5 .493 1375 838.024" width="550" height="550"><path fill="#9cc1ff" d="M556.954 695.025c-1.904-1.923-2.206-5.283-1.137-8.173 1.07-2.891 3.331-5.309 5.879-6.96 2.548-1.65 5.378-2.606 8.192-3.338 4.656-1.211 9.525-1.835 13.914-.864-3.116-5.966-6.708-11.613-10.733-16.883-.366-.479-.741-.95-1.114-1.423-3.769 3.819-7.538 7.639-11.306 11.457-2.514 2.548-5.112 5.157-8.228 6.651-3.116 1.494-6.916 1.627-9.119-.597-1.904-1.923-2.206-5.283-1.136-8.174 1.07-2.891 3.331-5.309 5.878-6.96 2.548-1.651 5.378-2.606 8.192-3.338 4.802-1.249 9.833-1.876 14.328-.768-4.655-5.676-9.815-10.872-15.416-15.512-3.941 3.734-7.881 7.467-11.822 11.201-2.593 2.457-5.271 4.971-8.424 6.344-3.153 1.374-6.935 1.352-9.043-.972-1.823-2.009-1.999-5.396-.83-8.256 1.17-2.86 3.506-5.197 6.099-6.75 2.593-1.554 5.442-2.398 8.266-3.019 4.521-.993 9.222-1.429 13.442-.411-4.136-3.247-8.492-6.204-13.05-8.832-1.349-.778-2.721-1.516-4.104-2.235-4.156 3.715-8.311 7.43-12.467 11.145-2.657 2.376-5.401 4.806-8.581 6.075-3.18 1.269-6.942 1.115-8.968-1.292-1.75-2.081-1.82-5.487-.566-8.317 1.253-2.83 3.652-5.095 6.281-6.564 2.629-1.469 5.49-2.217 8.32-2.741 4.043-.749 8.212-1.043 12.025-.268-4.794-2.246-9.765-4.144-14.884-5.676-4.95 1.365-9.9 2.729-14.85 4.095-3.249.896-6.593 1.8-9.764 1.386-3.171-.414-6.169-2.464-6.725-5.76-.48-2.85 1.014-6.099 3.326-8.134 2.311-2.035 5.298-2.957 8.111-3.012 2.813-.055 5.487.688 8.033 1.627 4.691 1.729 9.216 4.273 12.112 8.367.017.004.034.004.051.009 5.452 1.619 10.739 3.655 15.824 6.076-2.681-3.015-4.462-6.962-5.732-11.018-.847-2.705-1.507-5.543-1.41-8.514.097-2.972 1.017-6.113 2.98-8.523 1.963-2.41 5.06-3.937 7.749-3.384 3.11.64 5.002 3.841 5.342 7.198.34 3.357-.569 6.877-1.468 10.295-1.37 5.206-2.74 10.413-4.11 15.619 6.113 3.17 11.911 6.906 17.327 11.151-2.008-3.847-2.807-8.51-3.043-13.144-.15-2.935-.094-5.952.703-8.904.796-2.952 2.403-5.857 4.811-7.753 2.408-1.896 5.668-2.608 8.051-1.344 2.757 1.462 3.766 5.17 3.287 8.624-.479 3.455-2.165 6.741-3.818 9.929-2.517 4.853-5.033 9.706-7.55 14.559.166.138.337.272.503.412 5.441 4.57 10.46 9.662 15.006 15.2-1.667-4.655-1.576-10.118-.823-15.394.426-2.986 1.064-6.011 2.394-8.811 1.331-2.8 3.423-5.378 6.083-6.768 2.66-1.39 5.902-1.404 7.926.382 2.341 2.066 2.584 6.015 1.459 9.389-1.125 3.373-3.367 6.318-5.559 9.171-3.444 4.482-6.887 8.965-10.331 13.448.062.078.124.158.185.237l.146-.029c-.031.032-.063.063-.094.095 4.327 5.479 8.194 11.377 11.541 17.642.277-4.695 1.891-9.502 3.939-13.985 1.312-2.871 2.832-5.71 4.921-8.085 2.089-2.375 4.814-4.266 7.696-4.763 2.882-.497 5.879.594 7.197 3.088 1.525 2.885.534 6.958-1.543 9.982-2.077 3.025-5.052 5.235-7.953 7.37-4.12 3.032-8.239 6.063-12.359 9.095-.111.112-.221.224-.332.336 3.497 7.027 6.339 14.47 8.455 22.237.224.82-1.006 1.523-1.233.692-2.081-7.635-4.863-14.951-8.275-21.862-3.575 3.623-7.151 7.247-10.726 10.87-2.514 2.548-5.112 5.157-8.228 6.651C562.957 697.116 559.157 697.249 556.954 695.025zM822.735 683.58c1.544-2.222 1.263-5.584-.289-8.247-1.552-2.663-4.197-4.656-6.99-5.842-2.794-1.187-5.747-1.64-8.644-1.876-4.795-.39-9.698-.166-13.855 1.547 2.041-6.414 4.606-12.596 7.662-18.48.278-.535.566-1.064.852-1.594 4.371 3.113 8.741 6.225 13.112 9.337 2.916 2.077 5.924 4.199 9.251 5.133 3.327.935 7.093.41 8.88-2.16 1.544-2.222 1.263-5.584-.29-8.247-1.552-2.663-4.196-4.655-6.99-5.842-2.794-1.187-5.747-1.64-8.644-1.876-4.946-.403-10.009-.153-14.246 1.713 3.606-6.394 7.794-12.401 12.511-17.937 4.525 2.999 9.05 5.997 13.576 8.996 2.978 1.973 6.049 3.988 9.391 4.798 3.342.809 7.064.136 8.74-2.516 1.449-2.293 1.039-5.66-.606-8.276-1.645-2.615-4.35-4.515-7.172-5.598-2.822-1.084-5.774-1.424-8.662-1.549-4.624-.199-9.33.182-13.312 1.912 3.515-3.911 7.296-7.575 11.333-10.949 1.195-.999 2.419-1.962 3.657-2.909 4.734 2.943 9.467 5.886 14.201 8.829 3.027 1.882 6.149 3.803 9.5 4.505 3.351.702 7.031-.098 8.611-2.818 1.365-2.351.847-5.719-.876-8.29-1.723-2.572-4.476-4.389-7.318-5.383-2.843-.994-5.791-1.238-8.668-1.266-4.111-.041-8.269.388-11.891 1.809 4.335-3.038 8.905-5.765 13.683-8.156 5.111.491 10.222.982 15.334 1.474 3.354.322 6.804.636 9.857-.317 3.052-.954 5.652-3.491 5.631-6.833-.018-2.89-2.05-5.832-4.678-7.439-2.627-1.607-5.728-1.999-8.509-1.569-2.781.431-5.286 1.624-7.632 2.987-4.323 2.512-8.342 5.797-10.488 10.329-.016.007-.032.01-.048.018-5.091 2.535-9.948 5.451-14.54 8.712 2.121-3.431 3.195-7.627 3.747-11.841.368-2.811.53-5.719-.078-8.63-.608-2.91-2.055-5.846-4.404-7.881-2.349-2.035-5.663-3.005-8.216-1.997-2.953 1.166-4.265 4.646-4.021 8.011.243 3.366 1.745 6.676 3.221 9.888 2.247 4.892 4.494 9.784 6.74 14.676-5.475 4.176-10.542 8.856-15.146 13.971 1.315-4.135 1.298-8.866.732-13.472-.358-2.917-.934-5.879-2.227-8.65-1.293-2.771-3.377-5.356-6.075-6.808-2.699-1.453-6.033-1.592-8.162.064-2.463 1.915-2.818 5.742-1.751 9.061 1.067 3.32 3.294 6.267 5.472 9.123 3.316 4.347 6.631 8.693 9.947 13.04-.14.165-.285.326-.424.492-4.572 5.44-8.638 11.321-12.161 17.559.839-4.873-.192-10.238-1.842-15.305-.934-2.868-2.084-5.738-3.877-8.266-1.793-2.529-4.299-4.707-7.158-5.618-2.86-.911-6.056-.366-7.741 1.742-1.95 2.438-1.508 6.37.182 9.5 1.69 3.129 4.406 5.643 7.056 8.075 4.165 3.822 8.33 7.644 12.494 11.466-.048.088-.094.177-.142.265l-.148-.004c.036.026.073.051.109.077-3.318 6.143-6.11 12.619-8.327 19.367-1.082-4.577-3.5-9.034-6.291-13.097-1.788-2.602-3.774-5.136-6.241-7.116-2.468-1.979-5.477-3.372-8.402-3.365-2.925.007-5.688 1.598-6.557 4.283-1.005 3.105.673 6.946 3.24 9.567 2.567 2.621 5.879 4.286 9.104 5.889 4.581 2.276 9.161 4.553 13.742 6.829.128.091.256.183.384.274-2.234 7.524-3.75 15.346-4.495 23.362-.079.847 1.254 1.327 1.334.469.733-7.88 2.213-15.565 4.383-22.961 4.146 2.953 8.293 5.906 12.439 8.858 2.916 2.076 5.924 4.199 9.251 5.133C817.182 686.675 820.948 686.151 822.735 683.58zM171.287 666.442c-13.119-3.361-26.218-4.331-38.633-3.895-.228.016-.412.007-.64.023-4.065.151-8.061.469-11.944.929 3.323 5.363 3.266 10.679 1.203 15.966-1.052-7.39-5.466-11.988-12.961-14.02-.315-.081-.683-.1-.998-.032-9.707 1.8-18.489 4.21-25.931 6.628-.211.095-.413.156-.614.216-12.875 4.27-21.502 8.547-23.382 9.481-.255.122-.387.2-.387.2s.078.132.243.361c1.737 2.533 12.962 18.532 31.656 34.766.157.115.305.265.462.38 5.195 4.463 10.941 8.955 17.205 13.169 6.673 3.35 12.249.938 15.286-1.602-1.291 3.436-3.328 6.007-7.039 6.809 10.476 6.115 22.174 11.385 34.944 14.657.35.09.735.188 1.093.243l.735.188c6.709 1.608 13.421 2.618 20.041 3.121.219.019.403.028.587.039 46.099 3.421 87.113-16.679 91.445-18.888.255-.121.386-.2.386-.2s-.078-.131-.243-.361c-1.52-2.215-9.929-14.212-24.05-27.784-.148-.15-.27-.256-.418-.405-4.46-4.274-9.479-8.692-15.052-12.99-.279-.22-.558-.441-.838-.661-7.412-5.701-15.701-11.181-24.863-15.878-1.02 3.542-1.947 6.436-1.947 6.436l-6.771-10.534C183.983 670.292 177.759 668.1 171.287 666.442zM71.98 693.755c-.522-.731-.331-1.764.39-2.25.73-.521 1.727-.34 2.249.39.521.73.34 1.728-.39 2.249C73.508 694.63 72.501 694.484 71.98 693.755zM76.446 696.987c.35-1.365 1.712-2.172 3.077-1.822 1.364.35 2.206 1.721 1.856 3.086-.349 1.364-1.756 2.197-3.12 1.848C76.894 699.749 76.097 698.351 76.446 696.987zM127.704 725.814c.242-.945 1.2-1.482 2.144-1.24.91.233 1.491 1.165 1.249 2.11-.242.944-1.2 1.482-2.11 1.249C128.044 727.691 127.462 726.759 127.704 725.814zM132.253 732.944c.421-1.644 2.091-2.632 3.7-2.22 1.644.421 2.633 2.091 2.212 3.735-.413 1.61-2.083 2.599-3.727 2.177C132.83 736.224 131.841 734.554 132.253 732.944zM124.382 666.17c.117-.455.556-.715 1.01-.599.455.117.751.564.634 1.02-.116.454-.591.706-1.046.589C124.526 667.064 124.265 666.624 124.382 666.17zM106.633 672.583c.269-1.049 1.323-1.674 2.373-1.405 1.049.269 1.674 1.324 1.405 2.373-.269 1.05-1.324 1.674-2.373 1.405C106.988 674.687 106.364 673.633 106.633 672.583zM112.88 676.719c.108-.419.556-.715 1.011-.599.455.117.741.6.633 1.02-.117.456-.599.741-1.054.624C113.015 677.647 112.764 677.174 112.88 676.719z" style="--darkreader-inline-fill:#3f3d37" class="colorB69CFF svgShape"></path><path fill="#ffffff" d="M143.465,683.361l6.097-12.157l0.489,0.275l-6.266,12.525l11.911,22.922l29.248,7.493l-13.189-26.083  l0.475-0.252l13.449,26.523l50.694,12.988l-12.928-34.814c0.28,0.22,0.559,0.441,0.838,0.661l8.21,22.087l6.841-9.097  c0.148,0.15,0.27,0.256,0.418,0.405l-7.018,9.35l4.304,11.578l27.079,6.937l-0.144,0.56l-39.359-10.084l-14.797,9.593l-0.321-0.492  l14.384-9.289l-27.218-6.973l-18.614,13.574c-1.371,5.204-4.193,16.076-5.834,22.479c-0.184-0.011-0.368-0.02-0.587-0.039  c1.739-6.787,4.75-18.393,5.681-21.883l-25.721,18.762l-0.735-0.188l45.074-32.892l-54.297-13.911l-12.151,12.359l-0.383-0.396  l11.905-12.124l-23.021-5.898l-28.617,19.586c-0.157-0.115-0.305-0.265-0.462-0.38l14.238-9.735  c-6.379-1.15-15.47-2.771-16.031-2.766l-0.007-0.262l-0.036-0.009l-0.262,0.008l0.098-0.236c0.141-0.113,0.281-0.226,16.915,2.805  l13.429-9.198l-60-15.372C57.078,682.07,57,681.938,57,681.938s0.132-0.077,0.387-0.2l47.091,12.064l-23.709-21.545  c0.202-0.06,0.403-0.121,0.614-0.216l24.284,22.066l49.295,12.629l-22.947-44.166c0.228-0.017,0.412-0.007,0.64-0.023  L143.465,683.361z" style="--darkreader-inline-fill:#1d1c19" class="colorFFF svgShape"></path><path fill="#b0ceff" d="M208.062,608.289c-8.208-10.773-17.882-19.657-27.891-27.013c-0.189-0.128-0.327-0.25-0.516-0.379  c-3.283-2.402-6.615-4.631-9.946-6.679c-0.718,6.268-4.06,10.403-8.957,13.271c3.758-6.45,3.146-12.794-1.474-19.036  c-0.197-0.258-0.473-0.502-0.763-0.644c-8.731-4.608-17.116-8.163-24.453-10.882c-0.225-0.056-0.42-0.134-0.616-0.212  c-12.748-4.635-22.168-6.629-24.222-7.062c-0.276-0.062-0.427-0.083-0.427-0.083s-0.021,0.152-0.033,0.434  c-0.208,3.064-1.325,22.576,3.273,46.905c0.052,0.188,0.075,0.397,0.127,0.584c1.307,6.722,3.03,13.81,5.33,21.001  c3.158,6.766,9.028,8.332,12.986,8.223c-3.143,1.895-6.336,2.649-9.744,0.977c4.426,11.293,10.335,22.682,18.324,33.168  c0.219,0.287,0.46,0.603,0.707,0.869l0.46,0.603c4.266,5.422,8.905,10.377,13.786,14.877c0.159,0.151,0.298,0.272,0.436,0.395  c34.042,31.272,78.683,40.939,83.45,41.892c0.275,0.063,0.427,0.083,0.427,0.083s0.02-0.151,0.034-0.434  c0.181-2.68,1.024-17.307-1.637-36.711c-0.023-0.209-0.053-0.368-0.076-0.577c-0.849-6.119-2.046-12.697-3.752-19.525  c-0.082-0.346-0.164-0.693-0.247-1.039c-2.279-9.069-5.384-18.508-9.658-27.874c-2.996,2.147-5.519,3.842-5.519,3.842l1.221-12.463  C215.635,619.182,212.111,613.603,208.062,608.289z M113.22,568.13c0.044-0.897,0.834-1.589,1.701-1.523  c0.896,0.044,1.566,0.804,1.523,1.7c-0.044,0.896-0.805,1.567-1.701,1.523C113.876,569.764,113.176,569.025,113.22,568.13z   M114.719,573.435c1.121-0.854,2.69-0.642,3.544,0.478c0.853,1.12,0.663,2.718-0.458,3.572c-1.12,0.853-2.74,0.635-3.594-0.486  C113.358,575.879,113.599,574.288,114.719,573.435z M137.053,627.838c0.776-0.591,1.861-0.419,2.451,0.357  c0.569,0.747,0.447,1.839-0.328,2.43c-0.775,0.591-1.86,0.418-2.429-0.329C136.156,629.52,136.278,628.429,137.053,627.838z   M136.2,636.252c1.35-1.029,3.273-0.768,4.28,0.553c1.029,1.35,0.769,3.273-0.581,4.302c-1.322,1.007-3.245,0.747-4.274-0.603  C134.618,639.182,134.878,637.259,136.2,636.252z M171.435,578.987c0.374-0.285,0.88-0.216,1.164,0.157  c0.285,0.374,0.239,0.908-0.135,1.193c-0.373,0.284-0.902,0.187-1.186-0.186C170.993,579.777,171.062,579.271,171.435,578.987z   M153.534,573.011c0.862-0.657,2.076-0.493,2.733,0.369c0.656,0.861,0.492,2.077-0.369,2.733c-0.862,0.657-2.077,0.492-2.733-0.369  C152.508,574.882,152.672,573.668,153.534,573.011z M155.871,580.13c0.344-0.262,0.879-0.216,1.164,0.157  c0.285,0.374,0.209,0.93-0.135,1.193c-0.374,0.285-0.93,0.209-1.214-0.164C155.4,580.942,155.497,580.415,155.871,580.13z" style="--darkreader-inline-fill:#38153d" class="colorEAB0FF svgShape"></path><path fill="#ffffff" d="M175.745,604.307l12.323-5.756l0.213,0.519l-12.683,5.939l-4.871,25.369l18.297,24.016l5.828-28.641  l0.529,0.097l-5.898,29.147l31.715,41.627l11.448-35.329c0.083,0.346,0.165,0.693,0.247,1.039l-7.256,22.419l11.008-2.894  c0.023,0.209,0.053,0.368,0.076,0.577l-11.303,2.983l-3.804,11.752l16.94,22.235l-0.46,0.351l-24.623-32.319l-17.557-1.651  l0.053-0.585l17.045,1.633l-17.028-22.35l-23.02-0.895c-4.302,3.232-13.259,10.011-18.516,14.017  c-0.138-0.123-0.277-0.244-0.436-0.395c5.573-4.246,15.132-11.483,18.027-13.644l-31.813-1.233l-0.46-0.603l55.758,2.149  l-33.969-44.585l-17.197,2.159l-0.055-0.548l16.858-2.128l-14.402-18.903l-34.596-2.382c-0.052-0.187-0.075-0.397-0.127-0.584  l17.207,1.193c-4.291-4.858-10.418-11.768-10.861-12.111l0.157-0.21l-0.022-0.029l-0.211-0.157l0.223-0.125  c0.181-0.002,0.361-0.003,11.53,12.691l16.24,1.112l-37.537-49.268c0.013-0.282,0.033-0.434,0.033-0.434s0.151,0.021,0.427,0.083  l29.46,38.667l-5.238-31.605c0.195,0.078,0.391,0.155,0.616,0.212l5.366,32.37l30.839,40.477l9.388-48.878  c0.189,0.128,0.328,0.25,0.516,0.379L175.745,604.307z" style="--darkreader-inline-fill:#1d1c19" class="colorFFF svgShape"></path><path fill="#9cc1ff" d="M1174.136,676.464l-6.771,10.534c0,0-0.927-2.894-1.947-6.437c-9.161,4.697-17.45,10.176-24.863,15.878  c-0.28,0.22-0.559,0.441-0.838,0.662c-5.572,4.299-10.592,8.716-15.052,12.99c-0.148,0.15-0.27,0.256-0.418,0.405  c-14.121,13.572-22.53,25.569-24.05,27.784c-0.165,0.23-0.242,0.361-0.242,0.361s0.132,0.078,0.386,0.199  c4.331,2.209,45.346,22.31,91.445,18.888c0.184-0.011,0.368-0.02,0.587-0.039c6.62-0.503,13.332-1.514,20.041-3.121l0.735-0.188  c0.359-0.055,0.744-0.154,1.094-0.243c12.77-3.272,24.468-8.542,34.944-14.657c-3.71-0.802-5.748-3.373-7.039-6.809  c3.037,2.54,8.613,4.952,15.286,1.602c6.264-4.214,12.011-8.707,17.205-13.169c0.157-0.115,0.305-0.265,0.462-0.38  c18.694-16.234,29.919-32.233,31.656-34.766c0.165-0.229,0.243-0.361,0.243-0.361s-0.132-0.077-0.387-0.2  c-1.88-0.934-10.507-5.211-23.382-9.481c-0.201-0.06-0.403-0.121-0.614-0.216c-7.442-2.418-16.224-4.828-25.932-6.628  c-0.315-0.068-0.683-0.048-0.998,0.032c-7.495,2.032-11.909,6.63-12.961,14.02c-2.063-5.287-2.12-10.603,1.203-15.966  c-3.883-0.459-7.879-0.778-11.944-0.929c-0.228-0.017-0.412-0.007-0.64-0.023c-12.414-0.436-25.513,0.534-38.633,3.895  C1186.241,671.761,1180.017,673.952,1174.136,676.464z M1289.771,697.805c-0.73-0.521-0.911-1.519-0.39-2.249  c0.521-0.73,1.519-0.911,2.249-0.39c0.721,0.486,0.911,1.519,0.39,2.25C1291.499,698.145,1290.492,698.29,1289.771,697.805z   M1285.741,703.759c-1.364,0.349-2.771-0.484-3.12-1.848c-0.35-1.365,0.492-2.737,1.856-3.086c1.365-0.35,2.727,0.457,3.076,1.822  C1287.903,702.011,1287.106,703.409,1285.741,703.759z M1235.012,731.593c-0.91,0.233-1.868-0.304-2.11-1.249  c-0.242-0.945,0.34-1.877,1.249-2.11c0.944-0.242,1.902,0.296,2.145,1.24C1236.538,730.419,1235.956,731.351,1235.012,731.593z   M1229.561,740.297c-1.644,0.421-3.314-0.567-3.727-2.177c-0.421-1.644,0.568-3.314,2.212-3.735c1.609-0.412,3.279,0.576,3.7,2.22  C1232.159,738.214,1231.17,739.884,1229.561,740.297z M1239.02,670.841c-0.455,0.117-0.93-0.135-1.046-0.589  c-0.117-0.455,0.179-0.903,0.634-1.02c0.454-0.116,0.894,0.143,1.01,0.599C1239.735,670.284,1239.474,670.724,1239.02,670.841z   M1255.962,678.617c-1.049,0.269-2.104-0.355-2.373-1.405c-0.269-1.049,0.356-2.104,1.405-2.373c1.05-0.269,2.104,0.356,2.373,1.405  C1257.636,677.293,1257.012,678.348,1255.962,678.617z M1250.53,681.425c-0.455,0.117-0.938-0.169-1.054-0.624  c-0.107-0.419,0.178-0.903,0.633-1.02c0.455-0.117,0.903,0.179,1.011,0.598C1251.236,680.835,1250.985,681.308,1250.53,681.425z" style="--darkreader-inline-fill:#3f3d37" class="colorB69CFF svgShape"></path><path fill="#ffffff" d="M1220.535,687.021l-6.097-12.157l-0.489,0.275l6.266,12.524l-11.911,22.922l-29.248,7.493l13.189-26.083  l-0.475-0.252l-13.449,26.523l-50.695,12.988l12.928-34.814c-0.28,0.22-0.559,0.441-0.838,0.662l-8.21,22.087l-6.841-9.097  c-0.148,0.15-0.27,0.256-0.418,0.405l7.018,9.349l-4.304,11.578l-27.078,6.937l0.144,0.561l39.359-10.083l14.797,9.593l0.321-0.492  l-14.384-9.289l27.218-6.973l18.614,13.574c1.371,5.204,4.193,16.076,5.833,22.479c0.184-0.011,0.368-0.02,0.587-0.039  c-1.739-6.787-4.75-18.393-5.681-21.883l25.722,18.761l0.735-0.188l-45.074-32.892l54.297-13.911l12.151,12.359l0.383-0.396  l-11.905-12.124l23.021-5.898l28.617,19.586c0.157-0.115,0.305-0.265,0.462-0.38l-14.238-9.735  c6.379-1.15,15.471-2.771,16.031-2.766l0.007-0.262l0.036-0.009l0.262,0.008l-0.098-0.236c-0.141-0.113-0.281-0.226-16.915,2.805  l-13.429-9.198l60-15.372c0.165-0.229,0.243-0.361,0.243-0.361s-0.132-0.077-0.387-0.2l-47.091,12.064l23.709-21.545  c-0.201-0.06-0.403-0.121-0.614-0.216l-24.284,22.066l-49.295,12.629l22.947-44.166c-0.228-0.017-0.412-0.007-0.64-0.023  L1220.535,687.021z" style="--darkreader-inline-fill:#1d1c19" class="colorFFF svgShape"></path><path fill="#b0ceff" d="M1145.31,628.46l1.221,12.463c0,0-2.523-1.695-5.519-3.842c-4.274,9.366-7.379,18.805-9.658,27.874  c-0.083,0.346-0.165,0.693-0.247,1.039c-1.705,6.828-2.903,13.406-3.752,19.525c-0.023,0.209-0.053,0.368-0.076,0.577  c-2.661,19.404-1.818,34.03-1.637,36.711c0.014,0.282,0.034,0.434,0.034,0.434s0.152-0.02,0.427-0.083  c4.768-0.953,49.408-10.62,83.45-41.892c0.138-0.123,0.276-0.244,0.436-0.395c4.881-4.499,9.52-9.455,13.786-14.877l0.46-0.603  c0.248-0.266,0.488-0.582,0.707-0.869c7.989-10.486,13.898-21.875,18.323-33.168c-3.408,1.672-6.601,0.918-9.744-0.977  c3.958,0.11,9.828-1.456,12.985-8.223c2.301-7.191,4.023-14.279,5.33-21.001c0.052-0.187,0.075-0.397,0.127-0.585  c4.598-24.328,3.482-43.84,3.273-46.905c-0.012-0.282-0.033-0.434-0.033-0.434s-0.151,0.021-0.427,0.083  c-2.054,0.433-11.474,2.428-24.222,7.063c-0.195,0.078-0.391,0.155-0.616,0.212c-7.337,2.718-15.722,6.274-24.453,10.882  c-0.29,0.142-0.566,0.386-0.763,0.644c-4.62,6.242-5.231,12.586-1.474,19.036c-4.897-2.868-8.239-7.003-8.957-13.271  c-3.331,2.048-6.663,4.276-9.946,6.678c-0.189,0.128-0.328,0.25-0.516,0.379c-10.009,7.357-19.684,16.241-27.891,27.014  C1151.889,617.264,1148.365,622.842,1145.31,628.46z M1249.257,573.49c-0.896,0.044-1.656-0.627-1.701-1.523  c-0.044-0.896,0.627-1.656,1.523-1.7c0.867-0.066,1.657,0.626,1.701,1.523C1250.824,572.686,1250.124,573.424,1249.257,573.49z   M1249.789,580.66c-0.853,1.12-2.474,1.339-3.594,0.486c-1.121-0.854-1.311-2.452-0.458-3.572c0.854-1.121,2.423-1.332,3.544-0.478  C1250.401,577.949,1250.642,579.54,1249.789,580.66z M1227.253,633.956c-0.569,0.747-1.654,0.919-2.429,0.329  c-0.776-0.591-0.897-1.683-0.328-2.43c0.591-0.776,1.676-0.948,2.452-0.357C1227.722,632.089,1227.844,633.181,1227.253,633.956z   M1228.375,644.164c-1.029,1.35-2.952,1.61-4.274,0.603c-1.35-1.029-1.609-2.952-0.581-4.302c1.007-1.321,2.93-1.582,4.28-0.553  C1229.122,640.919,1229.381,642.843,1228.375,644.164z M1192.722,583.811c-0.285,0.374-0.813,0.471-1.186,0.187  c-0.374-0.285-0.42-0.82-0.135-1.193c0.284-0.373,0.79-0.442,1.164-0.157C1192.938,582.931,1193.007,583.438,1192.722,583.811z   M1210.835,579.405c-0.656,0.861-1.871,1.026-2.733,0.369c-0.862-0.657-1.026-1.872-0.369-2.733  c0.657-0.862,1.871-1.026,2.733-0.369C1211.328,577.328,1211.492,578.543,1210.835,579.405z M1208.315,584.976  c-0.285,0.374-0.84,0.449-1.214,0.164c-0.344-0.262-0.42-0.819-0.136-1.193c0.285-0.374,0.82-0.42,1.164-0.157  C1208.503,584.075,1208.6,584.602,1208.315,584.976z" style="--darkreader-inline-fill:#38153d" class="colorEAB0FF svgShape"></path><path fill="#ffffff" d="M1188.255,607.968l-12.323-5.756l-0.213,0.519l12.683,5.939l4.871,25.369l-18.298,24.016l-5.828-28.641  l-0.529,0.097l5.898,29.147l-31.715,41.627l-11.448-35.329c-0.083,0.346-0.165,0.693-0.247,1.039l7.256,22.418l-11.008-2.894  c-0.023,0.209-0.053,0.368-0.076,0.577l11.303,2.982l3.804,11.751l-16.94,22.235l0.46,0.351l24.623-32.319l17.557-1.651  l-0.053-0.585l-17.045,1.633l17.028-22.35l23.02-0.895c4.303,3.232,13.259,10.011,18.516,14.017  c0.138-0.123,0.276-0.244,0.436-0.395c-5.573-4.246-15.132-11.483-18.027-13.644l31.813-1.233l0.46-0.603l-55.758,2.15  l33.969-44.585l17.197,2.16l0.055-0.548l-16.858-2.128l14.402-18.903l34.596-2.382c0.052-0.187,0.075-0.397,0.127-0.585  l-17.207,1.193c4.291-4.858,10.418-11.768,10.861-12.111l-0.157-0.21l0.022-0.029l0.211-0.157l-0.224-0.125  c-0.181-0.002-0.361-0.003-11.53,12.691l-16.24,1.112l37.536-49.268c-0.012-0.282-0.033-0.434-0.033-0.434s-0.151,0.021-0.427,0.083  l-29.46,38.668l5.238-31.605c-0.195,0.078-0.391,0.155-0.616,0.212l-5.366,32.37l-30.839,40.477l-9.388-48.878  c-0.189,0.128-0.328,0.25-0.516,0.379L1188.255,607.968z" style="--darkreader-inline-fill:#1d1c19" class="colorFFF svgShape"></path><ellipse cx="660.628" cy="776.56" fill="#ebf1fa" rx="502.926" ry="23.865" style="--darkreader-inline-fill:#262521" class="colorEBECFA svgShape"></ellipse><rect width="87.442" height="194.012" x="319.709" y="582.548" fill="#97beff" style="--darkreader-inline-fill:#131a40" class="color97A9FF svgShape"></rect><rect width="19.572" height="193.664" x="387.579" y="582.896" fill="#4285f4" style="--darkreader-inline-fill:#2c3051" class="color7588E6 svgShape"></rect><rect width="87.442" height="235.422" x="847.997" y="541.138" fill="#97beff" style="--darkreader-inline-fill:#131a40" class="color97A9FF svgShape"></rect><rect width="87.442" height="235.422" x="430.47" y="541.138" fill="#97beff" style="--darkreader-inline-fill:#131a40" class="color97A9FF svgShape"></rect><rect width="87.442" height="194.012" x="956.786" y="582.548" fill="#97beff" style="--darkreader-inline-fill:#131a40" class="color97A9FF svgShape"></rect><rect width="87.442" height="173.006" x="1064.258" y="603.554" fill="#97beff" style="--darkreader-inline-fill:#131a40" class="color97A9FF svgShape"></rect><rect width="87.442" height="173.006" x="208.575" y="603.554" fill="#97beff" style="--darkreader-inline-fill:#131a40" class="color97A9FF svgShape"></rect><rect width="18.706" height="173.006" x="1132.994" y="603.554" fill="#4285f4" style="--darkreader-inline-fill:#2c3051" class="color7588E6 svgShape"></rect><rect width="18.706" height="173.006" x="277.311" y="603.554" fill="#4285f4" style="--darkreader-inline-fill:#2c3051" class="color7588E6 svgShape"></rect><rect width="19.572" height="193.664" x="1024.656" y="582.896" fill="#4285f4" style="--darkreader-inline-fill:#2c3051" class="color7588E6 svgShape"></rect><rect width="19.572" height="235.422" x="915.868" y="541.138" fill="#4285f4" style="--darkreader-inline-fill:#2c3051" class="color7588E6 svgShape"></rect><rect width="19.572" height="235.422" x="498.34" y="541.138" fill="#4285f4" style="--darkreader-inline-fill:#2c3051" class="color7588E6 svgShape"></rect><path fill="#fbd669" d="M485.03,161.457c-7.943,0-14.382,6.439-14.382,14.382V191.2c0,108.91,97.804,197.199,218.45,197.199h0.001  c120.646,0,218.449-88.29,218.449-197.199v-17.59c0-6.711-5.441-12.152-12.152-12.152H485.03z M870.046,207.038  c0,90.212-81.013,163.345-180.947,163.345h-0.001c-99.935,0-180.948-73.133-180.948-163.345v-10.517h361.896V207.038z" style="--darkreader-inline-fill:#816331" class="colorFBC369 svgShape"></path><path fill="#fbbc05" d="M508.15,207.038v-10.517h362.078v-7.946h-374.23v10.517c0,56.864,32.196,106.934,81.022,136.187  C535.074,305.364,508.15,259.04,508.15,207.038z" style="--darkreader-inline-fill:#93733f" class="colorEBAB47 svgShape"></path><path fill="#fbbc05" d="M895.396,161.457v21.797c0,108.91-97.803,197.2-218.449,197.2h-0.001  c-45.088,0-86.982-12.335-121.776-33.464c36.988,25.95,83.456,41.41,133.928,41.41h0.001c120.646,0,218.449-88.29,218.449-197.199  v-17.59C907.548,166.898,902.107,161.457,895.396,161.457L895.396,161.457z" style="--darkreader-inline-fill:#93733f" class="colorEBAB47 svgShape"></path><path fill="#fbd669" d="M800.772,148.767c-7.527,23.478-6.465,41.251-5.806,80.03c0.687,41.086,1.035,61.625,0,65.718  c-12.362,48.778-54.528,76.614-61.249,80.918c-4.303,2.756-8.974,5.686-15.035,8.424c4.121,1.319,7.023,4.441,7.023,8.095  c0,3.791-3.132,7.014-7.49,8.232c4.258,16.125,7.664,36.206,7.481,59.299c-0.238,30.382-6.593,55.307-12.673,72.668h1.337  c6.263,0,11.345,3.919,11.345,8.763c0,4.835-5.082,8.754-11.345,8.754h-2.6l40.894,77.219H617.317l42.075-77.219h-3.782  c-6.263,0-11.345-3.919-11.345-8.754c0-4.844,5.082-8.763,11.345-8.763h1.337c-6.08-17.361-12.435-42.286-12.673-72.668  c-0.183-23.093,3.223-43.174,7.481-59.299c-4.358-1.218-7.49-4.441-7.49-8.232c0-3.654,2.903-6.776,7.024-8.095  c-6.062-2.738-10.732-5.668-15.036-8.424c-6.721-4.304-52.102-31.435-61.249-80.918c-2.042-11.061-0.687-24.632,0-65.718  c0.659-38.779,1.721-56.552-5.806-80.03c-4.578-14.257-10.585-25.19-14.925-32.186c76.651,13.717,155.921,14.138,237.379,3.461  c7.994-1.044,16.006-2.207,24.045-3.461C811.356,123.577,805.35,134.51,800.772,148.767z" style="--darkreader-inline-fill:#816331" class="colorFBC369 svgShape"></path><path fill="#fbbc05" d="M800.772,148.767c-7.527,23.478-6.465,41.251-5.806,80.03c0.687,41.086,1.035,61.625,0,65.718  c-12.362,48.778-54.528,76.614-61.249,80.918c-4.303,2.756-8.974,5.686-15.035,8.424c4.121,1.319,7.023,4.441,7.023,8.095  c0,3.791-3.132,7.014-7.49,8.232c4.258,16.125,7.664,36.206,7.481,59.299c-0.238,30.382-6.593,55.307-12.673,72.668h1.337  c6.263,0,11.345,3.919,11.345,8.763c0,4.835-5.082,8.754-11.345,8.754h-2.6l40.894,77.219h-21.967l-40.894-77.219h2.6  c6.263,0,11.345-3.919,11.345-8.754c0-4.844-5.082-8.763-11.345-8.763h-1.337c6.08-17.361,12.435-42.286,12.673-72.668  c0.183-23.093-3.223-43.174-7.481-59.299c4.359-1.218,7.49-4.441,7.49-8.232c0-3.654-2.903-6.776-7.023-8.095  c6.061-2.738,10.731-5.668,15.035-8.424c6.721-4.304,48.888-32.14,61.25-80.918c1.035-4.093,0.687-24.632,0-65.718  c-0.66-38.779-1.721-56.552,5.805-80.03c3.883-12.087,8.791-21.784,12.847-28.725c7.994-1.044,16.006-2.207,24.045-3.461  C811.356,123.577,805.35,134.51,800.772,148.767z" style="--darkreader-inline-fill:#93733f" class="colorEBAB47 svgShape"></path><path fill="#fbd669" d="M774.15,661.243H595.82v-27.001c0-4.5,3.648-8.148,8.148-8.148h162.034c4.5,0,8.148,3.648,8.148,8.148  V661.243z" style="--darkreader-inline-fill:#816331" class="colorFBC369 svgShape"></path><path fill="#fbbc05" d="M765.974,626.095h-6.547l0,0c0,13.991-11.342,25.333-25.333,25.333H595.82v9.815h178.33V634.27  C774.15,629.755,770.49,626.095,765.974,626.095z" style="--darkreader-inline-fill:#93733f" class="colorEBAB47 svgShape"></path><path fill="#4469a6" d="M801.284,695.356H568.687c-4.36,0-7.895,3.534-7.895,7.895v65.413c0,4.36,3.535,7.895,7.895,7.895h232.597  c4.36,0,7.895-3.535,7.895-7.895v-65.413C809.179,698.891,805.644,695.356,801.284,695.356z" style="--darkreader-inline-fill:#47425d" class="color4444A6 svgShape"></path><path fill="#34a853" d="M801.284,695.356h-0.503c0.138,0.585,0.219,1.192,0.219,1.819v25.777c0,26.251-21.281,47.531-47.531,47.531  H561.011c0.823,3.482,3.943,6.076,7.676,6.076h232.597c4.36,0,7.895-3.535,7.895-7.895v-65.413  C809.179,698.891,805.644,695.356,801.284,695.356z" style="--darkreader-inline-fill:#312e48" class="color2D2D87 svgShape"></path><path fill="#34a853" d="M773.691,731.529H611.236c-2.845,0-5.151,2.306-5.151,5.151v11.99c0,2.844,2.306,5.151,5.151,5.151h162.455  c2.845,0,5.151-2.306,5.151-5.151v-11.99C778.842,733.835,776.536,731.529,773.691,731.529z" style="--darkreader-inline-fill:#312e48" class="color2D2D87 svgShape"></path><path fill="#fbd669" d="M789.049,695.356H582.291v-31.762c0-4.5,3.648-8.148,8.148-8.148h190.463c4.5,0,8.148,3.648,8.148,8.148  V695.356z" style="--darkreader-inline-fill:#816331" class="colorFBC369 svgShape"></path><path fill="#fbbc05" d="M780.874,655.446h-2.389c0.178,0.671,0.282,1.372,0.282,2.099l0,0c0,17.527-14.208,31.734-31.734,31.734  H582.291v6.076h206.758v-31.735C789.049,659.107,785.389,655.446,780.874,655.446z" style="--darkreader-inline-fill:#93733f" class="colorEBAB47 svgShape"></path><path fill="#ffffff" d="M764.07,725.609H605.9c-4.028,0-7.293,3.265-7.293,7.293v7.705c0,4.027,3.265,7.293,7.293,7.293H764.07  c4.028,0,7.293-3.265,7.293-7.293v-7.705C771.363,728.874,768.098,725.609,764.07,725.609z" style="--darkreader-inline-fill:#1d1c19" class="colorFFF svgShape"></path><path fill="#ffe8a4" d="M589.671,254.727c-2.106,22.953-0.792,78.813,54.871,111.44c0.803,0.471,1.629-0.592,0.961-1.24  c-13.585-13.181-51.458-54.69-54.268-110.159C591.185,253.792,589.761,253.753,589.671,254.727z" style="--darkreader-inline-fill:#604823" class="colorFFDAA4 svgShape"></path><path fill="#ffe8a4" d="M587.507,233.557c0-5.669,1.734-10.264,3.872-10.264c2.139,0,3.872,4.595,3.872,10.264  c0,5.669-1.734,10.264-3.872,10.264C589.241,243.821,587.507,239.226,587.507,233.557z" style="--darkreader-inline-fill:#ffe8ad" class="colorFFDAA4 svgShape"></path><ellipse cx="684.984" cy="115.84" fill="#fbbc05" rx="130.862" ry="15.288" style="--darkreader-inline-fill:#93733f" class="colorEBAB47 svgShape"></ellipse><path fill="#c1d5f7" d="M1101.622,565.879c1.333,2.728-14.596,19.463-14.596,19.463s0.379-2.617,0.519-5.837  c0.14-3.22,4.068-10.338,4.068-10.338s-0.734-0.336-1.966-0.969c-6.105-3.137-24.521-13.627-26.974-27.187  c-4.263-23.647,18.528-51.719,18.528-51.719l22.874,0.062c-0.767,13.655-6.211,23.35-11.353,30.867  c-4.884,7.153-9.494,12.333-9.533,17.094c-0.062,7.836,9.258,19.637,12.849,23.888c0.857,1.014,1.383,1.596,1.383,1.596  S1100.294,563.146,1101.622,565.879z" style="--darkreader-inline-fill:#3d1a1e" class="colorF7C1CE svgShape"></path><path fill="#c1d5f7" d="M1142.139,587.549c-0.28,0.98-6.581,3.641-8.542,3.221c-1.96-0.42-1.954-17.212-2.391-19.216  c-1.501-6.951-6.559-25.855-13.431-31.5c-7.612-6.245-17.469-11.118-25.053-19.833c-6.06-6.962-10.675-16.388-11.521-30.928h25.731  c0,0,22.336,16.45,30.514,45.542c3.019,10.72,1.193,28.677,0.33,35.504c-0.218,1.736-0.375,2.75-0.375,2.75  S1142.419,586.569,1142.139,587.549z" style="--darkreader-inline-fill:#3d1a1e" class="colorF7C1CE svgShape"></path><path fill="#4469a6" d="M1139.116,570.157l-9.505,0.974c-1.504-6.953-4.964-25.434-11.834-31.078  c-5.743-4.711-12.758-8.644-19.119-14.026c-1.786-1.512-3.514-3.141-5.15-4.935c-0.004-0.004-0.004-0.004-0.004-0.004  c-0.261-0.286-0.522-0.576-0.779-0.87c-0.949,1.384-1.877,2.689-2.776,3.94c-3.721,5.2-6.725,9.315-6.759,13.156  c-0.062,7.836,8.01,15.729,11.598,19.981l-2.942,3.298l-6.029,6.754c-6.103-3.137-20.689-12.779-23.142-26.337  c-4.264-23.648,18.526-51.721,18.526-51.721h25.732c0,0,22.334,16.45,30.514,45.543  C1140.462,545.552,1139.978,563.329,1139.116,570.157z" style="--darkreader-inline-fill:#47425d" class="color4444A6 svgShape"></path><path fill="#4469a6" d="M1101.856,424.707c-0.285-2.238-1.028-4.479-0.655-6.704c-1.202,1.894-3.27,3.213-5.494,3.506  c-2.576,0.339-5.551-0.537-7.564,1.107c-1.487,1.215-2.758,2.685-1.549,4.178c-1.018-0.984-2.362,0.098-3.154,1.272  c-0.792,1.174-0.232,3.122,0.136,4.489c0.787,2.921,2.93,5.445,5.684,6.696c2.754,1.251,6.066,1.204,8.783-0.125l1.854-8.306  C1101.78,429.572,1102.141,426.945,1101.856,424.707z" style="--darkreader-inline-fill:#a0a2a6" class="color4444A6 svgShape"></path><path fill="#c1d5f7" d="M1131.25,440.843c-2.694,11.723-22.857,25.91-22.857,25.91l-1.63,22.538h-25.484l3.45-22.684  c0,0-16.069-2.453-25.832-16.209c-5.147-7.247-7.029-14.843-7.673-18.472c-0.246-1.378-0.314-2.184-0.314-2.184  c-3.428-0.487-9.124-7.029-5.175-9.908c2.078-1.518,7.001,2.487,7.001,2.487s1.467-2.94,2.868-2.38  c1.4,0.56-0.173,6.935-0.173,6.935s0.37,0.722,0.98,1.842c1.624,2.991,4.934,8.833,7.382,11.482  c4.974,5.366,22.527,9.046,22.527,9.046l6.581-2.308h8.681l4.414,1.977c0,0,13.605-8.716,16.54-15.111  c1.876-4.089,2.918-11.617,3.366-15.711c0.191-1.725,0.275-2.839,0.275-2.839s-4.806-4.8-2.868-6.374  c1.35-1.098,2.252,1.294,3.058,1.35c0.79,0.051,0.151-5.607,3.237-5.618c4.693-0.017,0.179,10.188,0.179,10.188  s0.375,1.238,0.835,3.293C1131.693,422.937,1133.211,432.335,1131.25,440.843z" style="--darkreader-inline-fill:#3d1a1e" class="colorF7C1CE svgShape"></path><polygon fill="#c1d5f7" points="1100.694 438.738 1100.632 442.153 1100.541 447.071 1094.014 447.071 1094.64 438.055" style="--darkreader-inline-fill:#f8c7b6" class="colorF7C1CE svgShape"></polygon><path fill="#f2b4af" d="M1100.694,438.738l-0.062,3.414c-0.848,0.844-4.224,0.344-4.639,0.155c-1.598-0.731-0.628,3.587-1.863,4.764  h-0.116l0.626-9.017L1100.694,438.738z" style="--darkreader-inline-fill:#efbbac" class="colorF2AFBE svgShape"></path><path fill="#c1d5f7" d="M1100.149,426.865c0,0-5.892,1.533-10.037,1.523c0,0,1.508,3.411,1.213,4.71c0,0-2.32-0.803-2.682,0.477  c-0.362,1.28,1.506,2.391,3.208,2.291c0,0,3.475,7.964,8.544,5.676C1105.852,439.08,1100.149,426.865,1100.149,426.865z" style="--darkreader-inline-fill:#f8c7b6" class="colorF7C1CE svgShape"></path><path fill="#87b4ff" d="M1131.698,438.518c-0.058,0.373-0.12,0.746-0.19,1.119c-0.079,0.406-0.166,0.808-0.257,1.206  c-0.05,0.224-0.112,0.448-0.174,0.675c-0.037,0.124-0.075,0.249-0.112,0.377c-0.012,0.037-0.025,0.075-0.037,0.112  c-0.883,2.822-2.602,5.78-4.707,8.64c-0.891,1.214-1.852,2.412-2.846,3.572c-3.982,4.666-11.275,9.709-12.56,11.677  c-0.108,0.17-0.174,0.315-0.19,0.435l-0.39,22.202c0.054,1.065-0.796,1.914-1.819,1.935c-0.12,0.008-0.24,0-0.365-0.021  c-0.191-0.033-0.381-0.062-0.572-0.091c-1.135-0.157-2.291-0.224-3.46-0.232c-6.037-0.054-12.456,1.496-18.795,0.87  c-1.301-0.12-2.594-0.335-3.883-0.675c-0.025-0.008-0.05-0.013-0.075-0.021c-0.224-0.07-0.427-0.182-0.601-0.327  c-0.476-0.385-0.742-1.003-0.675-1.641c0,0,0.696-19.488-0.812-21.704c-0.066-0.095-0.136-0.157-0.207-0.186  c-3.377-1.355-9.174-4.256-14.793-9.816c-0.004-0.013-0.008-0.013-0.008-0.013c-1.359-1.342-2.706-2.838-4.007-4.508  c-0.269-0.348-0.538-0.704-0.8-1.065c-0.157-0.211-0.311-0.423-0.464-0.638c-4.977-6.999-7.189-14.204-7.915-17.954  c-0.041-0.215,0.054-0.439,0.232-0.56c0.013-0.008,0.025-0.017,0.037-0.025l4.811-2.88c0.145-0.087,0.315-0.099,0.464-0.05  c0.133,0.041,0.249,0.133,0.319,0.265c1.529,2.818,4.09,7.508,6.277,10.227c0.228,0.281,0.452,0.543,0.667,0.779  c0.083,0.091,0.17,0.178,0.261,0.27c0.074,0.079,0.157,0.153,0.24,0.228c0.833,0.779,1.865,1.479,3.025,2.109  c0.054,0.033,0.108,0.062,0.162,0.091c5.325,2.843,13.168,4.206,16.579,4.165c0.518-0.004,8.843-0.124,8.843-0.124  c2.888,4.811,5.785,4.807,8.681,0c0,0,5.005-0.418,5.797-0.953c3.302-2.242,11.913-6.563,14.78-11.457  c0.045-0.079,0.091-0.162,0.133-0.24c0.087-0.161,0.17-0.323,0.244-0.485c0.071-0.149,0.137-0.303,0.203-0.464  c0.095-0.236,0.191-0.481,0.286-0.734c1.488-4.115,2.221-10.471,2.639-14.25c0.017-0.149,0.112-0.269,0.245-0.323  c0.046-0.016,0.1-0.029,0.153-0.029h4.442c0.033,0,0.066,0.004,0.095,0.012c0.149,0.033,0.265,0.149,0.298,0.303  C1131.868,422.797,1132.946,430.843,1131.698,438.518z" style="--darkreader-inline-fill:#0c0a3f" class="color8787FF svgShape"></path><path fill="#4469a6" d="M1096.73 562.013c2.537-.151 6.934 2.547 8.266 5.819.313.769.172 1.647-.363 2.281l-14.671 17.372c-.703.832-1.994.863-2.707.04-5.46-6.304 3.079-11.432 3.23-18.903L1096.73 562.013zM1135.192 576.362L1135.192 576.362c1.883-.278 3.703.804 4.358 2.592l2.906 7.933c.248.676-.117 1.422-.801 1.644l-7.865 2.537c-.8.258-1.625-.318-1.657-1.158l-.367-9.419C1131.685 578.442 1133.162 576.661 1135.192 576.362z" style="--darkreader-inline-fill:#a0a2a6" class="color4444A6 svgShape"></path><path fill="#75a0e6" d="M1126.221,450.646c-0.891,1.214-1.852,2.412-2.846,3.572c-3.982,4.666-11.275,9.709-12.56,11.677v-7.508  c-0.008,0.138,1.175,3.533,2.391,3.432C1114.347,461.723,1122.775,454.292,1126.221,450.646z" style="--darkreader-inline-fill:#a4abb8" class="color7575E6 svgShape"></path><path fill="#355a96" d="M1094.787,557.296l-2.355,2.64c-6.058-4.313-14.426-17.343-14.063-22.322  c0.719-9.867,10.938-22.103,10.879-21.963c0,0,3.732,4.862,3.475,4.568c-0.949,1.384-1.877,2.689-2.776,3.94  c-3.721,5.2-6.725,9.315-6.759,13.156C1083.127,545.151,1091.198,553.044,1094.787,557.296z" style="--darkreader-inline-fill:#aaacaf" class="color353596 svgShape"></path><path fill="#75a0e6" d="M1079.178,466.624c-0.066-0.095-0.136-0.157-0.207-0.186c-3.377-1.355-9.174-4.256-14.793-9.816  c-0.004-0.013-0.008-0.013-0.008-0.013c-1.359-1.342-2.706-2.838-4.007-4.508c0.008-0.004,0.012-0.004,0.017-0.008  c0.004,0,0.004,0,0.004,0c0.045-0.021,0.07-0.029,0.07-0.029s10.023,8.54,13.429,9.891c3.406,1.351,5.486-4.81,5.486-4.81  C1078.787,457.723,1079.222,463.315,1079.178,466.624z" style="--darkreader-inline-fill:#a4abb8" class="color7575E6 svgShape"></path><path fill="#4469a6" d="M271.295,422.267c1.265-6.495-5.567-8.21-8.716-8.997c-3.149-0.787-2.306-3.711-5.23-5.398  c-2.924-1.687-4.893-2.474-8.435,1.496c-3.543,3.971-0.918,10.111-0.918,10.111l2.549,7.807c-4.555,8.629,5.23,41.458,15.293,42.471  c10.063,1.012,10.603-9.953,14.904-14.255c4.302-4.302,15.864,6.33,14.34-11.556C293.817,429.094,270.03,428.762,271.295,422.267z" style="--darkreader-inline-fill:#a0a2a6" class="color4444A6 svgShape"></path><path fill="#c1d5f7" d="M242.632,554.45c0,0-3.658-5.102-7.707-12.327c-5.011-8.941-10.617-21.144-10.617-30.952  c0-19.796,17.248-30.652,21.58-43.88c4.321,0.034,10.527,0.074,16.054,0.085c1.127,3.261,2.661,8.46,3.279,14.066  c1.166,10.618-15.6,19.032-22.509,33.126c-2.265,4.626-0.3,15.618,1.909,24.508c1.783,7.169,3.72,12.973,3.72,12.973  S243.986,561.858,242.632,554.45z" style="--darkreader-inline-fill:#3d1a1e" class="colorF7C1CE svgShape"></path><path fill="#4469a6" d="M247.482,548.957c3.494,0.157,6.036,3.24,7.791,6.82c0.197,0.401,0.151,0.879-0.133,1.224l-11.878,14.437  c-0.451,0.548-1.3,0.543-1.735-0.017c-3.182-4.09,4.444-11.641,0.86-17.32C244.746,553.521,247.375,551.573,247.482,548.957z" style="--darkreader-inline-fill:#a0a2a6" class="color4444A6 svgShape"></path><path fill="#4469a6" d="M242.711,514.568c-2.265,4.626-0.3,15.618,1.909,24.508l-4.496,1.416l-5.198,1.631  c-5.011-8.941-15.43-15.793-15.43-25.601c0-19.797,22.061-36.003,26.393-49.231c4.321,0.034,10.527,0.074,16.054,0.085  c1.127,3.261,2.661,8.46,3.279,14.066c0.793,7.203-6.676,13.398-13.721,21.037C248.17,506.096,244.931,510.038,242.711,514.568z" style="--darkreader-inline-fill:#47425d" class="color4444A6 svgShape"></path><path fill="#355a96" d="M244.62,539.076l-4.496,1.416c-2.282-5.918-8.095-14.194-8.03-22.004  c0.122-14.521,15.236-22.405,19.253-28.943c0,0,0.079,5.566,0.153,12.934c-3.33,3.618-6.569,7.559-8.789,12.089  C240.447,519.194,242.412,530.185,244.62,539.076z" style="--darkreader-inline-fill:#aaacaf" class="color353596 svgShape"></path><path fill="#c1d5f7" d="M257.593,558.159c0,0-7.713-8.579-14.089-19.021c-4.96-8.115-9.111-17.351-8.222-24.57  c1.62-13.154,15.023-18.93,19.185-31.286c1.144-3.38-3.437-14.666-4.728-17.724c-0.204-0.493-0.328-0.77-0.328-0.77l13.596-0.906  c0,0,0.623,0.594,1.592,1.676c3.363,3.743,10.906,13.313,11.025,23.953c0.17,14.864-15.657,21.659-20.233,27.271  c-2.967,3.646-1.846,11.116,0.351,18.347c2.803,9.236,7.356,18.086,7.356,18.086S253.414,574.798,257.593,558.159z" style="--darkreader-inline-fill:#3d1a1e" class="colorF7C1CE svgShape"></path><path fill="#4469a6" d="M275.623,489.511c0.051,4.298-1.24,7.922-3.211,11.037c-4.83,7.655-13.766,12.242-17.022,16.235  c-2.967,3.646-1.846,11.116,0.351,18.347l-3.211,1.053l-9.026,2.956c-4.96-8.115-9.111-17.351-8.222-24.57  c1.62-13.154,15.023-18.93,19.185-31.286c1.144-3.38-3.437-14.666-4.728-17.724h14.859  C267.961,469.301,275.504,478.871,275.623,489.511z" style="--darkreader-inline-fill:#47425d" class="color4444A6 svgShape"></path><path fill="#c1d5f7" d="M300.187,421.61c-3.148,6.88-7.644,12.786-13.568,17.69c-4.06,3.358-8.783,6.246-14.208,8.664  c-2.038,0.903-4.176,1.739-6.415,2.509c-0.991,0.341-1.812,1.046-2.269,1.989c-0.947,1.954-2.427,5.41-2.319,7.733  c0.159,3.398,6.359,10.204,6.359,10.204l-21.11-0.736c0,0-0.113-3.364-0.164-4.638c-0.107-2.564-3.055-8.977-4.814-12.594  c-0.783-1.61-2.146-2.854-3.819-3.492c-0.796-0.303-1.741-0.68-2.777-1.123c-3.692-1.563-8.534-3.964-11.909-6.931  c-7.31-6.427-11.2-16.354-11.2-16.354s-1.784-0.923-4.61-0.861c-3.143,0.068-6.087,1.631-6.274-0.249  c-0.221-2.248,5.226-5.04,8.811-5.011c0.289,0.006,0.578,0.022,0.861,0.056c0.685,0.085-0.011-4.168,1.795-4.145  c2.514,0.028,2.656,7.169,2.656,7.169s7.645,7.854,11.252,9.836c1.795,0.985,7.48,1.942,12.741,2.661  c5.317,0.725,10.204,1.201,10.204,1.201l2.871-0.583l7.486-1.433l6.988,0.815c0.878-0.119,1.733-0.249,2.571-0.385  c12.65-2.044,21.15-6.088,27.396-13.953c-1.489-3.426-0.645-10.261,2.118-10.284c2.48-0.022,2.622,8.387,2.622,8.387  s1.84-1.982,2.407-0.532C304.434,418.671,300.187,421.61,300.187,421.61z" style="--darkreader-inline-fill:#3d1a1e" class="colorF7C1CE svgShape"></path><path fill="#c1d5f7" d="M259.766,433.173l-7.488,1.431l-0.608-4.518l-0.453-3.389l4.458-2.669l0.746-0.448l0.259,0.742l2.69,7.717  c0,0.004,0.004,0.004,0.004,0.004L259.766,433.173z" style="--darkreader-inline-fill:#f8c7b6" class="colorF7C1CE svgShape"></path><path fill="#f2b4af" d="M259.37,432.039c-0.759-1.155-1.75-2.638-2.013-2.945c-0.444-0.521-1.306-0.849-2.889,0.349  c-1.155,0.879-2.28,0.767-2.798,0.642l-0.453-3.389l4.458-2.669c0.168,0.009,0.28,0.017,0.311,0.017  c0.039,0,0.302,0.103,0.694,0.276L259.37,432.039z" style="--darkreader-inline-fill:#efbbac" class="colorF2AFBE svgShape"></path><path fill="#c1d5f7" d="M250.587,412.607c0,0-6.261,12.214-1.184,15.368c5.078,3.154,9.486-5.716,9.486-5.716  s3.744-0.55,3.289-2.407c-0.455-1.858-3.651-0.286-3.651-0.286S253.138,420.216,250.587,412.607z" style="--darkreader-inline-fill:#f8c7b6" class="colorF7C1CE svgShape"></path><path fill="#ff796e" d="M268.194,468.672c0.651,0.623,0.221,1.715-0.68,1.733c-0.611-0.039-1.217-0.057-1.829-0.062  c-7.481-0.096-14.921,1.806-20.21,0.43c-0.663,0.011-1.087-0.691-0.782-1.279c0.753-1.427,1.835-3.636,1.801-4.468  c-0.107-2.565-3.052-8.975-4.813-12.594c-0.068-0.136-0.142-0.272-0.221-0.408c-0.804-1.41-2.073-2.503-3.601-3.086  c-0.793-0.3-1.738-0.679-2.775-1.121c-0.011-0.158-0.017-0.317-0.017-0.476c0.028-3.749,3.97-8.392,4.14-13.353  c5.317,0.725,10.204,1.201,10.204,1.201l2.871-0.583c3.008,4.22,5.415,2.924,7.486-1.433l6.988,0.815  c0.878-0.119,1.733-0.249,2.571-0.385c2.389,4.026,1.24,9.349,1.909,12.384c0.192,0.883,0.543,1.569,1.177,1.977  c-2.004,0.889-4.1,1.71-6.297,2.469c-1.07,0.368-1.931,1.167-2.367,2.208c-0.81,1.937-1.976,5.159-1.874,7.396  C261.987,462.381,265.821,466.402,268.194,468.672z" style="--darkreader-inline-fill:#e595af" class="colorFF6ED1 svgShape"></path><path fill="#4469a6" d="M274.264,467.296c0.051-0.04,0.102-0.051,0.159-0.04C274.49,467.273,274.428,467.291,274.264,467.296z" style="--darkreader-inline-fill:#a0a2a6" class="color4444A6 svgShape"></path><path fill="#355a96" d="M272.412,500.547c-4.83,7.655-13.766,12.242-17.022,16.235c-2.967,3.646-1.846,11.116,0.351,18.347  l-3.211,1.053c-0.974-6.5-3.327-12.515-1.031-18.227C253.801,512.232,259.487,512.062,272.412,500.547z" style="--darkreader-inline-fill:#aaacaf" class="color353596 svgShape"></path><path fill="#ea4335" d="M268.194 468.672c.651.623.221 1.715-.68 1.733-.611-.039-1.217-.057-1.829-.062-2.061-1.563-4.949-4.236-5.917-7.475-1.563-5.238.849-11.184 2.548-13.234 1.67-2.021 8.687-3.596 8.919-3.647.192.883.543 1.569 1.177 1.977-2.002.887-4.1 1.709-6.295 2.467-1.07.369-1.934 1.165-2.37 2.209-.81 1.938-1.978 5.158-1.873 7.396C261.987 462.381 265.821 466.402 268.194 468.672zM245.685 439.442c-2.711 2.486-4.496 9.275-4.225 12.582-.804-1.41-2.073-2.503-3.601-3.086-.793-.3-1.738-.679-2.775-1.121-.011-.158-.017-.317-.017-.476C239.031 447.828 241.228 443.423 245.685 439.442z" style="--darkreader-inline-fill:#d88ca4" class="colorF05EC1 svgShape"></path><path fill="#4469a6" d="M261.691 550.318c3.494.157 6.037 3.241 7.792 6.82.197.401.151.88-.133 1.224L257.471 572.8c-.451.547-1.3.543-1.735-.017-3.183-4.09 3.694-10.745.111-16.425C258.205 555.778 261.584 552.934 261.691 550.318zM472.902 342.427c-.725-.459-1.661-.292-2.509-.157-1.814.288-3.663.352-5.492.188-1.839-.165-3.738-.552-5.497.013-1.925.618-3.349 2.305-4.181 4.148-1.484 3.289-1.308 7.279.46 10.425 1.768 3.146 5.308 5.547 8.889 5.989l8.502-13.264c.616-1.525.913-3.178.867-4.822C473.916 344 473.703 342.933 472.902 342.427z" style="--darkreader-inline-fill:#a0a2a6" class="color4444A6 svgShape"></path><path fill="#c1d5f7" d="M485.045,386.009c-1.309,7.012-1.521,13.945-0.057,20.763c0.029,0.144,0.057,0.293,0.092,0.436h-0.195  c0,0,1.756,2.267,4.143,5.836c3.225,4.826,7.604,12.028,10.347,19.208c1.55,4.046,2.577,8.086,2.582,11.685  c0.04,18.037-31.058,26.042-31.776,29.343c-0.717,3.3,5.09,9.038,3.512,12.981c-1.578,3.948-12.982-11.908-12.407-14.846  c0.574-2.944,5.165-3.73,5.165-3.73s15.954-14.605,13.917-22.548c-0.058-0.229-0.178-0.488-0.35-0.769  c-0.964-1.607-3.627-4.052-6.754-7.312c-3.128,6.755-7.346,13.062-12.981,16.924c-2.749,1.888-5.837,3.196-9.303,3.69  c-13.756,1.957-32.161-21.911-34.6-22.697c-2.439-0.792-9.469,9.538-10.616,7.816c-1.148-1.721,8.534-17.429,11.116-17.607  c2.583-0.178,4.448,4.052,4.448,4.052s16.287,9.411,24.344,6.485c0.637-0.229,1.182-0.626,1.659-1.165  c3.271-3.719,3.248-14.106,7.661-22.249c0.999-1.848,2.233-3.581,3.782-5.096h-0.057c0.063-0.913,0.092-1.808,0.069-2.692  c-0.081-4.671-1.303-8.941-3.581-12.838c0,0-13.331-2.491-19.397-9.256c-5.228-5.837-6.99-16.167-7.575-21.768  c-0.247-2.353-0.287-3.873-0.287-3.873c-3.3-1.693-5.945-9.492-0.258-11.374c5.073-1.682,7.581,5.377,4.895,9.744  c0,0,0.563,1.188,1.492,2.938c2.267,4.253,6.697,11.828,10.513,13.825c5.676,2.973,12.408-0.93,12.408-0.93l6.887-1.865l0.832-8.235  l0.115-1.13l0.023-0.212h5.917l0.591,4.396l0.591,4.425h2.91c0,0,13.687-5.458,14.106-11.765c0.448-6.726-5.544-16.574-7.954-20.235  c-0.603-0.918-0.981-1.446-0.981-1.446c-4.23,0.086-8.608-6.204-4.729-9.165c3.047-2.33,8.533,1.578,7.925,6.313  c0,0,0.666,0.447,1.751,1.257c5.119,3.793,19.626,15.511,18.513,25.641C502.072,371.84,485.045,386.009,485.045,386.009z" style="--darkreader-inline-fill:#3d1a1e" class="colorF7C1CE svgShape"></path><path fill="#4469a6" d="M499.375,432.252l-15.541,9.727l-3.816,2.388c-0.964-1.607-3.627-4.052-6.754-7.312  c-3.128,6.755-7.346,13.062-12.981,16.924l-9.527-14.284l-3.426-5.142c3.271-3.719,3.248-14.106,7.661-22.249  c0.999-1.848,2.233-3.581,3.782-5.096h-0.057c0.023-0.391,0.046-0.775,0.057-1.159c0.023-0.517,0.023-1.027,0.012-1.532  l26.203,2.255c0.029,0.144,0.057,0.293,0.092,0.436h-0.195c0,0,1.756,2.267,4.143,5.836  C492.253,417.871,496.632,425.073,499.375,432.252z" style="--darkreader-inline-fill:#a0a2a6" class="color4444A6 svgShape"></path><path fill="#355a96" d="M483.834 441.979l-3.816 2.388c-.964-1.607-3.627-4.052-6.754-7.312l6.285-12.574-.536 5.954c-.375 4.17 1.225 8.275 4.323 11.091L483.834 441.979zM474.606 409.004c0 0-1.343 4.315-15.018 7.747-6.864 1.723-6.502 14.886-8.832 22.944l-3.426-5.142c3.271-3.719 3.248-14.106 7.661-22.249.999-1.848 2.233-3.581 3.782-5.096h-.057c.023-.391.046-.775.057-1.159L474.606 409.004z" style="--darkreader-inline-fill:#aaacaf" class="color353596 svgShape"></path><path fill="#87b4ff" d="M503.49,358.962c-0.396,3.581-1.997,7.254-4.103,10.703c-5.463,8.958-14.341,16.344-14.341,16.344  l-0.063,0.378c-0.959,6.089,1.997,14.267,3.839,20.78c0.419,1.498-0.758,2.984-2.313,2.881c-11.615-0.763-18.134,3.575-25.624,3.254  c-1.659-0.069-3.363-0.367-5.176-0.999c-1.073-0.373-1.739-1.458-1.573-2.577c0.861-5.767,3.501-13.888,1.068-18.049  c0,0-8.367-1.561-14.858-5.578c-1.705-1.05-3.283-2.273-4.54-3.678c-4.99-5.571-7.272-15.105-7.978-20.832  c-0.058-0.469,0.2-0.917,0.634-1.104l5.122-2.207c0.507-0.219,1.094-0.015,1.353,0.472c2.325,4.366,6.077,11.294,9.649,13.163  c5.676,2.973,12.408-0.93,12.408-0.93l6.887-1.865l8.069-0.757h2.91c0,0,13.687-5.458,14.106-11.765  c0.41-6.158-5.036-14.713-7.809-18.924c-0.387-0.587-0.235-1.372,0.34-1.776l3.249-2.281c0.464-0.326,1.085-0.317,1.534,0.029  C491.889,337.961,504.552,349.298,503.49,358.962z" style="--darkreader-inline-fill:#0c0a3f" class="color8787FF svgShape"></path><path fill="#75a0e6" d="M460.885 413.303c-1.659-.069-3.363-.367-5.176-.999-1.073-.373-1.739-1.458-1.573-2.577.861-5.767 3.501-13.888 1.068-18.049 0 0-8.367-1.561-14.858-5.578 8.039 2.285 14.642 2.973 20.622 1.383C458.385 399.558 463.855 405.389 460.885 413.303zM499.386 369.665c-5.463 8.958-14.341 16.344-14.341 16.344s-.144-6.936-3.157-11.24l3.094 2.26c2.031 1.805 5.083 1.174 7.102-.645C494.712 374.013 496.789 371.84 499.386 369.665z" style="--darkreader-inline-fill:#a4abb8" class="color7575E6 svgShape"></path><path fill="#4469a6" d="M468.39 465.806c-3.541.159-7.181 2.319-8.959 5.947-.199.406-.153.891.135 1.24l12.039 14.632c.456.555 1.317.551 1.758-.017 3.225-4.145-3.744-10.89-.112-16.646C470.859 470.375 468.498 468.457 468.39 465.806zM422.914 430.099c-1.557-2.986-5.111-5.759-8.961-6.149-.799-.081-1.563.355-1.91 1.079l-7.827 16.354c-.39.817.129 1.803 1.029 1.894 4.755.483 7.322-8.673 14.119-5.687C418.887 435.175 420.557 431.317 422.914 430.099z" style="--darkreader-inline-fill:#a0a2a6" class="color4444A6 svgShape"></path><path fill="#f2b4af" d="M471.358,363.937c-0.442,0.172-0.935,0.293-1.475,0.339c-2.083,0.184-4.306-0.716-5.31-2.013l0.254-2.51  l0.625-0.212h5.314L471.358,363.937z" style="--darkreader-inline-fill:#efbbac" class="colorF2AFBE svgShape"></path><path fill="#c1d5f7" d="M471.952 347.274c0 0-.502 1.399-4.035 1.758-3.533.359-7.191-2.869-7.981 0-.789 2.869 2.009 4.519 2.009 4.519s-3.372-1.291-3.658.43c-.287 1.722 3.085 3.228 3.3 3.157.215-.072 6.241 7.819 10.366 5.452C476.077 360.223 474.857 354.197 471.952 347.274zM906.223 454.572c1.193.235 2.408.451 3.645.643 0 0 .927 1.096 3.2 4.346 2.279 3.243-1.54 12.959 1.574 13.283 3.108.318 4.999-16.477 4.822-19.486-.177-3.01-6.183-2.438-6.183-2.438s-1.855-.829-4.541-2.184c-7.635-3.838-21.996-11.906-19.603-17.109 1.633-3.548 19.03 2.547 25.068-8.484 4.91-8.964-2.844-19.439-2.909-19.28l-8.37.491c0 0-7.218.424-8.846.519-2.184.128-19.116 9.935-22.639 19.203C865.558 439.544 878.436 449.173 906.223 454.572z" style="--darkreader-inline-fill:#f8c7b6" class="colorF7C1CE svgShape"></path><path fill="#355a96" d="M906.179,455.402l1.602-4.259l1.195-3.171c-6.515-3.277-18.102-9.074-19.872-13.941  c-0.308-0.834-0.321-1.644,0.031-2.406c1.633-3.548,19.03,2.547,25.068-8.484c4.91-8.964-2.844-19.439-2.909-19.28l-8.37,0.491  c0,0-7.218,0.424-8.846,0.519c-2.184,0.128-19.116,9.935-22.639,19.203C865.558,439.544,878.393,450.003,906.179,455.402z" style="--darkreader-inline-fill:#aaacaf" class="color353596 svgShape"></path><path fill="#26823f" d="M887.947,414.768c0,0-8.508,8.415-9.225,13.347c-0.595,4.095,9.395,13.642,9.395,13.642  s8.1-7.936,7.905-8.131c-0.196-0.196,4.049-12.418,4.049-12.418L887.947,414.768z" style="--darkreader-inline-fill:#b7b8ba" class="color262682 svgShape"></path><path fill="#cccccc" d="M887.558,440.819l20.223,10.324l1.195-3.171c-6.515-3.277-18.102-9.074-19.872-13.941l-0.029,0.002  L887.558,440.819z" style="--darkreader-inline-fill:#e8d7ba" class="colorCCC svgShape"></path><path fill="#4469a6" d="M895.15,344.201c5.303-4.203,15.486-5.733,20.565-0.427c3.564,7.938,8.402,8.251,16.32,9.77  c9.754,4.576-1.347,12.48,18.788,14.696c5.315,0.482,12.124,5.705,8.493,11.282c-1.818,2.361-5.906,1.458-6.316,5.998  c-0.466,5.16-3.893,7.691-7.515,6.617c-2.66-0.789-6.575-3.457-9.456-2.813c-3.369,0.753-4.362,4.883-7.897,5.152  c-12.032,0.915-21.658-8.439-23.1-27.263c0,0.001-8.058-11.279-8.058-11.279C893.573,353.19,892.009,347.681,895.15,344.201z" style="--darkreader-inline-fill:#a0a2a6" class="color4444A6 svgShape"></path><path fill="#c1d5f7" d="M875.852 451.315c.779 13.266 14.599 29.771 21.559 37.29 2.365 2.554 3.938 4.072 3.938 4.072s1.555 1.997 2.523 4.96c.962 2.964-2.863 13.756-.592 14.417 2.265.655 7.852-11.967 9.18-16.29 1.329-4.318-6.762-6.219-6.762-6.219s-.571-1.099-1.453-2.889l0-.006c-2.64-5.379-8.089-16.973-9.396-23.651-3.817-19.456 35.059-28.406 16.445-59.138l-17.216 1.011C894.078 404.872 874.927 435.549 875.852 451.315zM890.5 388.905c0 0 3.175 14.587 3.578 15.967l17.216-1.011c0 0 .144-5.491 1.138-11.285 1.116-6.469 1.718-6.607 1.718-6.607s3.336-2.555 7.251-6.132c4.133-3.792 8.911-8.726 11.071-12.995 5.51-10.892 5.168-28.775 5.168-28.775s7.724-5.631 4.431-7.814c-3.292-2.177-6.011 2.942-6.011 2.942s.03-4.386-1.256-4.241c-1.285.15-1.151 7.333-1.151 7.333s-3.701 10.25-7.487 16.231c-2.843 4.487-7.365 9.579-10.631 13.039-.818.865-1.556 1.627-2.169 2.256-1.102 1.123-2.774 1.457-4.23.858l-2.701-1.124-6.729.234-7.374 2.442c-.202.067-.345.249-.363.461L890.5 388.905z" style="--darkreader-inline-fill:#3d1a1e" class="colorF7C1CE svgShape"></path><polygon fill="#c1d5f7" points="899.708 367.779 904.857 367.599 906.435 367.546 906.275 359.063 906.177 353.97 900.418 354.956 900.157 359.672 899.946 363.481" style="--darkreader-inline-fill:#f8c7b6" class="colorF7C1CE svgShape"></polygon><path fill="#f2b4af" d="M899.946,363.481c0,0,0.65,1.01,3.341,0.798c2.608-0.205,3.148,3.267,3.148,3.267l-0.161-8.484  c-2.632,0.019-5.467,0.071-5.467,0.071l-0.651,0.537L899.946,363.481z" style="--darkreader-inline-fill:#efbbac" class="colorF2AFBE svgShape"></path><path fill="#c1d5f7" d="M897.326,353.347c0,0,4.277-1.869,6.016-7.149c0,0,1.982,5.6,4.247,5.899c0,0,2.242-2.541,3.856-0.766  c1.615,1.775-1.847,5.286-1.847,5.286s-2.868,8.726-8.246,6.525C895.974,360.942,897.326,353.347,897.326,353.347z" style="--darkreader-inline-fill:#f8c7b6" class="colorF7C1CE svgShape"></path><path fill="#ff796e" d="M890.5,388.905c0,0,3.175,14.587,3.578,15.967l17.216-1.011c0,0,0.144-5.491,1.138-11.285  c1.116-6.469,1.718-6.607,1.718-6.607s3.856-1.544,7.591-4.754c0.367-0.315,0.492-0.823,0.3-1.266l-1.096-2.496l-5.082-11.604  c-0.225-0.504-0.893-0.609-1.266-0.202c-1.724,1.896-3.593,2.229-6.145,2.186l-2.016-0.286c-1.807,2.394-3.993,2.769-6.729,0.234  l-7.708,2.552L890.5,388.905z" style="--darkreader-inline-fill:#e595af" class="colorFF6ED1 svgShape"></path><path fill="#4469a6" d="M875.852,451.315c0.779,13.266,15.424,32.162,22.384,39.681l5.16-3.335l1.696-1.095  c0,0-8.936-16.889-10.243-23.567c-3.817-19.456,35.059-28.406,16.445-59.138l-17.899,1.05  C893.395,404.912,874.927,435.549,875.852,451.315z" style="--darkreader-inline-fill:#47425d" class="color4444A6 svgShape"></path><path fill="#c1d5f7" d="M889.589,408.375c2.918,2.573,12.794,3.023,12.575-0.704c-0.252-4.3-5.981-2.704-7-3.507  c-1.019-0.803,3.498-1.068,2.332-2.513c-1.16-1.439-7.215,2.046-7.215,2.046s-9.165-1.591-7.453-7.312  c0.52-1.733,2.407-3.587,4.181-5.014c1.807-1.452,3.491-2.466,3.491-2.466l1.499-18.572c0,0-5.52,4.259-10.703,9.96  c-3.962,4.346-7.73,9.532-8.699,14.3C870.194,406.383,883.374,408.733,889.589,408.375z" style="--darkreader-inline-fill:#f8c7b6" class="colorF7C1CE svgShape"></path><path fill="#ff796e" d="M880.895,381.012l5.624,10.146c0.039,0.078,0.089,0.144,0.15,0.204c0.382,0.432,1.064,0.49,1.513,0.09  c1.051-0.919,1.956-1.852,2.373-2.297c0.162-0.17,0.249-0.267,0.249-0.267l1.776-18.744c-2.694,0.757-5.698,3.096-11.545,9.623  C880.727,380.107,880.67,380.611,880.895,381.012z" style="--darkreader-inline-fill:#e595af" class="colorFF6ED1 svgShape"></path><path fill="#ea4335" d="M886.669 391.362c.382.432 1.064.49 1.513.09 1.051-.919 1.956-1.852 2.373-2.297l-.505-7.915C888.292 385.489 889.527 389.521 886.669 391.362zM908.124 404.048l3.17-.186c0 0 .144-5.491 1.138-11.285 1.116-6.469 1.718-6.607 1.718-6.607s3.856-1.544 7.591-4.754c.367-.315.492-.823.3-1.266l.087.458c0 0-6.293 3.346-10.364 3.872C910.712 393.006 906.284 397.22 908.124 404.048z" style="--darkreader-inline-fill:#d88ca4" class="colorF05EC1 svgShape"></path><path fill="#355a96" d="M890.65,462.534c-0.219,7.336,10.298,19.978,12.746,25.126l1.696-1.095c0,0-8.936-16.889-10.243-23.567  c-3.817-19.456,35.059-28.406,16.445-59.138l-3.17,0.186c0,0,4.724,10.555,4.195,18.167  C911.402,435.392,891.2,444.057,890.65,462.534z" style="--darkreader-inline-fill:#393551" class="color353596 svgShape"></path><path fill="#4469a6" d="M907.848 490.237c4.386.964 4.132 3.533 6.065 5.361.314.297.455.733.362 1.155l-.525 2.39c-.1.455-.449.814-.901.927l-.054.014c-.543.136-.933.604-.966 1.163-.354 5.814-3.551 15.801-6.682 16.22-2.776.371-2.561-8.218-2.561-8.218C907.301 508.663 908.612 501.945 907.848 490.237zM916.523 451.046c4.386.964 4.349 3.105 6.282 4.933.314.297.456.733.363 1.155l-.525 2.39c-.1.455-.449.814-.9.927l-.054.014c-.543.136-.933.604-.967 1.163-.354 5.814-3.551 15.801-6.682 16.22-2.776.371-.579-9.672-.579-9.672C916.22 470.31 917.287 462.754 916.523 451.046z" style="--darkreader-inline-fill:#a0a2a6" class="color4444A6 svgShape"></path><polygon fill="#87b4ff" points="983.577 231.601 969.398 226.477 976.575 221.262" style="--darkreader-inline-fill:#afb8c9" class="color8787FF svgShape"></polygon><polygon fill="#87b4ff" points="969.523 229.155 953.808 216.093 976.559 224.705" style="--darkreader-inline-fill:#afb8c9" class="color8787FF svgShape"></polygon><polygon fill="#87b4ff" points="953.8 216.063 987.077 215.156 980.358 219.868" style="--darkreader-inline-fill:#afb8c9" class="color8787FF svgShape"></polygon><polygon fill="#87b4ff" points="953.808 216.093 976.58 224.785 983.577 231.601 980.403 219.766" style="--darkreader-inline-fill:#afb8c9" class="color8787FF svgShape"></polygon><path fill="#87b4ff" d="M1172.986,284.417c-0.037,0-0.073-0.002-0.111-0.005c-0.719-0.06-1.254-0.693-1.194-1.412  c0.002-0.016,0.134-1.655,0.016-4.275c-0.032-0.722,0.526-1.333,1.248-1.366c0.715-0.029,1.333,0.526,1.365,1.248  c0.127,2.806-0.016,4.54-0.022,4.613C1174.23,283.902,1173.658,284.417,1172.986,284.417z" style="--darkreader-inline-fill:#afb8c9" class="color8787FF svgShape"></path><path fill="#87b4ff" d="M1097.869,284.324c-1.228,0-2.469-0.147-3.69-0.436c-0.703-0.166-1.138-0.871-0.972-1.574  c0.166-0.703,0.869-1.139,1.574-0.972c2.708,0.64,5.468,0.431,8.017-0.608c0.671-0.272,1.433,0.049,1.705,0.718  c0.272,0.669-0.049,1.432-0.718,1.705C1101.885,283.932,1099.894,284.324,1097.869,284.324z M1086.62,279.752  c-0.299,0-0.6-0.102-0.847-0.311c-0.731-0.621-1.459-1.311-2.165-2.048c-1.605-1.68-2.62-3.736-3.014-6.111  c-0.119-0.712,0.363-1.386,1.076-1.505c0.712-0.119,1.386,0.364,1.505,1.076c0.307,1.847,1.089,3.439,2.325,4.732  c0.643,0.673,1.306,1.299,1.968,1.863c0.55,0.468,0.617,1.293,0.15,1.844C1087.358,279.595,1086.99,279.752,1086.62,279.752z   M1110.203,277.704c-0.26,0-0.522-0.077-0.751-0.238c-0.591-0.415-0.734-1.231-0.319-1.822c1.569-2.234,2.433-4.817,2.433-7.273  c0-0.116-0.002-0.232-0.006-0.348c-0.026-0.722,0.539-1.328,1.261-1.353c0.71-0.023,1.328,0.539,1.353,1.262  c0.005,0.147,0.008,0.293,0.008,0.439c0,2.99-1.033,6.107-2.908,8.777C1111.02,277.51,1110.615,277.704,1110.203,277.704z   M1171.863,271.073c-0.605,0-1.148-0.422-1.278-1.037c-0.62-2.921-1.478-5.734-2.551-8.361c-0.273-0.669,0.048-1.432,0.716-1.706  c0.67-0.273,1.433,0.048,1.706,0.716c1.132,2.771,2.037,5.734,2.688,8.808c0.15,0.707-0.302,1.401-1.008,1.551  C1172.045,271.064,1171.953,271.073,1171.863,271.073z M1083.095,263.582c-0.156,0-0.316-0.028-0.471-0.088  c-0.674-0.26-1.01-1.018-0.749-1.691c1.038-2.687,2.587-5.413,4.605-8.1c0.433-0.578,1.253-0.695,1.831-0.261  c0.578,0.434,0.694,1.254,0.261,1.831c-1.873,2.495-3.305,5.009-4.257,7.472C1084.115,263.264,1083.62,263.582,1083.095,263.582z   M1109.356,261.223c-0.37,0-0.738-0.157-0.998-0.461c-1.643-1.934-3.805-3.89-6.425-5.814c-0.583-0.428-0.708-1.246-0.281-1.828  c0.428-0.583,1.247-0.708,1.829-0.28c2.784,2.044,5.095,4.139,6.87,6.228c0.468,0.55,0.401,1.376-0.15,1.844  C1109.957,261.121,1109.656,261.223,1109.356,261.223z M1165.034,254.57c-0.42,0-0.832-0.201-1.084-0.575  c-1.633-2.414-3.527-4.631-5.63-6.589c-0.528-0.492-0.558-1.32-0.065-1.849c0.491-0.529,1.319-0.559,1.849-0.066  c2.247,2.093,4.271,4.461,6.013,7.038c0.405,0.599,0.248,1.412-0.35,1.816C1165.541,254.498,1165.286,254.57,1165.034,254.57z   M1095.09,250.442c-0.208,0-0.418-0.05-0.615-0.154c-2.569-1.37-5.27-2.601-8.027-3.659c-0.674-0.259-1.012-1.015-0.753-1.69  c0.259-0.674,1.012-1.012,1.69-0.753c1.924,0.738,3.822,1.558,5.669,2.448c2.171-1.918,4.535-3.683,7.031-5.25  c0.611-0.383,1.419-0.2,1.803,0.412c0.384,0.612,0.2,1.419-0.412,1.803c-2.076,1.304-4.055,2.75-5.899,4.311  c0.043,0.023,0.086,0.046,0.129,0.068c0.637,0.34,0.878,1.132,0.539,1.77C1096.01,250.191,1095.558,250.442,1095.09,250.442z   M1023.129,249.991c-0.007,0-0.014,0-0.021,0c-2.294,0-4.564-0.121-6.745-0.359c-0.718-0.078-1.236-0.724-1.158-1.442  c0.078-0.718,0.717-1.234,1.442-1.158c2.087,0.228,4.261,0.343,6.462,0.343c0.006,0,0.013,0,0.019,0c0.756,0,1.53-0.014,2.303-0.041  c0.711-0.019,1.328,0.539,1.354,1.261c0.026,0.722-0.539,1.328-1.261,1.354C1024.721,249.976,1023.915,249.991,1023.129,249.991z   M1034.412,249.076c-0.633,0-1.19-0.46-1.291-1.105c-0.112-0.714,0.375-1.383,1.089-1.495c2.835-0.445,5.747-1.062,8.654-1.831  c0.696-0.185,1.414,0.231,1.599,0.93c0.185,0.698-0.231,1.414-0.93,1.599c-2.994,0.792-5.994,1.427-8.918,1.887  C1034.548,249.07,1034.479,249.076,1034.412,249.076z M1007.699,247.923c-0.12,0-0.242-0.017-0.364-0.052  c-3.009-0.869-5.893-2.018-8.573-3.415c-0.641-0.334-0.89-1.124-0.555-1.765c0.334-0.641,1.124-0.889,1.764-0.556  c2.526,1.317,5.249,2.401,8.091,3.222c0.694,0.201,1.094,0.926,0.893,1.62C1008.79,247.55,1008.267,247.923,1007.699,247.923z   M1051.767,244.519c-0.536,0-1.039-0.333-1.231-0.866c-0.244-0.68,0.109-1.429,0.789-1.673c2.81-1.008,5.857-1.685,9.059-2.011  c0.724-0.076,1.361,0.451,1.434,1.169c0.073,0.719-0.45,1.361-1.169,1.434c-2.99,0.304-5.829,0.933-8.44,1.87  C1052.063,244.494,1051.913,244.519,1051.767,244.519z M1078.347,244.034c-0.102,0-0.206-0.012-0.309-0.037  c-2.939-0.713-5.855-1.2-8.665-1.448c-0.719-0.063-1.251-0.698-1.188-1.418c0.063-0.719,0.687-1.254,1.418-1.188  c2.941,0.259,5.986,0.768,9.052,1.511c0.702,0.17,1.133,0.878,0.963,1.58C1079.472,243.632,1078.937,244.034,1078.347,244.034z   M1152.009,242.423c-0.224,0-0.451-0.058-0.659-0.179c-2.429-1.418-5.094-2.637-7.923-3.624c-0.682-0.238-1.042-0.984-0.804-1.666  c0.238-0.682,0.985-1.042,1.666-0.804c2.987,1.042,5.807,2.332,8.381,3.834c0.624,0.364,0.834,1.166,0.47,1.789  C1152.896,242.191,1152.458,242.423,1152.009,242.423z M1108.756,239.682c-0.514,0-1.001-0.304-1.209-0.809  c-0.276-0.668,0.042-1.433,0.709-1.708c2.859-1.181,5.813-2.11,8.78-2.759c0.707-0.153,1.403,0.293,1.557,0.998  c0.154,0.706-0.293,1.403-0.998,1.558c-2.817,0.616-5.622,1.498-8.339,2.621C1109.092,239.65,1108.923,239.682,1108.756,239.682z   M1135.168,236.474c-0.069,0-0.139-0.006-0.21-0.017c-2.42-0.39-4.887-0.588-7.33-0.588c-0.002,0-0.004,0-0.005,0  c-0.458,0-0.914,0.007-1.368,0.02c-0.745,0.015-1.325-0.547-1.346-1.269c-0.021-0.722,0.547-1.325,1.269-1.346  c0.481-0.014,0.963-0.021,1.446-0.021c0.002,0,0.003,0,0.005,0c2.583,0,5.189,0.209,7.748,0.622c0.713,0.115,1.198,0.786,1.083,1.5  C1136.354,236.017,1135.799,236.474,1135.168,236.474z" style="--darkreader-inline-fill:#0c0a3f" class="color8787FF svgShape"></path><path fill="#87b4ff" d="M991.857,239.612c-0.295,0-0.591-0.099-0.836-0.302c-1.165-0.969-2.298-2.015-3.367-3.107  c-0.505-0.516-0.496-1.345,0.02-1.85c0.517-0.505,1.345-0.496,1.85,0.02c1.006,1.028,2.072,2.012,3.169,2.925  c0.555,0.462,0.631,1.287,0.169,1.842C992.604,239.451,992.232,239.612,991.857,239.612z" style="--darkreader-inline-fill:#afb8c9" class="color8787FF svgShape"></path><polygon fill="#87b4ff" points="389.644 193.346 406.905 187.108 398.168 180.76" style="--darkreader-inline-fill:#afb8c9" class="color8787FF svgShape"></polygon><polygon fill="#87b4ff" points="406.753 190.367 425.884 174.466 398.188 184.95" style="--darkreader-inline-fill:#afb8c9" class="color8787FF svgShape"></polygon><polygon fill="#87b4ff" points="425.894 174.43 385.383 173.326 393.563 179.062" style="--darkreader-inline-fill:#afb8c9" class="color8787FF svgShape"></polygon><polygon fill="#87b4ff" points="425.884 174.466 398.162 185.048 389.644 193.346 393.509 178.938" style="--darkreader-inline-fill:#afb8c9" class="color8787FF svgShape"></polygon><path fill="#87b4ff" d="M159.068,257.641c0.045,0,0.089-0.002,0.135-0.006c0.876-0.074,1.526-0.843,1.454-1.719  c-0.002-0.02-0.163-2.015-0.019-5.204c0.04-0.879-0.64-1.623-1.519-1.663c-0.87-0.036-1.622,0.64-1.662,1.519  c-0.154,3.416,0.019,5.527,0.027,5.616C157.553,257.014,158.249,257.641,159.068,257.641z" style="--darkreader-inline-fill:#afb8c9" class="color8787FF svgShape"></path><path fill="#87b4ff" d="M243.309,256.107c-0.814-0.332-1.205-1.261-0.874-2.075c0.332-0.814,1.258-1.206,2.076-0.874  c3.104,1.264,6.464,1.52,9.76,0.74c0.858-0.204,1.714,0.327,1.916,1.183c0.203,0.856-0.327,1.714-1.183,1.916  c-1.486,0.352-2.997,0.53-4.492,0.531C248.046,257.528,245.622,257.05,243.309,256.107z M262.992,251.401  c-0.569-0.67-0.488-1.675,0.182-2.244c0.807-0.686,1.613-1.448,2.396-2.267c1.504-1.574,2.456-3.512,2.83-5.761  c0.144-0.867,0.965-1.455,1.832-1.31c0.867,0.144,1.454,0.965,1.309,1.832c-0.48,2.892-1.715,5.394-3.669,7.439  c-0.859,0.898-1.745,1.737-2.636,2.494c-0.3,0.254-0.666,0.379-1.031,0.379C263.755,251.962,263.307,251.771,262.992,251.401z   M234.192,248.792c-2.283-3.251-3.54-7.045-3.54-10.684c0-0.178,0.003-0.356,0.009-0.535c0.03-0.879,0.783-1.564,1.647-1.536  c0.879,0.031,1.566,0.768,1.535,1.647c-0.005,0.141-0.007,0.282-0.007,0.423c0,2.99,1.052,6.135,2.962,8.854  c0.506,0.72,0.332,1.713-0.388,2.218c-0.278,0.195-0.597,0.289-0.914,0.289C234.995,249.469,234.502,249.233,234.192,248.792z   M160.102,241.361c-0.86-0.183-1.41-1.028-1.227-1.888c0.793-3.742,1.894-7.349,3.273-10.722c0.332-0.814,1.261-1.205,2.076-0.872  c0.814,0.333,1.205,1.262,0.872,2.076c-1.307,3.198-2.351,6.622-3.106,10.179c-0.159,0.749-0.82,1.262-1.556,1.262  C160.325,241.396,160.214,241.385,160.102,241.361z M267.011,231.258c-1.158-2.998-2.902-6.059-5.182-9.096  c-0.528-0.703-0.386-1.702,0.317-2.229c0.704-0.529,1.702-0.386,2.229,0.317c2.456,3.271,4.342,6.589,5.606,9.861  c0.317,0.82-0.091,1.742-0.912,2.059c-0.188,0.073-0.383,0.107-0.573,0.107C267.857,232.277,267.254,231.89,267.011,231.258z   M235.497,229.026c-0.67-0.569-0.751-1.575-0.182-2.245c2.161-2.543,4.975-5.094,8.364-7.582c0.709-0.52,1.706-0.369,2.226,0.341  c0.52,0.709,0.368,1.705-0.341,2.226c-3.189,2.342-5.821,4.723-7.821,7.077c-0.315,0.371-0.763,0.561-1.214,0.561  C236.163,229.405,235.796,229.281,235.497,229.026z M167.858,221.034c-0.728-0.493-0.92-1.482-0.427-2.211  c2.122-3.137,4.585-6.02,7.321-8.567c0.645-0.6,1.652-0.563,2.25,0.08c0.6,0.644,0.564,1.651-0.08,2.251  c-2.56,2.384-4.866,5.083-6.854,8.021c-0.307,0.455-0.809,0.7-1.32,0.7C168.441,221.307,168.131,221.219,167.858,221.034z   M252.488,215.438c-0.414-0.776-0.12-1.741,0.656-2.154c0.052-0.028,0.105-0.055,0.157-0.083c-2.245-1.9-4.654-3.662-7.181-5.248  c-0.745-0.468-0.97-1.45-0.502-2.195c0.468-0.745,1.451-0.968,2.195-0.502c3.038,1.908,5.916,4.057,8.559,6.391  c2.249-1.084,4.559-2.082,6.901-2.98c0.825-0.316,1.742,0.096,2.057,0.916c0.315,0.821-0.095,1.742-0.916,2.057  c-3.356,1.288-6.644,2.787-9.771,4.455c-0.239,0.127-0.495,0.188-0.748,0.188C253.325,216.282,252.774,215.976,252.488,215.438z   M338.581,215.68c-0.879-0.031-1.566-0.769-1.535-1.648c0.031-0.879,0.783-1.558,1.648-1.535c0.941,0.034,1.884,0.05,2.804,0.05  c0.008,0,0.016,0,0.023,0c2.679,0,5.325-0.14,7.866-0.418c0.883-0.092,1.661,0.536,1.756,1.41c0.095,0.874-0.536,1.661-1.41,1.756  c-2.655,0.29-5.418,0.437-8.211,0.437c-0.009,0-0.017,0-0.025,0C340.539,215.732,339.558,215.714,338.581,215.68z M327.512,214.599  c-3.559-0.559-7.212-1.332-10.856-2.297c-0.85-0.225-1.357-1.097-1.132-1.947c0.225-0.851,1.099-1.357,1.947-1.132  c3.539,0.937,7.084,1.687,10.535,2.229c0.869,0.137,1.462,0.952,1.326,1.82c-0.123,0.785-0.801,1.345-1.571,1.345  C327.678,214.618,327.595,214.612,327.512,214.599z M358.751,212.064c-0.244-0.845,0.243-1.728,1.087-1.972  c3.46-1,6.774-2.319,9.85-3.922c0.779-0.405,1.742-0.104,2.148,0.677c0.407,0.78,0.104,1.742-0.676,2.148  c-3.262,1.7-6.774,3.099-10.437,4.157c-0.148,0.043-0.297,0.063-0.443,0.063C359.588,213.214,358.952,212.761,358.751,212.064z   M306.096,208.977c-3.177-1.14-6.634-1.906-10.274-2.277c-0.875-0.089-1.512-0.87-1.423-1.745c0.089-0.875,0.863-1.515,1.745-1.423  c3.897,0.397,7.607,1.22,11.028,2.448c0.828,0.297,1.258,1.209,0.96,2.037c-0.233,0.65-0.845,1.055-1.498,1.055  C306.455,209.071,306.274,209.041,306.096,208.977z M272.73,207.263c-0.207-0.855,0.318-1.715,1.173-1.923  c3.732-0.905,7.439-1.524,11.019-1.84c0.89-0.08,1.649,0.571,1.726,1.447c0.077,0.876-0.57,1.649-1.446,1.726  c-3.422,0.302-6.971,0.894-10.549,1.762c-0.126,0.03-0.252,0.045-0.376,0.045C273.559,208.48,272.907,207.992,272.73,207.263z   M183.228,205.73c-0.443-0.759-0.187-1.735,0.572-2.178c3.133-1.829,6.566-3.4,10.203-4.668c0.829-0.29,1.739,0.149,2.028,0.979  c0.29,0.83-0.149,1.738-0.979,2.028c-3.444,1.201-6.689,2.685-9.646,4.412c-0.252,0.147-0.529,0.217-0.802,0.217  C184.057,206.52,183.524,206.237,183.228,205.73z M236.65,203.062c-3.308-1.367-6.723-2.44-10.152-3.191  c-0.859-0.188-1.403-1.037-1.215-1.896c0.188-0.858,1.035-1.401,1.896-1.215c3.611,0.79,7.207,1.921,10.688,3.359  c0.813,0.336,1.199,1.267,0.863,2.08c-0.254,0.614-0.847,0.985-1.472,0.985C237.055,203.183,236.849,203.144,236.65,203.062z   M203.536,197.938c-0.14-0.868,0.45-1.686,1.318-1.826c3.114-0.502,6.287-0.757,9.432-0.757c0.002,0,0.004,0,0.006,0  c0.588,0,1.175,0.009,1.76,0.026c0.879,0.026,1.57,0.76,1.544,1.639s-0.733,1.563-1.639,1.545c-0.553-0.016-1.108-0.025-1.666-0.025  c-0.002,0-0.004,0-0.006,0c-2.975,0-5.977,0.241-8.923,0.716c-0.087,0.014-0.172,0.021-0.256,0.021  C204.338,199.278,203.661,198.721,203.536,197.938z" style="--darkreader-inline-fill:#0c0a3f" class="color8787FF svgShape"></path><path fill="#87b4ff" d="M379.565,203.097c0.359,0,0.72-0.121,1.018-0.368c1.419-1.18,2.798-2.453,4.099-3.782  c0.615-0.629,0.604-1.637-0.025-2.252c-0.629-0.615-1.637-0.604-2.252,0.025c-1.225,1.252-2.523,2.45-3.858,3.56  c-0.676,0.562-0.768,1.566-0.206,2.243C378.655,202.901,379.109,203.097,379.565,203.097z" style="--darkreader-inline-fill:#afb8c9" class="color8787FF svgShape"></path><path fill="#b0ceff" d="M161.625 361.054c-4.017 9.882-8.034 19.764-12.051 29.647-.512 1.259 1.497 1.915 2.008.658 4.017-9.882 8.034-19.765 12.051-29.647C164.144 360.453 162.136 359.797 161.625 361.054zM156.669 358.295c-1.991 3.692-4.505 7.061-7.503 9.996-.968.947.427 2.534 1.401 1.581 3.13-3.063 5.794-6.57 7.874-10.425C159.08 358.26 157.316 357.094 156.669 358.295zM167.547 360.903c1.31 6.86 1.996 13.823 2.034 20.807.007 1.354 2.116 1.49 2.109.127-.038-7.161-.727-14.312-2.07-21.346C169.364 359.153 167.292 359.567 167.547 360.903zM173.18 358.85c7.037 5.436 13.633 11.419 19.736 17.886.931.987 2.516-.41 1.581-1.401-6.231-6.602-12.981-12.706-20.165-18.256C173.257 356.248 172.108 358.022 173.18 358.85zM174.747 353.308c7.028.844 13.887 3 20.128 6.343 1.188.636 2.354-1.127 1.152-1.771-6.577-3.523-13.744-5.791-21.152-6.681C173.522 351.037 173.401 353.147 174.747 353.308zM191.872 326.131c-6.231 6.973-12.956 13.494-20.117 19.507-1.042.875.36 2.455 1.401 1.581 7.161-6.014 13.886-12.534 20.117-19.507.38-.425.5-1.028.09-1.491C193.019 325.832 192.255 325.703 191.872 326.131zM170.691 333.002c-.158 3.393-1.367 6.599-3.456 9.274-.835 1.07.938 2.219 1.771 1.152 2.297-2.941 3.62-6.574 3.793-10.299C172.862 331.771 170.754 331.641 170.691 333.002zM134.525 366.192c.229.466.931.793 1.414.483 6.505-4.175 13.26-7.949 20.225-11.3 1.227-.591.294-2.486-.931-1.897-6.965 3.351-13.72 7.125-20.225 11.3C134.529 365.086 134.254 365.639 134.525 366.192zM144.546 349.179c3.469.696 6.994 1.088 10.531 1.183 1.363.036 1.276-2.075-.077-2.111-3.361-.09-6.697-.472-9.993-1.133C143.674 346.85 143.21 348.911 144.546 349.179zM132.71 326.253c7.943 7.29 16.4 14.009 25.309 20.081 1.123.765 2.278-1.004 1.152-1.771-8.753-5.965-17.076-12.549-24.88-19.711-.42-.386-1.032-.496-1.491-.09C132.407 325.111 132.287 325.865 132.71 326.253zM155.11 328.55c2.012 5.026 4.419 9.883 7.199 14.528.694 1.16 2.595.236 1.897-.931-2.78-4.645-5.187-9.502-7.199-14.528C156.501 326.355 154.608 327.295 155.11 328.55zM138.355 347.298c.728 1.148 2.513.018 1.784-1.132C139.41 345.018 137.625 346.148 138.355 347.298zM143.03 378.161c.901 1.017 2.484-.382 1.581-1.401C143.71 375.743 142.127 377.142 143.03 378.161zM171.771 388.47c.902 1.017 2.484-.382 1.581-1.401C172.451 386.051 170.868 387.451 171.771 388.47zM172.155 327.088c.902 1.017 2.484-.382 1.581-1.401C172.834 324.669 171.252 326.069 172.155 327.088zM194.13 325.199c.901 1.017 2.484-.382 1.581-1.401C194.81 322.781 193.227 324.18 194.13 325.199zM199.691 360.899c.902 1.017 2.484-.382 1.581-1.401C200.37 358.481 198.788 359.88 199.691 360.899zM431.083 88.362c8.96 7.872 17.921 15.743 26.881 23.615 1.142 1.003 2.572-.878 1.432-1.878-8.96-7.872-17.921-15.743-26.881-23.615C431.373 85.48 429.943 87.361 431.083 88.362zM426.349 92.582c3.167 3.459 5.802 7.351 7.8 11.595.645 1.37 2.833.48 2.184-.899-2.085-4.43-4.81-8.532-8.117-12.144C427.198 90.023 425.319 91.458 426.349 92.582zM433.099 82.052c7.726 1.136 15.33 2.969 22.72 5.495 1.433.49 2.351-1.687.909-2.18-7.576-2.59-15.381-4.489-23.302-5.654C431.918 79.491 431.594 81.831 433.099 82.052zM432.999 75.35c8.325-5.435 17.066-10.203 26.137-14.273 1.384-.621.491-2.808-.899-2.184-9.261 4.155-18.186 9.041-26.685 14.59C430.281 74.313 431.731 76.178 432.999 75.35zM427.723 71.66c3.472-7.112 8.269-13.563 14.091-18.925 1.108-1.021-.326-2.9-1.447-1.867-6.136 5.651-11.164 12.387-14.824 19.884C424.875 72.119 427.058 73.022 427.723 71.66zM405.313 43.593c5.075 9.141 9.491 18.638 13.211 28.409.541 1.421 2.725.522 2.184-.899-3.72-9.771-8.136-19.268-13.211-28.409-.31-.558-.902-.906-1.541-.643C405.418 42.272 405.001 43.032 405.313 43.593zM404.789 68.485c3.525 1.413 6.467 3.868 8.524 7.056.823 1.275 2.688-.176 1.867-1.447-2.262-3.506-5.612-6.238-9.483-7.789C404.287 65.739 403.375 67.919 404.789 68.485zM426.555 118.867c.577-.071 1.179-.692 1.029-1.316-2.019-8.403-3.524-16.922-4.504-25.508-.173-1.513-2.517-1.224-2.345.286.981 8.586 2.485 17.106 4.504 25.508C425.389 118.457 425.871 118.951 426.555 118.867zM412.27 102.036c2.009-3.408 3.718-6.986 5.117-10.687.539-1.426-1.723-2.11-2.258-.694-1.329 3.516-2.958 6.899-4.867 10.137C409.49 102.102 411.496 103.349 412.27 102.036zM383.713 106.115c10.615-5.711 20.817-12.173 30.502-19.351 1.22-.905-.224-2.774-1.447-1.867-9.514 7.052-19.524 13.423-29.953 19.035-.562.302-.903.908-.643 1.542C382.395 106.015 383.147 106.419 383.713 106.115zM394.365 83.303c6.046-.279 12.06-1.037 17.986-2.267 1.48-.307 1.203-2.654-.286-2.345-5.926 1.23-11.94 1.988-17.986 2.267C392.557 81.028 392.855 83.373 394.365 83.303zM408.009 107.883c1.479-.348.942-2.647-.54-2.299C405.989 105.931 406.527 108.231 408.009 107.883zM442.319 114.282c1.405-.578.509-2.764-.899-2.184C440.015 112.676 440.911 114.861 442.319 114.282zM463.761 87.717c1.405-.578.509-2.763-.899-2.184C461.457 86.111 462.353 88.296 463.761 87.717zM399.081 64.767c1.405-.578.509-2.764-.899-2.184C396.777 63.161 397.673 65.346 399.081 64.767zM405.158 40.866c1.405-.578.509-2.763-.899-2.184C402.854 39.261 403.751 41.446 405.158 40.866zM444.901 48.107c1.405-.578.509-2.763-.899-2.184C442.597 46.501 443.493 48.686 444.901 48.107zM1150.848 333.091c-6.299-5.192-12.597-10.383-18.896-15.575-.803-.662-1.74.656-.939 1.316 6.299 5.192 12.597 10.383 18.896 15.575C1150.712 335.069 1151.649 333.751 1150.848 333.091zM1153.996 330.103c-2.241-2.298-4.127-4.903-5.585-7.764-.471-.923-1.948-.267-1.475.662 1.521 2.985 3.474 5.733 5.813 8.132C1153.47 331.872 1154.724 330.85 1153.996 330.103zM1149.605 337.451c-5.309-.611-10.55-1.701-15.659-3.269-.991-.304-1.572 1.205-.575 1.511 5.238 1.608 10.617 2.74 16.061 3.366C1150.468 339.177 1150.639 337.57 1149.605 337.451zM1149.818 342.033c-5.578 3.897-11.454 7.346-17.571 10.326-.933.455-.276 1.931.662 1.475 6.245-3.042 12.245-6.576 17.939-10.554C1151.699 342.684 1150.667 341.44 1149.818 342.033zM1153.506 344.444c-2.222 4.939-5.364 9.455-9.231 13.249-.736.722.285 1.977 1.03 1.246 4.076-3.998 7.37-8.713 9.712-13.92C1155.444 344.068 1153.932 343.498 1153.506 344.444zM1169.439 363.16c-3.668-6.144-6.894-12.544-9.648-19.148-.401-.961-1.875-.298-1.475.662 2.755 6.604 5.98 13.005 9.648 19.148.224.375.637.6 1.068.406C1169.396 364.065 1169.665 363.537 1169.439 363.16zM1169.261 346.122c-2.442-.89-4.507-2.506-5.983-4.643-.591-.855-1.835.178-1.246 1.03 1.623 2.349 3.973 4.146 6.654 5.124C1169.664 347.989 1170.241 346.479 1169.261 346.122zM1153.289 312.128c-.393.061-.792.499-.676.922 1.562 5.704 2.775 11.499 3.63 17.351.151 1.031 1.748.783 1.598-.246-.855-5.852-2.068-11.647-3.63-17.351C1154.095 312.383 1153.755 312.056 1153.289 312.128zM1163.422 323.333c-1.301 2.374-2.393 4.859-3.27 7.42-.338.987 1.224 1.406 1.559.426.834-2.434 1.875-4.782 3.111-7.038C1165.323 323.228 1163.923 322.418 1163.422 323.333zM1182.869 319.929c-7.138 4.135-13.977 8.775-20.447 13.893-.815.645.213 1.893 1.03 1.246 6.356-5.029 13.066-9.602 20.079-13.665.378-.219.599-.64.406-1.068C1183.772 319.968 1183.249 319.708 1182.869 319.929zM1176.073 335.762c-4.13.321-8.227.969-12.254 1.938-1.006.242-.766 1.841.246 1.598 4.027-.969 8.124-1.617 12.254-1.938C1177.358 337.279 1177.105 335.681 1176.073 335.762zM1166.211 319.242c-1.005.27-.587 1.831.419 1.561C1167.635 320.533 1167.218 318.972 1166.211 319.242zM1142.604 315.603c-.949.426-.289 1.901.662 1.475C1144.215 316.652 1143.555 315.177 1142.604 315.603zM1128.509 334.236c-.949.426-.289 1.901.662 1.475C1130.12 335.285 1129.46 333.809 1128.509 334.236zM1173.246 348.542c-.949.426-.289 1.901.662 1.475C1174.857 349.591 1174.197 348.116 1173.246 348.542zM1169.604 365.021c-.949.426-.289 1.901.662 1.475C1171.214 366.07 1170.554 364.595 1169.604 365.021zM1142.263 360.924c-.949.426-.289 1.901.662 1.475C1143.874 361.973 1143.213 360.498 1142.263 360.924zM1027.701 99.868c-7.889-7.18-15.779-14.36-23.668-21.54-1.005-.915-2.314.744-1.311 1.657 7.889 7.18 15.779 14.36 23.668 21.54C1027.396 102.44 1028.704 100.781 1027.701 99.868zM1032 96.168c-2.778-3.143-5.073-6.665-6.793-10.492-.555-1.236-2.526-.474-1.967.769 1.795 3.994 4.167 7.705 7.068 10.987C1031.201 98.443 1032.903 97.19 1032 96.168zM1025.799 105.479c-6.891-1.137-13.662-2.896-20.231-5.271-1.274-.461-2.129 1.472-.847 1.935 6.734 2.435 13.684 4.256 20.749 5.422C1026.815 107.788 1027.14 105.7 1025.799 105.479zM1025.782 111.474c-7.53 4.729-15.422 8.856-23.597 12.353-1.247.534-.483 2.503.769 1.967 8.347-3.57 16.405-7.799 24.093-12.628C1028.197 112.444 1026.929 110.753 1025.782 111.474zM1030.443 114.857c-3.217 6.305-7.608 11.999-12.899 16.703-1.007.896.246 2.599 1.265 1.693 5.576-4.957 10.178-10.901 13.569-17.548C1032.997 114.49 1031.059 113.649 1030.443 114.857zM1050.042 140.308c-4.395-8.254-8.195-16.816-11.368-25.613-.462-1.28-2.429-.509-1.967.769 3.173 8.797 6.973 17.358 11.368 25.613.268.504.793.824 1.368.599C1049.927 141.487 1050.312 140.815 1050.042 140.308zM1050.901 118.056c-3.13-1.319-5.722-3.56-7.512-6.444-.716-1.153-2.406.115-1.693 1.265 1.968 3.171 4.921 5.666 8.357 7.114C1051.308 120.519 1052.157 118.585 1050.901 118.056zM1032.229 72.66c-.517.054-1.066.6-.941 1.16 1.674 7.546 2.885 15.188 3.627 22.882.131 1.356 2.232 1.134 2.101-.219-.742-7.694-1.953-15.336-3.627-22.882C1033.266 73.045 1032.842 72.595 1032.229 72.66zM1044.739 87.935c-1.85 3.016-3.435 6.189-4.744 9.476-.504 1.266 1.507 1.914 2.008.656 1.244-3.123 2.754-6.123 4.512-8.988C1047.226 87.92 1045.452 86.773 1044.739 87.935zM1070.341 84.737c-9.583 4.941-18.807 10.559-27.58 16.826-1.105.79.157 2.484 1.265 1.693 8.619-6.157 17.67-11.697 27.085-16.551.507-.261.822-.798.599-1.368C1071.518 84.846 1070.851 84.474 1070.341 84.737zM1060.457 104.969c-5.411.154-10.801.738-16.12 1.744-1.328.251-1.117 2.355.219 2.102 5.319-1.007 10.708-1.59 16.12-1.745C1062.037 107.032 1061.808 104.93 1060.457 104.969zM1048.641 82.773c-1.328.288-.884 2.353.447 2.065C1050.417 84.551 1049.972 82.485 1048.641 82.773zM1018.06 76.512c-1.266.495-.499 2.463.769 1.967C1020.095 77.985 1019.328 76.016 1018.06 76.512zM998.468 99.931c-1.266.495-.499 2.463.769 1.967C1000.503 101.403 999.736 99.435 998.468 99.931zM1055.948 121.471c-1.266.495-.499 2.463.769 1.967C1057.983 122.943 1057.216 120.975 1055.948 121.471zM1050.137 142.748c-1.266.495-.499 2.463.769 1.967C1052.172 144.221 1051.405 142.252 1050.137 142.748zM1014.711 135.649c-1.266.495-.499 2.463.769 1.967C1016.746 137.122 1015.979 135.153 1014.711 135.649z" style="--darkreader-inline-fill:#ecbbd2" class="colorEAB0FF svgShape"></path><path fill="#d4e4ff" d="M292.28 127.11l-10.922-.193 2.346-8.959c0 0-9.349 11.503-18.422 14.968-7.42 2.833-17.331 5.122-17.331 5.122l9.128 4.457-4.864 5.633C266.228 147.306 279.514 139.652 292.28 127.11zM349.388 351.773l-7.329-8.1 8.141-4.416c0 0-14.787 1.047-23.519-3.203-7.141-3.475-15.59-9.14-15.59-9.14l2.992 9.707-7.436.305C316.836 346.58 331.507 351.038 349.388 351.773zM914.37 112.728l-10.547-2.844 4.455-8.12c0 0-11.866 8.884-21.51 10.038-7.886.943-18.056.754-18.056.754l7.77 6.543-6.088 4.281C884.188 125.982 898.936 121.79 914.37 112.728zM1057.48 352.431l-8.698-6.608 7.186-5.843c0 0-14.339 3.759-23.706 1.194-7.66-2.097-17.01-6.105-17.01-6.105l4.732 8.988-7.252 1.672C1024.528 353.337 1039.77 355.01 1057.48 352.431z" style="--darkreader-inline-fill:#e1dfdb" class="colorD4D4FF svgShape"></path></svg>