<svg xmlns="http://www.w3.org/2000/svg" viewBox="0 0 1364 960"><path fill="#EEFBFF" d="M187.065 772.663c-37.846-36.658-89.611-101.599-103.737-144.439-18.395-55.788-17.808-123.83 25.941-163.033 14.853-13.31 33.769-23.102 43.469-40.528 18.461-33.166-4.993-72.685-15.572-109.139-21.824-75.199 16.385-158.103 76.331-208.478 20.415-17.156 43.55-31.558 69.104-39.177 65.753-19.605 138.276 9.127 188.603 55.761 50.327 46.636 82.855 108.875 114.402 169.805 19.737-28.936 52.35-48.726 87.129-52.873 26.432-3.151 53.574 2.289 79.66-3.011 40.153-8.158 59.324-53.539 95.375-73.008 308.154-166.419 584.507 191.464 365.997 427.971L187.065 772.663z"/><path fill="#CFF0FF" d="M166.359 603.819c13.522-49.107 48.472-91.905 93.887-114.965 39.247-19.93 87.913-27.491 114.365-62.674 22.229-29.566 21.672-69.701 22.346-106.685.908-49.771 6.13-100.727 27.96-145.464 21.829-44.737 63.002-82.552 112.371-88.926 80.148-10.352 147.469 60.067 226.362 77.574 72.125 16.004 155.965-11.599 216.363 30.944 41.886 29.505 57.526 83.529 67.48 133.786 9.954 50.258 18.476 104.113 52.685 142.25 22.134 24.677 52.844 40.013 76.839 62.883 32.496 30.972 51.283 75.841 50.553 120.727-.732 44.887-20.972 89.117-54.46 119.014l-986.045.379c-27.211-43.056-34.227-119.736-20.706-168.843z"/><path fill="#CFF0FF" d="M312.635 357.32c0 10.669 8.649 19.317 19.318 19.317s19.319-8.648 19.319-19.317c0-10.67-8.65-19.319-19.319-19.319s-19.318 8.65-19.318 19.319zM196.724 463.57c0 10.67 8.649 19.319 19.319 19.319 10.669 0 19.318-8.649 19.318-19.319 0-10.669-8.649-19.318-19.318-19.318-10.669 0-19.319 8.649-19.319 19.318zM273.997 420.105H264.338 273.997zM288.486 420.105c0 5.334 4.325 9.658 9.659 9.658 5.336 0 9.66-4.324 9.66-9.658a9.658 9.658 0 0 0-9.66-9.659c-5.334-.001-9.659 4.323-9.659 9.659zM848.718 120.671c0 5.334 4.324 9.659 9.658 9.659a9.659 9.659 0 0 0 9.66-9.659 9.66 9.66 0 0 0-9.66-9.66c-5.334-.001-9.658 4.325-9.658 9.66zM1162.64 376.637c0 5.335 4.325 9.66 9.659 9.66 5.335 0 9.66-4.326 9.66-9.66 0-5.334-4.325-9.659-9.66-9.659-5.334.001-9.659 4.325-9.659 9.659zM206.384 357.32c0 21.338 17.298 38.636 38.636 38.636s38.637-17.298 38.637-38.636c0-21.339-17.299-38.638-38.637-38.638s-38.636 17.299-38.636 38.638zM764.873 143.403c17.889 11.632 41.821 6.558 53.452-11.332 11.632-17.891 6.557-41.822-11.332-53.453-17.89-11.631-41.821-6.556-53.452 11.333-11.631 17.89-6.557 41.822 11.332 53.452zM1123.705 452.506c13.501 8.778 31.066 5.712 39.232-6.848 8.167-12.561 3.842-29.86-9.659-38.638-13.5-8.777-31.065-5.71-39.231 6.85-8.167 12.561-3.843 29.859 9.658 38.636zM273.997 280.047c0 8.002 6.487 14.488 14.489 14.488s14.489-6.486 14.489-14.488c0-8.001-6.487-14.489-14.489-14.489s-14.489 6.487-14.489 14.489zM696.513 98.283c-4.362 6.71-2.46 15.683 4.249 20.046 6.709 4.362 15.683 2.459 20.045-4.25 4.362-6.709 2.459-15.683-4.249-20.044-6.71-4.363-15.684-2.46-20.045 4.248zM1082.879 349.423c-4.361 6.708-2.459 15.683 4.249 20.044 6.709 4.361 15.684 2.459 20.046-4.25 4.361-6.708 2.459-15.683-4.251-20.044-6.708-4.361-15.683-2.459-20.044 4.25z"/><path fill="#EEFBFF" d="M1235.336 795.417c-8.859-9.289-25.771-17.861-62.226-23.133l-986.045.379s-14.435 5.283-28.023 14.107c-5.153 3.346-13.72 13.73-15.353 23.824-1.941 12-.148 21.817 8.824 28 8.706 6 30.962 6.647 44.997 5.249 35.734-3.558 72.485 3.852 104.048 20.979 18.127 9.836 34.316 20.656 54.72 23.655 43.08 6.332 81.206-15.451 118.118-16.941 99.489-4.016 179.315 30.1 278.824 26.588 60-2.118 110.684-26.35 164.363-34.263 40.454-5.963 81.759-2.044 122.385 2.598 81.487 9.311 116.311 12.135 176.546-10.453 7.529-2.823 20.294-12.546 24.916-19.125 7.378-10.504 2.765-32.175-6.094-41.464z"/><path fill="#FAAF3A" d="M862.089 749.821s-26.391 1.671-30.825-23.168c-4.522-25.333-9.909-33.564-24.632-43.583 0 0 27.6-10.608 35.608 12.362 5.359 15.37 12.084-17.418.574-36.585s-18.893-48.633-8.162-62.07c0 0 .009 17.191 5.246 23.15s-14.187-18.979 5.401-35.57c19.587-16.592 27.831-53.745 27.831-53.745s19.295 26.479 11.812 64.26c-3.568 18.015-22.205 51.965-9.764 61.13 17.206 12.676 59.641-70.883 40.978-100.055 0 0 39.177 36.614 23.036 61.005-16.14 24.392-17.436 40.656-9.306 41.329s7.805-74.068 56.465-72.067c0 0-10.619 19.496-8.744 33.919 1.875 14.423-12.928 28.231-12.928 28.231 12.905-.152 21.442-11.625 19.627-20.162 0 0 17.62 9.645 2.051 34.55-15.569 24.905-29.739 37.853-29.36 50.572.379 12.719 26.343-21.557 26.343-21.557s5.846 6.01-2.069 27.456c-7.915 21.446-32.948 22.238-32.948 22.238s24.511 5.509 29.283-2.692c0 0-5.468 21.54-48.749 16.578l-66.768-5.526z"/><path fill="#FA8900" d="M880.008 751.526s-30.236-.625-34.36-17.542c-4.125-16.918-12.767-26.229-12.767-26.229s9.331-1.478 21.787 11.218c12.455 12.696 5.504-66.464-15.335-79.24 0 0 13.837 2.809 15.244 5.586s-26.271-24.201 20.358-77.589c0 0-12.917 34.286-12.806 53.12.112 19.034 1.5 50.467 16.978 46.428 15.478-4.039 38.462-20.861 38.994-39.644 0 0 7.538 35.005-.958 46.171-8.496 11.166 15.235 16.201 23.4-13.206s20.477-32.275 20.477-32.275-13.028 26.344-8.603 34.691c4.425 8.348 26.569-9.159 26.009-12.581 0 0-2.568 26.008-27.009 41.967-9.735 6.357-25.252 44.024 9.907 31.108 11.82-4.342 15.337-14.692 15.337-14.692s-3.097 37.398-55.183 28.787c0 0 12.608 13.323 24.125 12.639 0 0-8.891 6.044-30.842 4.226a7863.19 7863.19 0 0 1-34.753-2.943z"/><path fill="#FFE016" d="M887.665 752.659c-7.678-.968-19.416-3.296-26.756-15.569 0 0 13.938-2.325 13.576-15.248-.363-12.923-8.394-19.727-4.456-35.159 0 0 2.983 12.935 10.183 11.485 7.2-1.45-.448-17.841 14.536-28.265 0 0-9.237 20.109 6.551 24.691 15.788 4.582 34.317-1.701 38.044-12.116 0 0 4.711 24.661-11.401 31.41-16.112 6.749-9.69 13.216-5.15 15.229 4.541 2.013 13.126-.346 13.126-.346s-11.14 8.492-21.912 7.6c-10.772-.892.837 14.599 11.659 12.426 0-.001-3.815 8.171-38 3.862z"/><path fill="#FAAF3A" d="M802.703 619.304c-29.083-12.078-24.237-24.262-24.237-24.262s-12.924 25.231 13.316 31.953c22.094 5.66 30.427 31.068 30.427 31.068s9.577-26.681-19.506-38.759zM905.404 551.303c-16.604-26.758-5.567-33.839-5.567-33.839s-25.202 12.98-7.789 33.729c14.661 17.47 6.634 42.976 6.634 42.976s23.326-16.108 6.722-42.866zM1020.541 660.587c8.234-30.396 20.94-27.158 20.94-27.158s-26.684-9.569-29.973 17.319c-2.769 22.638-26.893 34.172-26.893 34.172s27.692 6.063 35.926-24.333zM808.544 665.947c.203-.151-.157-8.761-12.16-9.193-12.003-.432-11.108-3.488-11.108-3.488s8.209 23.954 23.268 12.681zM836.296 559.207c.251.034 6.033-6.355-2.219-15.082s-5.47-10.277-5.47-10.277-10.951 22.831 7.689 25.359zM956.373 575.792c.146.207 8.762.091 9.534-11.895.773-11.986 3.802-11.004 3.802-11.004s-24.178 7.526-13.336 22.899zM988.438 732.598c-.007.265 7.329 6.013 15.504-3.084s10.112-6.255 10.112-6.255-25.106-10.348-25.616 9.339z"/><path fill="#CECECE" d="M420.802 250.695c3.424-5.036 7.897-9.544 9.77-15.338 3.567-11.033-5.419-24.216-16.992-24.929-13.109-.807-27.612 11.321-37.908 3.166-7.796-6.174-5.174-18.529-.999-27.555 4.175-9.026 9.186-19.713 4.144-28.285-6.306-10.72-22.993-8.44-33.009-1.067-5.928 4.363-12.188 10.327-19.415 8.928-10.481-2.03-12.196-16.914-20.772-23.272-9.51-7.049-24.323.009-28.709 11.004-4.386 10.995-1.078 23.563 3.949 34.28 5.027 10.717 11.778 20.777 14.659 32.258 1.57 6.257 1.365 14.078-3.974 17.697-3.243 2.198-7.433 2.158-11.328 2.58-8.072.876-16.345 4.532-20.442 11.542-4.098 7.01-2.278 17.573 5.049 21.072 4.28 2.044 9.278 1.413 14.021 1.427 10.073.03 20.113 3.278 28.294 9.154 5.649 4.057 10.775 11.206 7.855 17.518-1.321 2.854-4.033 4.813-5.712 7.473-4.68 7.416.744 18.006 8.876 21.288 8.132 3.281 17.464 1.062 25.457-2.547 7.993-3.609 15.418-8.576 23.823-11.077 14.21-4.228 30.508-.528 41.5 9.42l16.864-16.718c-14.68-13.295-18.826-37.686-5.001-58.019z"/><path fill="#E6E6E6" d="M401.498 258.581c.195-4.231.651-12.403 1.954-16.433 2.481-7.674-3.769-16.843-11.819-17.339-9.118-.562-19.205 7.874-26.366 2.202-5.422-4.294-3.599-12.887-.695-19.165 2.904-6.278 6.389-13.711 2.882-19.673-4.386-7.456-15.992-5.87-22.959-.742-4.123 3.035-8.477 7.183-13.503 6.209-7.29-1.412-8.482-11.764-14.448-16.186-6.614-4.903-16.917.006-19.968 7.654-3.051 7.647-.749 16.388 2.747 23.842 3.496 7.454 8.192 14.451 10.195 22.437 1.092 4.352.949 9.791-2.764 12.309-2.255 1.529-5.17 1.501-7.879 1.795-5.615.609-11.368 3.152-14.218 8.028-2.85 4.876-1.584 12.222 3.512 14.656 2.977 1.422 6.453.983 9.752.992a34.174 34.174 0 0 1 19.68 6.367c3.929 2.822 7.495 7.794 5.463 12.184-.919 1.985-2.805 3.348-3.973 5.198-3.255 5.158.517 12.524 6.174 14.806 5.656 2.282 12.147.739 17.706-1.772 5.559-2.51 15.867-6.123 21.966-6.031 13.71.208 34.317 11.361 41.962 18.28l11.217-10.594c-10.21-9.246-17.449-30.951-16.618-49.024z"/><path fill="#DB3324" d="m597.699 579.689-43.852 69.883s-141.49-49.595-194.043-174.008c0 0 91.123-44.802 148.522-36.969l89.373 141.094zM681.647 494.876l69.429-44.564s-51.04-140.975-175.987-192.25c0 0-43.866 91.577-35.445 148.892l142.003 87.922z"/><path fill="#FFF" d="M561.034 638.142c-39.325-42.785-85.575-104.005-131.276-189.472l-.001-.032c-11.137-20.786-22.217-43.016-33.162-66.77l88.385-89.295c23.11 10.368 44.825 20.887 65.161 31.444 87.472 45.425 149.984 91.73 193.541 131.047 65.899 59.452 88.44 102.884 88.44 102.884l-166.61 168.325c.001 0-43.998-22.27-104.478-88.131z"/><path fill="#DB3324" d="m363.702 359.471 98.516-99.53 22.753 32.633-88.405 89.315z"/><path fill="#CECECE" d="M561.034 638.142c-15.833-17.235-32.804-37.479-50.418-61.07-1.533-2.061-3.084-4.17-4.634-6.278a1137.322 1137.322 0 0 1-8.865-12.317c-1.487-2.109-2.988-4.234-4.491-6.422-20.595-29.669-41.79-63.953-62.869-103.385l-.001-.032c.778-1.751 36.559-84.316 120.384-124.621 40.578 21.085 75.785 42.342 106.225 62.998l.016.016c2.156 1.465 4.247 2.896 6.356 4.345 4.231 2.945 8.368 5.857 12.423 8.755a468.39 468.39 0 0 1 6.195 4.506c24.125 17.593 44.767 34.579 62.325 50.427.003-.001-117.519 57.328-182.646 183.078z"/><path fill="#FFF" d="M510.616 577.072c-1.533-2.061-3.084-4.17-4.634-6.278 18.08-38.863 42.641-70.704 67.7-96.021 41.648-42.077 84.688-66.156 101.48-74.643a468.39 468.39 0 0 1 6.195 4.506c-20.904 10.16-121.866 63.781-170.741 172.436z"/><path fill="#FFF" d="M497.118 558.477c-1.487-2.109-2.988-4.234-4.491-6.422 17.911-37.178 41.677-67.764 65.923-92.259 38.905-39.306 79.012-62.904 97.817-72.781l.016.016c2.156 1.465 4.247 2.896 6.356 4.345-26.499 13.459-118.505 65.927-165.621 167.101z"/><path fill="#DB3324" d="M847.415 739.342c69.677-98.056-14.926-181.764-14.926-181.764l-166.981 168.7s84.571 83.741 181.907 13.064zM667.574 626.458c-18.067-17.883-18.217-47.026-.334-65.092 17.883-18.067 47.026-18.217 65.093-.333 18.066 17.882 18.216 47.026.333 65.093-17.882 18.066-47.025 18.214-65.092.332z"/><path fill="#B0DBE8" d="M679.468 614.445c-11.434-11.318-11.529-29.754-.212-41.188 3.353-3.388 7.327-5.782 11.574-7.164 10.05-3.308 21.56-1.002 29.606 6.962 11.425 11.308 11.519 29.745.21 41.171-9.11 9.204-22.825 11.058-33.787 5.536l-.009-.008a28.673 28.673 0 0 1-7.382-5.309z"/><path fill="#FFF" d="M693.808 607.776a5.507 5.507 0 1 1 7.748-7.829 5.507 5.507 0 0 1-7.748 7.829z"/><circle cx="693.724" cy="591.294" r="3.32" fill="#FFF"/><circle cx="730.987" cy="477.288" r="4.202" fill="#DB3324"/><circle cx="699.906" cy="496.068" r="4.202" fill="#DB3324"/><circle cx="672.047" cy="518.038" r="4.202" fill="#DB3324"/><circle cx="645.325" cy="541.134" r="4.202" fill="#DB3324"/><circle cx="622.504" cy="568.091" r="4.202" fill="#DB3324"/><circle cx="600.821" cy="596.173" r="4.202" fill="#DB3324"/><path fill="#DB3324" d="M579.405 630.431a4.2 4.2 0 1 1 5.911-5.971 4.201 4.201 0 1 1-5.911 5.971z"/><path fill="#FAAF3A" d="M710.809 763.9s14.172 2.082 17.675-11.128c3.573-13.473 6.849-17.675 15.245-22.425 0 0-14.424-6.96-19.774 5.081-3.58 8.057-5.745-9.943 1.326-19.774 7.07-9.832 12.373-25.408 7.181-33.141 0 0-.773 9.28-3.867 12.262-3.093 2.983 8.506-9.611-1.326-19.443s-12.621-30.256-12.621-30.256-11.6 13.431-9.249 34.16c1.121 9.884 9.663 29.044 2.538 33.435-9.855 6.073-29.026-40.929-17.648-55.843 0 0-22.785 18.014-15.162 31.902 7.622 13.888 7.595 22.726 3.176 22.726s-.902-40.332-27.259-41.427c0 0 4.861 10.999 3.204 18.701-1.657 7.702 5.717 15.818 5.717 15.818-6.96-.659-11.055-7.234-9.694-11.761 0 0-9.943 4.419-2.651 18.559 7.291 14.14 14.361 21.763 13.588 28.612-.773 6.849-13.257-12.815-13.257-12.815s-3.425 2.983-.11 14.914c3.314 11.931 16.791 13.477 16.791 13.477s-13.477 1.878-15.687-2.762c0 0 1.989 11.872 25.574 11.128h36.29z"/><path fill="#FA8900" d="M701.059 764.02s16.35 1.014 19.332-7.934c2.983-8.948 8.065-13.588 8.065-13.588s-4.971-1.215-12.262 5.082 0-36.124 11.82-42.089c0 0-7.595.898-8.479 2.334-.884 1.436 15.263-11.889-7.521-42.794 0 0 5.44 19.085 4.538 29.247-.911 10.27-3.066 27.176-11.241 24.303-8.175-2.872-19.83-12.98-19.277-23.144 0 0-5.634 18.559-1.547 24.966 4.087 6.407-8.948 8.064-12.041-8.175s-9.611-18.338-9.611-18.338 5.855 14.803 3.093 19.111c-2.762 4.308-13.933-6.132-13.477-7.954 0 0 .224 14.154 12.704 23.862 4.971 3.867 11.663 24.894-6.739 16.35-6.187-2.872-7.623-8.617-7.623-8.617s0 20.327 28.501 18.007c0 0-7.401 6.628-13.588 5.745 0 0 4.529 3.66 16.46 3.66s18.893-.034 18.893-.034z"/><path fill="#FFE016" d="M696.875 764.289c4.188-.179 10.628-.911 15.139-7.208 0 0-7.42-1.878-6.647-8.838.773-6.96 5.413-10.274 3.977-18.78 0 0-2.189 6.849-6.01 5.744-3.822-1.105 1.039-9.611-6.583-15.908 0 0 4.087 11.268-4.64 13.036-8.727 1.768-18.449-2.452-19.995-8.241 0 0-3.646 13.102 4.75 17.465 8.396 4.364 4.64 7.567 2.099 8.451-2.541.884-7.07-.773-7.07-.773s5.634 5.082 11.489 5.082-1.105 7.843-6.849 6.186c0 0 1.694 4.582 20.34 3.784z"/><path fill="#FAAF3A" d="M748.7 696.1c16.239-5.22 14.168-12.013 14.168-12.013s5.849 14.198-8.617 16.653c-12.18 2.068-17.813 15.411-17.813 15.411S732.461 701.32 748.7 696.1zM696.301 654.802c10.159-13.702 4.518-18.018 4.518-18.018s13.024 8.133 2.697 18.556c-8.695 8.775-5.502 22.902-5.502 22.902s-11.872-9.738-1.713-23.44zM629.263 708.648c-3.086-16.776-10.09-15.596-10.09-15.596s14.832-3.973 15.406 10.689c.483 12.344 12.989 19.649 12.989 19.649s-15.219 2.034-18.305-14.742zM743.462 721.018c-.103-.091.477-4.722 6.975-4.419 6.499.303 6.152-1.386 6.152-1.386s-5.502 12.563-13.127 5.805zM733.253 662.157c-.137.007-2.973-3.7 1.872-8.042s3.412-5.303 3.412-5.303 4.891 12.814-5.284 13.345zM667.692 665.743c-.088.105-4.734-.342-4.615-6.847.119-6.505-1.56-6.11-1.56-6.11s12.715 5.143 6.175 12.957zM643.374 748.955c-.008.143-4.225 2.918-8.231-2.358s-5.179-3.829-5.179-3.829 14.014-4.463 13.41 6.187z"/><path fill="#CECECE" d="M1092.82 773.955c0-19.274-15.625-34.899-34.899-34.899-13.031 0-24.386 7.147-30.38 17.731-4.833-6.076-12.285-9.976-20.652-9.976-8.04 0-15.234 3.601-20.073 9.272-5.646-7.954-14.923-13.15-25.42-13.15-9.03 0-17.159 3.845-22.85 9.983-4.078-9.3-13.361-15.799-24.167-15.799a26.261 26.261 0 0 0-16.368 5.699c-5.734-11.425-17.548-19.271-31.203-19.271-15.519 0-28.666 10.133-33.202 24.142a26.265 26.265 0 0 0-10.837-2.33c-8.469 0-16.001 3.995-20.828 10.199-5.148-10.118-15.651-17.054-27.781-17.054-13.12 0-24.338 8.112-28.932 19.591a26.257 26.257 0 0 0-13.653-3.804c-8.161 0-15.455 3.707-20.294 9.527-5.934-10.795-17.411-18.113-30.6-18.113-11.961 0-22.512 6.02-28.801 15.192-4.421-8.374-13.212-14.084-23.34-14.084-10.663 0-19.841 6.33-24.001 15.433a31.034 31.034 0 0 0-19.83-7.124c-12.189 0-22.737 7.003-27.857 17.201-5.706-11.505-17.565-19.417-31.277-19.417-19.274 0-34.899 15.625-34.899 34.899 0 11.448 5.512 21.609 14.028 27.972 15.863 20.458 72.314 28.421 120.305 19.113 91.402-17.726 150.6-19.527 263.403-9.14 129.347 11.91 191.315-11.498 197.76-31.263.008-.026.009-.049.016-.075a34.718 34.718 0 0 0 6.632-20.455z"/><path fill="#EEFBFF" d="M1092.82 794.398c0-19.274-15.625-34.899-34.899-34.899-13.031 0-24.386 7.147-30.38 17.731-4.833-6.076-12.285-9.976-20.652-9.976-8.04 0-15.234 3.601-20.073 9.272-5.646-7.954-14.923-13.15-25.42-13.15-9.03 0-17.159 3.845-22.85 9.983-4.078-9.3-13.361-15.799-24.167-15.799a26.261 26.261 0 0 0-16.368 5.699c-5.734-11.425-17.548-19.271-31.203-19.271-15.519 0-28.666 10.133-33.202 24.142a26.265 26.265 0 0 0-10.837-2.33c-8.469 0-16.001 3.995-20.828 10.199-5.148-10.118-15.651-17.054-27.781-17.054-13.12 0-24.338 8.112-28.932 19.591a26.257 26.257 0 0 0-13.653-3.804c-8.161 0-15.455 3.707-20.294 9.527-5.934-10.795-17.411-18.113-30.6-18.113-11.961 0-22.512 6.02-28.801 15.192-4.421-8.374-13.212-14.084-23.34-14.084-10.663 0-19.841 6.329-24.001 15.433a31.034 31.034 0 0 0-19.83-7.124c-12.189 0-22.737 7.003-27.857 17.201-5.706-11.505-17.565-19.417-31.277-19.417-19.274 0-34.899 15.625-34.899 34.899 0 11.448 5.512 21.609 14.028 27.972 15.863 20.458 72.314 28.421 120.305 19.113 91.402-17.726 150.6-19.527 263.403-9.14 129.347 11.91 191.315-11.498 197.76-31.263.008-.026.009-.049.016-.075a34.723 34.723 0 0 0 6.632-20.455z"/><path fill="#303A47" d="m433.12 808.301-2.592 10.462a25.638 25.638 0 0 0-.59 9.06l1.26 11.694 4.293-.052-.412-7.403c.181-1.915 2.585-2.659 3.815-1.18l4.025 4.839c1.166 2.171 3.282 3.693 5.722 4.033 7.449 1.038 22 1.428 22.651-3.456.669-5.021-14.124-6.377-18.195-11.944-3.942-5.391-5.95-16.053-5.95-16.053-3.355 1.652-8.501 1.063-14.027 0z"/><path fill="#FDC5AE" d="M510.202 456.461c.048 17.274-45.14 35.699-53.001 38.773-.752.295-1.161.447-1.161.447l-1.076-7.757-3.959-28.647 30.16-6.843c-11.164-4.902-22.898-15.151-35.09-27.448a540.253 540.253 0 0 1-8.48-8.756c-6.643 1.075-18.064-4.854-13.191-14.657 5.472-11.021 16.065-.352 18.758 6.919 1.961 1.171 5.234 2.579 9.308 4.245 19.587 7.996 57.675 21.939 57.732 43.724z"/><path fill="#303A47" d="M397.708 426.396c.517-5.823.096-9.807 2.312-16.87 3.069-9.783 7.335-13.441 15.683-16.379 8.553-3.01 20.497-1.763 26.261 7.374 4.909 7.783 3.246 18.118 5.552 27.026 2.603 10.057.145 20.132 11.778 35.366 4.98 6.522-26.786 3.117-33.999 2.493l-12.256.415c-9.669-.067-25.221 24.096-32.96 10.802-11.288-19.389 15.925-31.022 17.629-50.227z"/><path fill="#DEAD99" d="M473.465 681.753a482.41 482.41 0 0 1-2.665 17.312c-6.062 35.309-15.112 66.611-23.658 109.239l-7.537 3.265-13.675 5.91c10.354-46.225 7.223-84.836 1.171-118.413a3147.17 3147.17 0 0 0-.714-3.864c-.857-4.587-1.78-9.06-2.693-13.448-10.411-48.89-23.315-86.997-.714-123.648h38.561c16.378 43.787 17.406 83.503 11.924 123.647z"/><path fill="#FDC5AE" d="M439.605 811.568c-.314 1.599-.647 3.198-.98 4.815-5.777 5.51-12.695 1.094-12.695 1.094 2.132-50.479-5.367-87.958-14.417-118.413-1.78-6.034-3.635-11.782-5.481-17.312-16.207-48.319-32.318-79.146-6.481-123.648h40.826c-5.967 45.273 4.996 86.159 7.699 140.96 1.56 31.664.361 67.991-8.471 112.504z"/><path fill="#303A47" d="M473.465 681.753a482.41 482.41 0 0 1-2.665 17.312c-14.122-4.227-35.361-1.646-59.288 0-15.072-51.838-41.634-92.465-11.962-140.96h61.99c16.379 43.788 17.407 83.504 11.925 123.648z"/><path fill="#FFF" d="M461.55 558.105h-61.995s6.453-20.71 7.081-31.026c1.151-18.33-2.551-20.91-2.551-20.91l-11.551-38.373 24.714-11.344.076-.438 1.066-6.396.752-4.502.685-4.016h10.012l.685 5.967.286 2.551.723 6.396.048.438 19.415 2.836s20.395 20.043 7.204 45.854c-12.877 25.144 3.35 52.963 3.35 52.963z"/><path fill="#FDC5AE" d="M431.532 456.013h-14.209l1.066-6.395.752-4.502.685-4.016h10.012l.685 5.967.286 2.551zM396.039 618.967c-12.847 5.51-24.724-12.896-18.719-21.404 0 0-2.332-3.874-5.52-9.717-7.575-13.905-19.975-38.992-17.225-49.699 4.92-19.158 36.621-71.117 36.621-71.117l12.884 39.149c-9.802 17.731-16.882 25.164-28.958 38.307 6.052 18.463 5.386 25.858 8.412 41.609.447 2.332.971 4.854 1.618 7.614 4.663 2.379 2.569 10.573 4.263 15.408 1.523 4.35 12.02 7.538 6.624 9.85z"/><path fill="#3B4856" d="m426.22 808.301-2.593 10.462a25.638 25.638 0 0 0-.59 9.06l1.26 11.694 4.293-.052-.412-7.403c.18-1.915 2.585-2.659 3.815-1.18l4.025 4.839c1.167 2.171 3.283 3.693 5.722 4.033 7.449 1.038 22 1.428 22.651-3.456.669-5.021-13.45-5.374-17.52-10.941-3.942-5.392-6.624-17.056-6.624-17.056-4.424 1.8-9.124 1.625-14.027 0z"/><path fill="#FDC5AE" d="M435.228 441.724c-7.523 7.061-20.009 4.916-23.466-10.526-5.77-2.295-6.563-6.949-5.134-8.963 2.619-3.694 7.346.626 7.346.626 6.219-.031 16.434-4.675 22.298-18.594 0 0 3.777 10.925 4.341 21.421.385 7.096-1.401 12.297-5.385 16.036z"/><path fill="#70C5F9" d="M510.198 456.459c.01 3.568-1.878 7.419-4.967 11.29-9.839 12.365-31.793 24.99-42.592 29.539-7.293 12.662-9.065 41.039 2.149 63.01.697 1.366-.43 3.029-1.767 3.781-15.926 8.953-38.8 10.8-57.363 3.912a56.49 56.49 0 0 1-8.73-4.087c-.827-.48-1.51-1.518-1.086-2.375 6.605-13.356 8.51-29.892 2.303-43.873-10.121 15.119-9.579 12.218-21.495 25.188 4.591 17.498 5.395 25.908 8.421 41.654-3.016 1.555-8.973 3.61-13.773 5.04-7.575-13.909-18.646-42.008-16.726-52.902 3.746-21.15 25.049-62.491 36.322-70.525 5.76-4.105 26.43-10.098 26.43-10.098-1.117 8.18 3.037 22.098 10.983 30.355 4.511-9.458 6.18-23.629 3.226-30.355l19.462 3.274 30.165-6.855c-11.154-4.894-22.893-15.151-35.08-27.442l6.386-12.25c19.595 7.993 57.68 21.933 57.732 43.719z"/><path fill="#445775" d="M431.776 495.874a2.664 2.664 0 1 0-5.327 0 2.664 2.664 0 0 0 5.327 0zM432.815 512.285a2.664 2.664 0 1 0-5.327 0 2.664 2.664 0 0 0 5.327 0zM433.854 528.696a2.664 2.664 0 1 0-5.327 0 2.664 2.664 0 0 0 5.327 0zM434.892 545.106a2.664 2.664 0 1 0-5.327 0 2.664 2.664 0 0 0 5.327 0zM435.931 561.517a2.664 2.664 0 1 0-5.327 0 2.664 2.664 0 0 0 5.327 0z"/><path fill="#E6E6E6" d="M505.231 467.749c-9.839 12.365-31.793 24.99-42.592 29.539 0 0 .908-11.593-4.372-21.766 11.573 18.357 31.015 3.608 46.964-7.773zM407.598 505.26c-1.254 28.962 4.8 41.589-1.941 62.731a56.49 56.49 0 0 1-8.73-4.087c-.827-.48-1.509-1.518-1.086-2.375 6.182-12.511 8.79-28.685 2.303-43.873l9.454-12.396z"/><path fill="#FDC5AE" d="M981.936 502.472c-42.1-9.279-57.34-28.806-57.022-35.522.796-16.826 33.237-38.015 57.494-50.236 0 0 11.653-21.79 20.379-19.84 5.123 1.155-8.76 15.24-7.819 20.954 16.882-2.05-5.553 7.368-5.553 7.368-20.774 22.809-27.005 29.29-36.145 36.145 4.986 1.523 16.203 2.077 30.467 4.155l-1.801 36.976zM995.544 695.24c4.698 37.051-2.002 78.747-12.541 113.591l3.802 18.613h-59.192l43.458-21.491c-15.258-106.872-19.816-134.649 20.836-241.321h46.936c17.267 65.158-15.577 76.353-43.299 130.608z"/><path fill="#303A47" d="M1025.563 647.875c-8.844 13.175-18.218 27.125-28.463 47.164 1.293 10.402 8.102 38.43-8.725 100.126l-19.942-1.454c-7.478-33.445-11.841-72.29-11.066-106.392.719-31.652 26.562-116.88 28.515-122.398l3.299-.211.026-.078h49.635c10.905 41.106 1.85 60.722-13.279 83.243z"/><path fill="#FDC5AE" d="m1062.831 822.757 29.95-34.717c.147-.01-35.502-54.869-51.404-70.967-24.368-25.24-37.094-152.443-37.094-152.443h40.289c31.585 29.034 23.63 69.012 24.562 108.505.022 16.713 7.492 31.722 16.334 45.495 12.159 17.689 16.531 60.11 25.958 89.96l-48.595 14.167z"/><path fill="#303A47" d="m1104.705 773.976-19.319 6.647c-4.224-5.464-40.469-52.641-48.748-63.912-20.769-28.276-35.364-152.583-35.364-152.583l41.582.475 5.138.027c30.529 28.063 20.697 66.35 21.075 104.54.154 15.585 3.853 26.767 14.698 43.149 1.263 1.908 18.237 31.329 20.938 61.657zM971.071 805.953c-19.043 6.558-41.567 4.578-43.458 21.491h59.192c.946-7.163 0-14.327-2.837-21.491h-12.897zM1092.781 788.041c-15.049 13.384-37.564 22.819-32.799 39.157l54.631-18.263c-1.885-6.975-4.412-18.175-9.789-23.695l-12.043 2.801z"/><path fill="#FDC5AE" d="M1036.841 491.609s24.554 3.338 42.231 1.345c4.215-.495 8.016-1.278 11.022-2.475 20.802-8.307 53.738-47.626 53.738-47.626 19.745-6.526 22.622-19.329 21.541-26.123-1.986-12.102-14.631 13.337-20.554 10.449 0 0 2.962-6.701.192-6.611-5.585.182-10.005 13.549-10.005 13.549-20.259 13.921-33.413 22.608-52.869 29.736-2.602-.553-5.203-1.104-7.819-1.599-18.856-3.485-38.139-4.712-57.805.767 1.306 14.45 9.365 22.844 20.328 28.588z"/><path fill="#FC8181" d="m1082.062 462.865 50.548-27.559 9.14 10.94s-31.853 38.082-49.994 47.501c-14.403 7.478-49.855 8.586-49.855 8.586s-26.02-18.539-26.386-36.447c-.031-1.499.049-3.114.523-5.376.582-2.931 7.665-8.716 7.859-8.739 13.9-1.486 46.551 8.939 58.165 11.094z"/><path fill="#303A47" d="M996.838 416.085s-7.008-6.728-7.874-14.682c-.42-3.857 1.467-8.552 3.081-7.781 3.047 1.454 7.12 2.383 9.936.623 5.529-3.455 15.947-7.401 22.238 3.07.476.792 1.289 1.308 2.195 1.49 1.499.303 3.936 1.291 6.201 4.417 3.745 5.167 6.891 17.437-8.295 27.144-1.05.672-5.585 2.05-6.656 1.409l-20.826-15.69z"/><path fill="#FC8181" d="M998.448 506.635s-6.656 2.069-16.512-.285c-24.928-5.955-59.414-23.486-58.788-41.269.656-18.638 56.157-47.778 56.157-47.778l8.171 11.356-31.021 32.268c12.221-.554 23.404-2.77 32.683-4.639l9.31 50.347z"/><path fill="#FC8181" d="M1052.342 500.939c-5.456 44.603 12.347 73.123 15.594 90.857 0 0-20.625 4.48-50.686 5.816-20.4.907-42.1-1.108-42.1-1.108 8.863-35.176 10.025-65.755 6.164-85.256-4.086-20.644-5.002-49.118-5.002-49.118s11.273-7.411 25.961-8.849l20.697-1.503c20.115 3.236 33.374 15.116 38.963 23.143 1.578 2.263-6.599 14.395-9.591 26.018z"/><path fill="#FDC5AE" d="M1022.768 453.017c-5.921 6.154-11.842 7.26-17.704.155l.698-12.618c.117.31 1.792 2.649 5.286 2.3 3.669-.388 7.681-2.572 8.632-1.232.778 1.087 2.506 8.774 3.088 11.395z"/><path fill="#F7AD94" d="M1023.894 451.794c-.369.427-.757.835-1.126 1.223-.582-2.621-2.31-10.308-3.087-11.395-.951-1.34-4.963.844-8.632 1.232-3.495.349-5.17-1.99-5.286-2.3v-.02l.039-.524.291-5.532 14.967-.991.524 3.378 2.31 14.929z"/><path fill="#FDC5AE" d="M996.267 421.425c.852 8.16 3.037 17.267 8.398 18.722 13.416 3.641 19.087-9.469 20.728-16.233 3.074-1.107 8.437-6.423 5.355-10.484-2.633-3.495-6.463 1.267-6.463 1.267s-2.258-8.266-9.898-9.182c-7.472-.896-5.517 4.101-15.332.172-1.296-.519-2.66.713-2.838 2.097-.4 3.15-.501 8.315.05 13.641z"/><path fill="#303A47" d="m1008.318 458.632 10.525-.138s-3.808 9.383-5.228 9.417c-1.285.031-4.432-5.54-5.297-9.279z"/><path fill="#FFF" d="m1031.708 451.883-1.825 1.401-13.513 10.394-.671-1.118-2.295-3.767-3.072 4.767-11.748-9.782c1.201-.2 2.425-.377 3.684-.494l3.108-.224 8.063 4.544 10.218-5.709h.012l.106-.047.118-.071c2.189-.236 4.849-.177 7.815.106z"/><path fill="#303A47" d="m1017.839 541.941-3.774 10.248-4.743-10.248 2.25-76.653h4.016z"/><path fill="#379B88" d="M203.15 705.586c2.071-12.358 16.93-.897 21.078 4.62a176.373 176.373 0 0 1-5.104-18.83c-33.469 4.203-23.104-27.991-.396-1.916-1.574-7.825-2.599-15.766-2.926-23.736-33.154-1.258-18.283-31.013-.077-2.325-.212-8.58.349-17.508 3.427-25.556-33.72-6.424-12.985-33.57.526-1.363 3.599-9.057 8.884-17.488 12.166-26.654-34.236-6.28-13.209-33.894.381-1.069 2.496-7.025 3.215-14.635 1.667-21.996-35.016 3.243-22.189-29.611-.193-.928-1.743-7.94-5.617-15.525-10.7-21.631-32.648-.373-18.502-29.451.465-2.504 5.797 6.044 9.529 14.007 11.794 22.03 6.377-33.809 31.275-11.638.554 2.238 1.88 7.623 1.073 15.737-1.479 23.046 21.078-27.942 33.891 3.601-.642 1.834-3.465 9.481-8.948 18.106-12.464 27.508 20.173-29.782 36.302 2.002-.233.63-2.904 7.946-3.345 16.591-3.176 24.985 16.336-30.281 33.792-1.732.068 2.046.321 7.786 1.376 15.557 2.926 23.193 8.641-34.012 33.389-10.144.298 1.433 1.38 6.557 3.108 13.043 5.253 19.407 8.894-33.354 32.892-9.696.588 1.709 2.142 6.108 4.681 12.074 7.691 17.794-1.339 6.879-8.845-15.25-9.64-17.083-7.087.818-18.457.454-21.852-6.882z"/><path fill="#CCC" d="M208.436 680.786c2.731 1.611 5.837 4.194 9.219 8.079-.05-.251-.095-.504-.145-.755-3.354-3.619-6.414-5.953-9.074-7.324zM232.626 585.237c-.081-.367-.189-.729-.278-1.095-3.663-4.44-7.039-7.173-9.941-8.666 3.017 1.8 6.485 4.892 10.219 9.761zM207.224 633.692c2.612 1.548 6.131 2.924 10.728 3.905.043-.116.082-.233.126-.349-4.569-.871-8.131-2.123-10.854-3.556zM219.739 688.613c.179-.706.368-1.378.561-2.035-1.269-6.788-2.131-13.669-2.415-20.564 20.268-2.271 22.047-13.483 16.696-15.5 3.911 3.042.991 12.804-17.768 14.905.321 7.787 1.376 15.557 2.926 23.194zM208.493 621.858c3.219 2.002 6.873 6.306 10.111 14.027.126-.318.269-.629.399-.945-3.437-7.577-7.262-11.52-10.51-13.082zM214.757 665.669c-.008-.18-.021-.36-.028-.541-6.069-.23-10.523-1.417-13.648-3.025 2.981 1.806 7.433 3.205 13.676 3.566zM216.745 663.373c.348-.644.696-1.252 1.044-1.844-.031-7.62.581-15.368 3.204-22.547 22.302.837 24.979-10.678 19.093-13.005 4.358 3.237.626 13.19-20.165 12.41-2.903 7.946-3.344 16.592-3.176 24.986zM234.74 585.371c1.88 7.623 1.073 15.736-1.479 23.045a56.916 56.916 0 0 1 2.043-2.554c1.75-6.448 2.121-13.352.507-19.896 17.218-7.778 16.963-18.159 12.292-19.83 3.52 2.794 2.416 12.107-13.363 19.235zM214.056 701.755c3.761 2.209 7.367 5.549 9.1 7.856-.117-.354-.222-.711-.337-1.065-2.164-2.324-5.466-5.067-8.763-6.791zM230.633 609.587c.044-.12.095-.236.138-.356-4.728-.868-8.398-2.143-11.183-3.608 2.668 1.582 6.291 2.984 11.045 3.964zM252.496 597.778c4.283 3.238.232 13.501-19.877 12.472-3.464 9.481-8.948 18.106-12.464 27.508a53.8 53.8 0 0 1 2.955-3.971c3.389-7.684 7.684-15.016 10.58-22.942 21.586 1.105 24.673-10.804 18.806-13.067zM220.9 593.817c3.264 2.032 6.974 6.426 10.252 14.345.127-.357.228-.72.346-1.08-3.464-7.694-7.324-11.688-10.598-13.265zM223.928 711.873c-4.856.56-11.724.564-16.658-1.851 4.722 2.85 11.753 3.033 16.923 2.527a17.53 17.53 0 0 0-.265-.676zM222.392 561.102c5.797 6.045 9.529 14.007 11.794 22.03.113-.598.233-1.174.357-1.738-2.307-7.218-5.846-14.24-11.08-19.697-3.858-5.481-7.516-8.643-10.622-10.202 2.863 1.712 6.127 4.743 9.551 9.607zM240.649 693.182c3.594 2.829 2.008 12.056-14.772 17.979 2.142 6.108 4.681 12.074 7.691 17.794-.157.808-.402 1.203-.708 1.29.818.923 1.467.908 1.78-.695-3.011-5.72-5.549-11.686-7.691-17.794 18.267-6.449 18.528-16.814 13.7-18.574zM232.935 586.835c-.042-.222-.068-.448-.115-.67-7.685.711-13.065-.316-16.55-2.05 3.281 2.002 8.672 3.325 16.665 2.72zM214.652 662.803c-.009-.35-.014-.702-.02-1.054-3.596-5.254-7.024-8.266-9.932-9.708 2.97 1.793 6.396 5.159 9.952 10.762zM221.108 690.641c18.65-6.525 18.927-16.953 14.071-18.723 3.618 2.841 1.997 12.131-15.143 18.128 1.38 6.558 3.108 13.043 5.253 19.407.134-.502.272-.99.412-1.468a172.965 172.965 0 0 1-4.593-17.344z"/><path fill="#CCC" d="M208.019 560.821c3.017 1.835 7.68 3.21 14.362 3.364-.154-.19-.298-.392-.454-.579-6.259-.072-10.793-1.199-13.908-2.785zM218.211 691.477c-.051-.233-.109-.464-.159-.697-7.668.963-13.029.013-16.474-1.706 3.236 2.007 8.628 3.27 16.633 2.403z"/><path fill="#379B88" d="M228.167 761.089c4.212-11.181 16.004 2.278 18.869 8.204a168.435 168.435 0 0 1-1.308-18.557c-32.087-2.23-16.461-30.442-.018-1.866-.032-7.611.472-15.229 1.633-22.745-30.786-7.282-11.395-32.381.356-2.19 1.382-8.066 3.55-16.316 7.911-23.279-30.365-12.219-5.966-33.797.743-1.178 5.035-7.81 11.532-14.726 16.29-22.697-30.874-12.18-6.117-34.142.554-.93 3.629-6.113 5.703-13.1 5.61-20.272-33.357-3.415-15.306-31.788-.01-.904-.169-7.75-2.396-15.559-6.027-22.208-30.327-6.184-11.824-30.96.896-2.257 4.311 6.723 6.337 14.859 6.978 22.782 12.192-30.457 31.402-5.129.107 2.196.355 7.478-1.894 14.92-5.627 21.288 24.865-22.26 31.045 9.61-.939 1.597-4.987 8.232-11.706 15.292-16.726 23.44 24.356-24.148 33.595 8.558-.334.547-4.18 6.899-6.185 14.906-7.572 22.791 20.779-25.311 31.753 4.735-.314 1.927-1.133 7.344-1.577 14.807-1.534 22.237 14.348-30.23 33.105-3.342.015 1.395.084 6.389.506 12.775 1.341 19.124 14.463-29.567 32.557-3.014.235 1.707.879 6.109 2.156 12.158 3.919 18.065-2.521 6.185-5.465-15.891-5.873-17.757-6.779-.538-17.35-2.972-19.175-10.46z"/><path fill="#CCC" d="M272.769 632.469c2.528 4.629 4.355 9.825 5.301 15.169a50.023 50.023 0 0 0-5.542-16.541c-10.494-2.14-15.138-6.505-16.202-10.111.185 3.795 4.574 9.062 16.443 11.483zM247.101 770.179c-6.433-.512-16.27-2.741-18.815-9.369-.039.096-.081.179-.119.278 1.824 7.487 12.392 9.922 19.17 10.462a37.25 37.25 0 0 0-.236-1.371zM259.974 644.645c.162 3.957 5.146 9.462 18.56 10.904.011-.441.038-.88.032-1.323l-.01-.019c-12.109-1.242-17.436-5.773-18.582-9.562zM245.527 750.718c-.011-.452-.033-.903-.04-1.355-11.927-.829-17.258-5.247-18.409-9.005.158 3.947 5.181 9.387 18.449 10.36zM280.403 651.622c.026-.066.053-.126.079-.191a62.331 62.331 0 0 0-.727-5.053c.285 1.747.507 3.5.648 5.244zM254.78 700.309c.199-.34.38-.69.589-1.024-9.456-3.806-13.6-8.518-14.622-12.219.28 3.744 3.993 9.005 14.033 13.243zM246.92 726.018c.061-.422.117-.845.182-1.266-10.568-2.5-15.223-7.099-16.304-10.841.238 3.871 4.54 9.263 16.122 12.107zM257.508 663.113c.285 3.771 4.053 9.074 14.255 13.308.21-.339.434-.668.639-1.011-9.643-3.805-13.859-8.563-14.894-12.297zM273.944 676.704c-4.987 8.232-11.706 15.292-16.726 23.44a52.538 52.538 0 0 1 2.963-2.723c4.559-6.499 9.87-12.523 14.003-19.346 16.971 4.252 23.196-2.726 21.587-6.887-.044 4.118-6.618 9.326-21.827 5.516zM297.501 640.919c.104 3.971-4.272 9.922-16.992 12.899.355 7.479-1.894 14.92-5.627 21.289a56.602 56.602 0 0 1 1.798-1.537c2.782-5.675 4.372-12.013 4.07-18.38 14.293-3.346 18.048-10.445 16.751-14.271zM258.046 700.949c-.196.189-.39.371-.588.568.127-.206.267-.405.397-.61-.322-.07-.641-.138-.972-.216-4.179 6.9-6.185 14.906-7.572 22.791.214-.261.425-.506.637-.755 1.375-7.187 3.371-14.384 7.175-20.663 17.471 4.125 23.495-2.546 21.904-6.691-.041 3.95-6.187 8.755-20.981 5.576zM248.28 777.187c1.159 6.75 3.152 16.493 4.934 12.121-.118-.394-.216-.793-.329-1.187-1.64 3.59-3.444-4.446-4.605-10.934zM249.055 769.872c.246 1.711.532 3.414.842 5.113a139.281 139.281 0 0 1-.602-3.741c15.054-2.199 19.168-9.132 17.81-12.926.065 3.906-4.67 9.6-18.05 11.554zM247.711 749.005a.054.054 0 0 1-.007.013v-.012c-.077.011-.148.025-.226.036.084 6.389.506 12.774 1.341 19.124l.067-.132a164.654 164.654 0 0 1-1.168-17.62c15.371-2.2 19.551-9.178 18.186-12.993.06 3.905-4.705 9.595-18.193 11.584zM248.998 725.409c-1.134 7.343-1.577 14.807-1.534 22.237.081-.171.163-.331.245-.499.037-6.811.491-13.639 1.529-20.367 16.192 1.418 21.405-5.538 19.929-9.518-.012 4.007-5.719 9.413-20.169 8.147z"/><path fill="#303A47" d="M271.177 730.403c-.34 4.376-6.109 77.846-6.644 84.662h-50.872c-.62-7.162-6.936-79.981-7.335-84.662h64.851z"/><path fill="#303A47" d="M269.908 730.406h-62.311c-4.181 0-7.571-2.749-7.571-6.141 0-3.391 3.39-6.14 7.571-6.14h62.311c4.181 0 7.571 2.749 7.571 6.14 0 3.391-3.39 6.141-7.571 6.141z"/><path fill="#CCC" d="m206.326 730.403 1.3 15.038c29.66-3.844 51.57 33.149 56.908 69.624 1.307-15.345 6.644-84.662 6.644-84.662h-64.852z"/><path fill="#F7BD5A" d="M230.932 625.127s-2.124-1.523-4.46-.702c.881-.835 1.209-2.67 1.064-4.307-.335.084-2.444.659-3.536 2.716.043-1.419-1.549-3.421-2.134-3.681 0 0-1.983 2.765-.204 5.45-.877-1.333-4.143-1.906-5.034-1.428 0 0 .504 1.935 2.18 3-.948.207-2.031 1.215-2.848 2.109.29.175 2.122 1.221 4.296.622-1.004.993-1.257 3.475-1.038 4.054 0 0 2.444-.407 3.557-2.489.01 1.175 1.074 2.63 2.272 3.647.18-.274 1.352-2.387.525-4.613.904.898 2.844 1.153 4.576.829-.106-.306-.787-2.126-2.64-3.1 1.397-.078 3.176-1.585 3.424-2.107zm-7.632 2.546v-.726c-.05.012-.148.04-.268.077.019-.026.054-.064.07-.087 0 0-.122-.087-.334-.206l.207-.018a6.068 6.068 0 0 0-.701-1.362c.246.26.693.672.949.94.036-.059.114-.2.203-.379.009.083.02.157.029.219 0 0 .41-.07.969-.291-.08.083-.543.543-.634.633.068.041.229.133.447.237-.174.028-.325.06-.435.087 0 0 .038.146.125.375-.083-.067-.176-.148-.238-.193.001.001-.184.262-.389.694z"/><path fill="#FFF" d="M224.685 626.464c.026 1.741-2.711 1.741-2.685 0-.025-1.741 2.71-1.741 2.685 0z"/><path fill="#F7BD5A" d="M242.408 589.507s-2.124-1.523-4.46-.703c.881-.834 1.209-2.67 1.064-4.307-.335.084-2.444.659-3.536 2.716.043-1.419-1.549-3.422-2.134-3.681 0 0-1.983 2.764-.204 5.45-.876-1.333-4.142-1.906-5.034-1.428 0 0 .504 1.935 2.181 3-.949.207-2.031 1.215-2.849 2.109.291.175 2.122 1.222 4.297.622-1.004.993-1.257 3.475-1.038 4.054 0 0 2.444-.407 3.557-2.488.01 1.174 1.074 2.63 2.272 3.646.181-.274 1.352-2.387.525-4.613.905.898 2.845 1.153 4.576.829-.106-.306-.787-2.125-2.64-3.1 1.397-.078 3.176-1.584 3.423-2.106zm-7.632 2.546v-.726c-.05.012-.148.04-.268.077.019-.026.054-.064.071-.087 0 0-.122-.087-.334-.207l.208-.018a6.022 6.022 0 0 0-.701-1.362c.246.26.693.671.949.94.036-.06.114-.2.203-.379.009.082.02.157.029.219 0 0 .411-.07.969-.291-.08.083-.543.543-.634.633.068.041.229.133.447.237-.174.029-.325.06-.435.087 0 0 .038.146.125.376-.083-.068-.176-.148-.238-.193-.001 0-.185.262-.391.694z"/><path fill="#FFF" d="M236.161 590.843c.025 1.742-2.711 1.741-2.685 0-.025-1.741 2.711-1.741 2.685 0z"/><path fill="#F7BD5A" d="M285.985 638.201s-2.276-1.284-4.51-.216c.785-.925.913-2.785.592-4.397-.324.12-2.358.92-3.221 3.083-.111-1.415-1.911-3.233-2.52-3.428 0 0-1.672 2.963.387 5.44-1.015-1.23-4.324-1.446-5.159-.874 0 0 .711 1.869 2.493 2.746-.92.309-1.888 1.428-2.603 2.405.308.142 2.242.984 4.339.153-.89 1.096-.873 3.591-.593 4.143 0 0 2.385-.669 3.267-2.859.137 1.167 1.352 2.498 2.654 3.379.149-.292 1.086-2.52.022-4.643.996.795 2.953.838 4.639.329-.138-.293-1.012-2.028-2.96-2.796 1.378-.229 2.984-1.919 3.173-2.465zm-7.312 3.357-.079-.721a6.02 6.02 0 0 0-.258.106c.016-.027.047-.07.061-.094 0 0-.131-.073-.354-.169l.204-.04a6.06 6.06 0 0 0-.844-1.278c.273.232.762.593 1.045.832.029-.063.092-.211.16-.399.018.081.036.154.052.214 0 0 .4-.114.932-.394-.07.092-.481.598-.561.698.072.033.241.107.47.187-.17.047-.317.095-.423.133 0 0 .054.141.165.36-.089-.058-.191-.128-.257-.166 0 0-.155.279-.313.731z"/><path fill="#FFF" d="M279.92 640.206c.214 1.728-2.506 2.025-2.669.291-.214-1.728 2.505-2.024 2.669-.291z"/><path fill="#F7BD5A" d="M275.755 681.703s-2.276-1.284-4.51-.216c.785-.925.913-2.785.592-4.397-.324.12-2.358.92-3.221 3.083-.111-1.415-1.911-3.233-2.52-3.428 0 0-1.672 2.963.387 5.44-1.016-1.23-4.324-1.446-5.159-.874 0 0 .711 1.869 2.493 2.746-.92.308-1.888 1.428-2.603 2.405.308.142 2.242.984 4.339.153-.89 1.096-.873 3.591-.593 4.143 0 0 2.386-.669 3.267-2.859.137 1.167 1.352 2.498 2.654 3.379.149-.292 1.086-2.52.022-4.643.996.795 2.953.838 4.64.329-.138-.293-1.012-2.028-2.96-2.796 1.377-.229 2.983-1.92 3.172-2.465zm-7.312 3.357-.079-.721a6.02 6.02 0 0 0-.258.106c.016-.027.047-.07.061-.094 0 0-.131-.073-.354-.169l.204-.04a6.06 6.06 0 0 0-.844-1.278c.273.232.762.593 1.045.832.029-.063.092-.211.16-.399.018.081.036.154.052.214 0 0 .4-.114.932-.394-.07.092-.481.598-.561.698.072.033.242.107.47.187-.17.047-.317.095-.423.133 0 0 .054.141.165.36-.089-.058-.191-.128-.257-.166 0 0-.155.279-.313.731z"/><path fill="#FFF" d="M269.69 683.708c.214 1.728-2.506 2.025-2.669.291-.214-1.728 2.505-2.025 2.669-.291z"/><path fill="#F7BD5A" d="M223.446 674.578s-2.124-1.523-4.46-.702c.881-.835 1.209-2.67 1.064-4.307-.335.084-2.444.659-3.536 2.716.043-1.419-1.549-3.422-2.134-3.681 0 0-1.983 2.764-.204 5.45-.876-1.333-4.142-1.906-5.034-1.428 0 0 .504 1.934 2.18 3-.948.207-2.031 1.215-2.848 2.109.291.175 2.123 1.222 4.297.623-1.004.993-1.257 3.475-1.038 4.054 0 0 2.444-.407 3.557-2.488.01 1.174 1.074 2.63 2.272 3.646.18-.274 1.352-2.387.525-4.613.904.898 2.845 1.153 4.576.829-.106-.306-.787-2.125-2.64-3.1 1.397-.079 3.175-1.586 3.423-2.108zm-7.632 2.546v-.726c-.05.012-.148.04-.268.077.019-.026.054-.064.07-.087 0 0-.122-.087-.334-.206l.208-.018a6.022 6.022 0 0 0-.701-1.362c.246.26.693.672.949.94.036-.06.113-.2.203-.379.009.083.019.157.029.219 0 0 .411-.07.969-.291-.08.083-.543.543-.634.633.068.041.229.133.447.237-.174.029-.325.06-.435.087 0 0 .038.146.125.375-.083-.068-.176-.148-.238-.193 0 0-.184.262-.39.694z"/><path fill="#FFF" d="M217.199 675.915c.026 1.741-2.71 1.741-2.685 0-.025-1.741 2.711-1.742 2.685 0z"/></svg>