<svg width="183" height="86" viewBox="0 0 183 86" fill="none" xmlns="http://www.w3.org/2000/svg">
<path d="M30.528 65.864C36.36 65.864 41.616 64.136 45.864 61.112L49.464 64.352C50.256 65.144 51.264 65.648 52.56 65.648C54.864 65.648 56.736 63.704 56.736 61.4C56.736 59.888 56.088 58.808 55.08 57.944L51.84 55.28C55.08 50.888 56.952 45.488 56.952 39.8V39.656C56.952 25.472 46.152 13.736 30.672 13.736C15.192 13.736 4.248 25.616 4.248 39.8V39.944C4.248 54.128 15.048 65.864 30.528 65.864ZM33.12 50.024L39.384 55.352C36.936 56.792 33.984 57.656 30.672 57.656C20.664 57.656 13.536 49.592 13.536 39.8V39.656C13.536 29.864 20.52 21.872 30.528 21.872C40.536 21.872 47.664 30.008 47.664 39.8V39.944C47.664 43.544 46.8 46.784 45.216 49.52L38.736 43.616C37.728 42.752 36.936 42.32 35.64 42.32C33.336 42.32 31.464 44.264 31.464 46.568C31.464 48.08 32.112 49.16 33.12 50.024Z" fill="url(#paint0_linear_1_198)"/>
<path d="M66.608 59.672V60.392C66.608 63.2 68.768 65.36 71.72 65.36C74.6 65.36 76.76 63.2 76.76 60.392V59.672C76.76 56.864 74.6 54.704 71.72 54.704C68.768 54.704 66.608 56.864 66.608 59.672Z" fill="#01FF88"/>
<path d="M91.35 43.35C91.35 41.63 91.65 40.06 92.25 38.64C92.87 37.22 93.68 36.06 94.68 35.16C95.7 34.24 96.84 33.53 98.1 33.03C99.36 32.53 100.67 32.28 102.03 32.28C103.39 32.28 104.7 32.53 105.96 33.03C107.22 33.53 108.35 34.24 109.35 35.16C110.37 36.06 111.18 37.22 111.78 38.64C112.4 40.06 112.71 41.63 112.71 43.35C112.71 46.53 111.71 49.15 109.71 51.21L112.2 54L110.19 55.77L107.61 52.92C105.93 53.94 104.07 54.45 102.03 54.45C100.21 54.45 98.5 54.03 96.9 53.19C95.3 52.35 93.97 51.07 92.91 49.35C91.87 47.63 91.35 45.63 91.35 43.35ZM96.6 37.2C95.1 38.66 94.35 40.71 94.35 43.35C94.35 45.99 95.1 48.05 96.6 49.53C98.1 51.01 99.91 51.75 102.03 51.75C103.39 51.75 104.63 51.44 105.75 50.82L102.06 46.68L104.1 44.91L107.82 49.11C109.08 47.59 109.71 45.67 109.71 43.35C109.71 40.71 108.96 38.66 107.46 37.2C105.96 35.72 104.15 34.98 102.03 34.98C99.91 34.98 98.1 35.72 96.6 37.2ZM125.963 52.26C125.583 52.98 125.003 53.53 124.223 53.91C123.443 54.27 122.603 54.45 121.703 54.45C120.063 54.45 118.753 53.91 117.773 52.83C116.793 51.73 116.303 50.34 116.303 48.66V39.57H119.123V48.24C119.123 49.32 119.383 50.21 119.903 50.91C120.443 51.61 121.273 51.96 122.393 51.96C123.513 51.96 124.363 51.63 124.943 50.97C125.523 50.29 125.813 49.39 125.813 48.27V39.57H128.633V51.33C128.633 52.27 128.683 53.16 128.783 54H126.083C126.003 53.56 125.963 52.98 125.963 52.26ZM136.235 54H133.445V39.57H136.235V54ZM133.385 35.55C133.005 35.15 132.815 34.67 132.815 34.11C132.815 33.55 133.005 33.07 133.385 32.67C133.785 32.27 134.265 32.07 134.825 32.07C135.385 32.07 135.865 32.27 136.265 32.67C136.665 33.05 136.865 33.53 136.865 34.11C136.865 34.67 136.665 35.15 136.265 35.55C135.865 35.93 135.385 36.12 134.825 36.12C134.265 36.12 133.785 35.93 133.385 35.55ZM151.413 54H139.833V51.54L147.753 42.12H139.953V39.57H151.263V42.03L143.343 51.45H151.413V54ZM165.387 54H153.807V51.54L161.727 42.12H153.927V39.57H165.237V42.03L157.317 51.45H165.387V54ZM172.582 60.03H169.492L173.092 52.41L166.882 39.57H170.122L174.622 49.53L178.942 39.57H181.972L172.582 60.03Z" fill="#333333"/>
<defs>
<linearGradient id="paint0_linear_1_198" x1="0" y1="0" x2="79.4306" y2="64.5517" gradientUnits="userSpaceOnUse">
<stop stop-color="#0467FF"/>
<stop offset="1" stop-color="#59E5FF"/>
</linearGradient>
</defs>
</svg>
