<svg xmlns="http://www.w3.org/2000/svg" width="131" height="131" viewBox="0 -16 131 131" fill="none">
    <circle cx="65.5" cy="47.5" r="60" fill="#E2FFF2"/>
  <path d="M74.1944 35H56.8056C55.7963 35 54.8283 35.4009 54.1146 36.1146C53.4009 36.8283 53 37.7963 53 38.8056V56.1944C53 57.2037 53.4009 58.1717 54.1146 58.8854C54.8283 59.5991 55.7963 60 56.8056 60H74.1944C75.2037 60 76.1717 59.5991 76.8854 58.8854C77.5991 58.1717 78 57.2037 78 56.1944V38.8056C78 37.7963 77.5991 36.8283 76.8854 36.1146C76.1717 35.4009 75.2037 35 74.1944 35ZM58.5556 46.1111H55.7778V43.3333H58.5556V46.1111ZM55.7778 48.8889H58.5556V51.6667H55.7778V48.8889ZM61.3333 37.7778H69.6667V57.2222H61.3333V37.7778ZM75.2222 46.1111H72.4444V43.3333H75.2222V46.1111ZM72.4444 48.8889H75.2222V51.6667H72.4444V48.8889ZM75.2222 38.8056V40.5556H72.4444V37.7778H74.1944C74.3294 37.7778 74.4631 37.8044 74.5878 37.856C74.7125 37.9077 74.8258 37.9834 74.9212 38.0788C75.0166 38.1742 75.0923 38.2875 75.144 38.4122C75.1956 38.5369 75.2222 38.6706 75.2222 38.8056ZM56.8056 37.7778H58.5556V40.5556H55.7778V38.8056C55.7778 38.6706 55.8044 38.5369 55.856 38.4122C55.9077 38.2875 55.9834 38.1742 56.0788 38.0788C56.1742 37.9834 56.2875 37.9077 56.4122 37.856C56.5369 37.8044 56.6706 37.7778 56.8056 37.7778ZM55.7778 56.1944V54.4444H58.5556V57.2222H56.8056C56.6706 57.2222 56.5369 57.1956 56.4122 57.144C56.2875 57.0923 56.1742 57.0166 56.0788 56.9212C55.9834 56.8258 55.9077 56.7125 55.856 56.5878C55.8044 56.4631 55.7778 56.3294 55.7778 56.1944ZM75.2222 56.1944C75.2222 56.467 75.1139 56.7284 74.9212 56.9212C74.7284 57.1139 74.467 57.2222 74.1944 57.2222H72.4444V54.4444H75.2222V56.1944Z" fill="#2DFF9C"/>
  
</svg>