<svg xmlns="http://www.w3.org/2000/svg" width="75" height="75" viewBox="0 -16 131 131" fill="none">
    <circle cx="65.5" cy="47.5" r="60" fill="#E6F0FF"/>
  <path d="M77.1638 37.3354C77.0044 37.2065 76.8183 37.115 76.6189 37.0675C76.4196 37.02 76.2121 37.0179 76.0118 37.0611L65.3426 39.461L54.6735 37.0337C54.47 36.9877 54.2587 36.9888 54.0557 37.0368C53.8527 37.0848 53.6633 37.1785 53.502 37.3108C53.3407 37.443 53.2116 37.6103 53.1247 37.7999C53.0378 37.9896 52.9953 38.1965 53.0004 38.4051V55.1356C52.9927 55.4526 53.095 55.7625 53.29 56.0126C53.4851 56.2626 53.7607 56.4373 54.0701 56.507L65.0409 58.9754H65.6443L76.6152 56.507C76.9246 56.4373 77.2002 56.2626 77.3952 56.0126C77.5903 55.7625 77.6926 55.4526 77.6849 55.1356V38.4051C77.6839 38.1991 77.6366 37.9959 77.5464 37.8108C77.4561 37.6256 77.3254 37.4631 77.1638 37.3354ZM55.7431 40.1192L63.9713 41.9706V55.8899L55.7431 54.0385V40.1192ZM74.9422 54.0385L66.714 55.8899V41.9706L74.9422 40.1192V54.0385Z" fill="#5E9DFF"/>

</svg>