<svg width="168" height="168" viewBox="0 0 168 168" fill="none" xmlns="http://www.w3.org/2000/svg">
<g filter="url(#filter0_d_1_373)">
<circle cx="84" cy="66" r="53" stroke="url(#paint0_linear_1_373)" stroke-width="5" stroke-linecap="round" stroke-linejoin="round"/>
</g>
<path d="M69.4338 64.939L84.0073 53.2104L98.5809 65.3734C99.062 65.7722 99.6659 65.9928 100.291 65.9978C100.689 65.9985 101.083 65.9112 101.444 65.7423C101.806 65.5734 102.125 65.3269 102.38 65.0205C102.609 64.7461 102.781 64.4294 102.887 64.0884C102.993 63.7474 103.031 63.3888 102.998 63.0332C102.965 62.6776 102.863 62.332 102.696 62.0161C102.53 61.7002 102.302 61.4203 102.028 61.1924L85.7442 47.6176C85.2586 47.2183 84.6495 47 84.0209 47C83.3923 47 82.7832 47.2183 82.2976 47.6176L66.0143 60.7308C65.7355 60.9549 65.5037 61.2318 65.3322 61.5458C65.1608 61.8597 65.0531 62.2045 65.0152 62.5602C64.9774 62.916 65.0102 63.2757 65.1118 63.6187C65.2134 63.9617 65.3817 64.2812 65.6072 64.5589C65.8331 64.8358 66.1114 65.0654 66.4262 65.2344C66.741 65.4034 67.086 65.5086 67.4416 65.5439C67.7971 65.5793 68.1561 65.544 68.4979 65.4402C68.8398 65.3364 69.1578 65.1661 69.4338 64.939Z" fill="#08FE90"/>
<path d="M85.7442 66.6223C85.2586 66.2229 84.6495 66.0046 84.0209 66.0046C83.3923 66.0046 82.7832 66.2229 82.2976 66.6223L66.0143 79.7355C65.7355 79.9595 65.5037 80.2365 65.3322 80.5504C65.1608 80.8644 65.0531 81.2091 65.0152 81.5649C64.9774 81.9206 65.0102 82.2803 65.1118 82.6233C65.2134 82.9663 65.3817 83.2858 65.6072 83.5636C65.8311 83.8425 66.108 84.0743 66.4218 84.2458C66.7356 84.4174 67.0802 84.5251 67.4358 84.563C67.7914 84.6008 68.151 84.568 68.4939 84.4664C68.8367 84.3647 69.1562 84.1963 69.4338 83.9708L84.0073 72.2151L98.5809 84.378C99.062 84.7769 99.6659 84.9974 100.291 85.0025C100.689 85.0031 101.083 84.9159 101.444 84.747C101.806 84.578 102.125 84.3316 102.38 84.0251C102.609 83.7508 102.781 83.434 102.887 83.093C102.993 82.752 103.031 82.3934 102.998 82.0378C102.965 81.6822 102.863 81.3366 102.696 81.0207C102.53 80.7048 102.302 80.4249 102.028 80.197L85.7442 66.6223Z" fill="#08FE90"/>
<defs>
<filter id="filter0_d_1_373" x="0.5" y="0.5" width="167" height="167" filterUnits="userSpaceOnUse" color-interpolation-filters="sRGB">
<feFlood flood-opacity="0" result="BackgroundImageFix"/>
<feColorMatrix in="SourceAlpha" type="matrix" values="0 0 0 0 0 0 0 0 0 0 0 0 0 0 0 0 0 0 127 0" result="hardAlpha"/>
<feMorphology radius="12" operator="erode" in="SourceAlpha" result="effect1_dropShadow_1_373"/>
<feOffset dy="18"/>
<feGaussianBlur stdDeviation="20"/>
<feColorMatrix type="matrix" values="0 0 0 0 0.6 0 0 0 0 0.87451 0 0 0 0 1 0 0 0 0.4 0"/>
<feBlend mode="normal" in2="BackgroundImageFix" result="effect1_dropShadow_1_373"/>
<feBlend mode="normal" in="SourceGraphic" in2="effect1_dropShadow_1_373" result="shape"/>
</filter>
<linearGradient id="paint0_linear_1_373" x1="84" y1="13" x2="84" y2="119" gradientUnits="userSpaceOnUse">
<stop stop-color="#1C8AFF"/>
<stop offset="1" stop-color="#47CAFF" stop-opacity="0.5"/>
</linearGradient>
</defs>
</svg>
