<svg width="168" height="168" viewBox="0 0 168 168" fill="none" xmlns="http://www.w3.org/2000/svg">
<g filter="url(#filter0_d_1_367)">
<circle cx="84" cy="66" r="53" stroke="url(#paint0_linear_1_367)" stroke-width="5" stroke-linecap="round" stroke-linejoin="round"/>
</g>
<path d="M79.5883 64.651C79.2295 64.2932 78.743 64.0922 78.2357 64.0922C77.7284 64.0922 77.2419 64.2932 76.8832 64.651C76.5245 65.0088 76.323 65.494 76.323 66C76.323 66.506 76.5245 66.9912 76.8832 67.349L82.5981 73.049C82.7761 73.2251 82.9872 73.3644 83.2193 73.459C83.4514 73.5535 83.6999 73.6014 83.9506 73.6C84.2114 73.5917 84.4677 73.5302 84.7036 73.419C84.9395 73.3079 85.1501 73.1496 85.3221 72.954L98.6568 57.754C98.9647 57.3727 99.1131 56.8876 99.0712 56.3998C99.0293 55.9121 98.8002 55.4592 98.4317 55.1358C98.0632 54.8124 97.5838 54.6433 97.0933 54.6638C96.6029 54.6844 96.1394 54.8929 95.7994 55.246L83.9506 68.926L79.5883 64.651Z" fill="#08FE90"/>
<path d="M101.095 64.1C100.59 64.1 100.105 64.3002 99.7481 64.6565C99.3908 65.0128 99.1901 65.4961 99.1901 66C99.1901 70.0313 97.5845 73.8975 94.7265 76.748C91.8686 79.5986 87.9923 81.2 83.9505 81.2C80.9409 81.1986 77.999 80.3084 75.4959 78.6417C72.9928 76.975 71.0406 74.6063 69.8853 71.8345C68.7301 69.0626 68.4236 66.0116 69.0045 63.0662C69.5854 60.1208 71.0277 57.4129 73.1495 55.284C74.5605 53.8578 76.2425 52.7267 78.0971 51.9567C79.9517 51.1868 81.9417 50.7936 83.9505 50.8C85.1686 50.8076 86.3823 50.9478 87.5699 51.218C87.8185 51.2947 88.0801 51.3198 88.3387 51.2917C88.5974 51.2637 88.8475 51.1831 89.0737 51.0549C89.2999 50.9268 89.4974 50.7538 89.654 50.5466C89.8106 50.3394 89.923 50.1024 89.9842 49.8502C90.0455 49.598 90.0543 49.336 90.0101 49.0803C89.966 48.8246 89.8698 48.5806 89.7274 48.3634C89.5851 48.1462 89.3997 47.9604 89.1826 47.8174C88.9656 47.6744 88.7214 47.5773 88.4653 47.532C86.9854 47.1848 85.4708 47.0063 83.9505 47C80.187 47.0195 76.5136 48.1505 73.3939 50.2502C70.2742 52.35 67.8479 55.3244 66.4214 58.7981C64.9949 62.2718 64.632 66.0892 65.3785 69.7684C66.125 73.4476 67.9475 76.8238 70.6159 79.471C74.1528 83.0003 78.9475 84.9884 83.9505 85C89.0028 85 93.8481 82.9982 97.4205 79.435C100.993 75.8718 103 71.0391 103 66C103 65.4961 102.799 65.0128 102.442 64.6565C102.085 64.3002 101.6 64.1 101.095 64.1Z" fill="#08FE90"/>
<defs>
<filter id="filter0_d_1_367" x="0.5" y="0.5" width="167" height="167" filterUnits="userSpaceOnUse" color-interpolation-filters="sRGB">
<feFlood flood-opacity="0" result="BackgroundImageFix"/>
<feColorMatrix in="SourceAlpha" type="matrix" values="0 0 0 0 0 0 0 0 0 0 0 0 0 0 0 0 0 0 127 0" result="hardAlpha"/>
<feMorphology radius="12" operator="erode" in="SourceAlpha" result="effect1_dropShadow_1_367"/>
<feOffset dy="18"/>
<feGaussianBlur stdDeviation="20"/>
<feColorMatrix type="matrix" values="0 0 0 0 0.6 0 0 0 0 0.87451 0 0 0 0 1 0 0 0 0.4 0"/>
<feBlend mode="normal" in2="BackgroundImageFix" result="effect1_dropShadow_1_367"/>
<feBlend mode="normal" in="SourceGraphic" in2="effect1_dropShadow_1_367" result="shape"/>
</filter>
<linearGradient id="paint0_linear_1_367" x1="137" y1="13" x2="84" y2="119" gradientUnits="userSpaceOnUse">
<stop stop-color="#1C8AFF"/>
<stop offset="1" stop-color="#47CAFF" stop-opacity="0.5"/>
</linearGradient>
</defs>
</svg>
