<svg width="30" height="30" viewBox="0 0 30 30" fill="none" xmlns="http://www.w3.org/2000/svg">
<path d="M20.25 8.99994C18.9726 8.99555 17.7068 9.24309 16.5252 9.72839C15.3435 10.2137 14.2692 10.9272 13.3636 11.8282C12.458 12.7291 11.739 13.7998 11.2476 14.9789C10.7562 16.158 10.5022 17.4225 10.5 18.6999V28.4999C10.5 28.8977 10.658 29.2792 10.9393 29.5605C11.2206 29.8418 11.6022 29.9999 12 29.9999H15.5C15.8978 29.9999 16.2793 29.8418 16.5606 29.5605C16.8419 29.2792 17 28.8977 17 28.4999V18.6999C16.9997 18.2456 17.0951 17.7963 17.28 17.3813C17.465 16.9663 17.7353 16.595 18.0734 16.2915C18.4115 15.988 18.8098 15.7592 19.2422 15.6199C19.6747 15.4806 20.1316 15.4341 20.5833 15.4833C21.3933 15.5853 22.1377 15.981 22.6753 16.5954C23.2129 17.2098 23.5064 18.0002 23.5 18.8166V28.4999C23.5 28.8977 23.658 29.2792 23.9393 29.5605C24.2206 29.8418 24.6021 29.9999 25 29.9999H28.5C28.8978 29.9999 29.2793 29.8418 29.5606 29.5605C29.8419 29.2792 29.9999 28.8977 29.9999 28.4999V18.6999C29.9978 17.4225 29.7437 16.158 29.2523 14.9789C28.761 13.7998 28.0419 12.7291 27.1363 11.8282C26.2307 10.9272 25.1564 10.2137 23.9748 9.72839C22.7931 9.24309 21.5274 8.99555 20.25 8.99994Z" fill="url(#paint0_linear_1_385)"/>
<path d="M5.99998 10.5H1.5C0.671571 10.5 0 11.1716 0 12V28.5C0 29.3284 0.671571 29.9999 1.5 29.9999H5.99998C6.82841 29.9999 7.49998 29.3284 7.49998 28.5V12C7.49998 11.1716 6.82841 10.5 5.99998 10.5Z" fill="url(#paint1_linear_1_385)"/>
<path d="M3.74999 7.49998C5.82105 7.49998 7.49998 5.82105 7.49998 3.74999C7.49998 1.67893 5.82105 0 3.74999 0C1.67893 0 0 1.67893 0 3.74999C0 5.82105 1.67893 7.49998 3.74999 7.49998Z" fill="url(#paint2_linear_1_385)"/>
<defs>
<linearGradient id="paint0_linear_1_385" x1="20.25" y1="8.99988" x2="20.25" y2="29.9999" gradientUnits="userSpaceOnUse">
<stop stop-color="#2F80ED"/>
<stop offset="1" stop-color="#56CCF2"/>
</linearGradient>
<linearGradient id="paint1_linear_1_385" x1="3.74999" y1="10.5" x2="3.74999" y2="29.9999" gradientUnits="userSpaceOnUse">
<stop stop-color="#2F80ED"/>
<stop offset="1" stop-color="#56CCF2"/>
</linearGradient>
<linearGradient id="paint2_linear_1_385" x1="3.74999" y1="0" x2="3.74999" y2="7.49998" gradientUnits="userSpaceOnUse">
<stop stop-color="#2F80ED"/>
<stop offset="1" stop-color="#56CCF2"/>
</linearGradient>
</defs>
</svg>
