<svg width="30" height="30" viewBox="0 0 30 30" fill="none" xmlns="http://www.w3.org/2000/svg">
<path d="M15 0.997314C22.7344 0.997314 28.9922 7.26247 28.9922 14.9942C28.9922 22.7259 22.7344 29.0028 15 29.0028C7.26562 29.0028 1.00781 22.7376 1.00781 15.0059C1.00781 7.2742 7.26562 0.997314 15 0.997314Z" fill="url(#paint0_linear_1_393)"/>
<path d="M15 30C6.72656 30 0 23.2773 0 15.0059C0 6.72272 6.72656 0 15 0C23.2734 0 30 6.72272 30 14.9941C30 23.2655 23.2734 30 15 30ZM27.6445 17.0473C27.2109 16.9065 23.6836 15.8623 19.6641 16.4959C21.3398 21.095 22.0195 24.8494 22.1484 25.6238C25.0312 23.6879 27.082 20.614 27.6445 17.0473ZM20.0039 26.8088C19.8164 25.6824 19.0664 21.7638 17.2734 17.0943C17.25 17.106 17.2148 17.1177 17.1914 17.1177C9.96094 19.6402 7.37109 24.65 7.13672 25.1193C9.30469 26.8088 12.0352 27.8178 15 27.8178C16.7695 27.8295 18.4688 27.4658 20.0039 26.8088ZM5.48438 23.5823C5.77734 23.0896 9.29297 17.2702 15.9023 15.1232C16.0664 15.0645 16.2422 15.0176 16.4062 14.9707C16.0898 14.2433 15.7383 13.5158 15.3633 12.8002C8.96484 14.7126 2.75391 14.6304 2.19141 14.6187C2.19141 14.7478 2.17969 14.8768 2.17969 15.0059C2.19141 18.3027 3.43359 21.3062 5.48438 23.5823ZM2.46094 12.3895C3.03516 12.4013 8.30859 12.4247 14.3086 10.8291C12.1875 7.05123 9.89062 3.88346 9.5625 3.42589C5.96484 5.11537 3.29297 8.42393 2.46094 12.3895ZM12 2.55768C12.3516 3.02698 14.6836 6.19476 16.7812 10.0548C21.3398 8.34181 23.2617 5.76066 23.4961 5.43215C21.2344 3.42589 18.2578 2.20571 15 2.20571C13.9688 2.20571 12.9609 2.33477 12 2.55768ZM24.9141 6.91044C24.6445 7.27415 22.5 10.0313 17.7656 11.9671C18.0586 12.5772 18.3516 13.1991 18.6211 13.8209C18.7148 14.0438 18.8086 14.2667 18.9023 14.4779C23.168 13.9382 27.3984 14.8064 27.8203 14.8885C27.7852 11.8733 26.707 9.09269 24.9141 6.91044Z" fill="url(#paint1_linear_1_393)"/>
<defs>
<linearGradient id="paint0_linear_1_393" x1="1" y1="1" x2="29" y2="29" gradientUnits="userSpaceOnUse">
<stop stop-color="#FF00D6"/>
<stop offset="1" stop-color="#FF0063" stop-opacity="0"/>
<stop offset="1" stop-color="#FF00C7" stop-opacity="0.74"/>
</linearGradient>
<linearGradient id="paint1_linear_1_393" x1="0" y1="0" x2="30" y2="30" gradientUnits="userSpaceOnUse">
<stop stop-color="#CA247E"/>
<stop offset="1" stop-color="#FF4DCA"/>
</linearGradient>
</defs>
</svg>
