<svg width="31" height="28" viewBox="0 0 31 28" fill="none" xmlns="http://www.w3.org/2000/svg">
<path d="M8.52248 27.0433C11.005 27.1269 13.4789 26.7086 15.7982 25.8131C18.1174 24.9175 20.2348 23.5629 22.0253 21.8293C23.8158 20.0958 25.243 18.0183 26.2225 15.7199C27.2021 13.4214 27.7142 10.9485 27.7285 8.44739C28.8662 7.02972 29.711 5.39737 30.2132 3.64627C30.2507 3.50791 30.2477 3.3616 30.2045 3.22494C30.1613 3.08828 30.0798 2.9671 29.9698 2.876C29.8598 2.7849 29.7261 2.72775 29.5846 2.71144C29.4431 2.69514 29.2999 2.72037 29.1723 2.78409C28.5771 3.07259 27.9071 3.16578 27.2565 3.05053C26.6059 2.93528 26.0077 2.61741 25.546 2.14169C24.9566 1.49181 24.2437 0.967664 23.4495 0.600305C22.6553 0.232946 21.796 0.0298499 20.9224 0.00304998C20.0488 -0.02375 19.1787 0.126292 18.3638 0.444285C17.5488 0.762278 16.8056 1.24175 16.178 1.8543C15.3188 2.69223 14.6894 3.73974 14.3511 4.89502C14.0128 6.05031 13.9771 7.27408 14.2473 8.44739C8.62321 8.78549 4.76185 6.09754 1.67277 2.41217C1.57997 2.30635 1.45857 2.23003 1.32341 2.19252C1.18824 2.15502 1.04516 2.15796 0.911622 2.20099C0.77809 2.24402 0.659889 2.32527 0.571456 2.43482C0.483022 2.54437 0.428182 2.67749 0.413634 2.8179C-0.174854 6.10502 0.249659 9.49475 1.63016 12.5318C3.01066 15.5689 5.28103 18.1079 8.13634 19.8078C6.22184 22.0187 3.53329 23.3996 0.631884 23.6622C0.476443 23.6882 0.332951 23.7624 0.221492 23.8746C0.110032 23.9867 0.0361832 24.1311 0.0102799 24.2876C-0.0156235 24.4441 0.00771545 24.6049 0.0770303 24.7474C0.146345 24.8898 0.258167 25.0069 0.396845 25.0823C2.92103 26.3525 5.70072 27.0233 8.52248 27.0433Z" fill="url(#paint0_linear_1_390)"/>
<defs>
<linearGradient id="paint0_linear_1_390" x1="0" y1="0" x2="30" y2="27" gradientUnits="userSpaceOnUse">
<stop stop-color="#2F80ED"/>
<stop offset="0.4375" stop-color="#6CAEFF"/>
<stop offset="1" stop-color="#B5E4FF"/>
</linearGradient>
</defs>
</svg>
